<?xml version="1.0" encoding="utf-8"?>
<!-- Generator: Adobe Illustrator 18.0.0, SVG Export Plug-In . SVG Version: 6.00 Build 0)  -->
<!DOCTYPE svg PUBLIC "-//W3C//DTD SVG 1.1//EN" "http://www.w3.org/Graphics/SVG/1.1/DTD/svg11.dtd">
<svg version="1.1" id="Layer_1" xmlns="http://www.w3.org/2000/svg" xmlns:xlink="http://www.w3.org/1999/xlink" x="0px" y="0px"
	 viewBox="0 0 456.1 516.2" enable-background="new 0 0 456.1 516.2" xml:space="preserve">
<path fill="#173E8B" d="M0,143.9l1,205.9c0,54.3,21.2,60.8,63.9,83.9l0-217.4L0,143.9z"/>
<polygon fill="#18479F" points="205.1,298.9 205.1,516.2 456.1,371.3 456.1,154 "/>
<polygon fill="#173E8B" points="63.9,217.4 63.9,434.7 205.1,516.2 205.1,298.9 "/>
<path fill="#1641C3" d="M48.3,208.3c0,0-108.6-64.1,0-126.8L189.4,0l266.7,154l-251,144.9L48.3,208.3z"/>
<g>
	<g>
		<g>
			<polygon fill="#BABABA" points="271.3,285.5 327.7,252.9 244.9,410.8 217,388.8 			"/>
			<polygon fill="#BABABA" points="282.6,356 309.9,377.7 286.4,422.6 270.6,431.8 250.9,416.5 			"/>
			<polygon fill="#BABABA" points="316,382.8 299.1,415.3 332.8,395.8 			"/>
		</g>
		<g>
			<polygon fill="#BABABA" points="395.1,300.6 378.7,332.6 392.8,343.3 402.3,337.8 414.1,315 			"/>
			<polygon fill="#BABABA" points="401.8,250.5 368,270.1 417.7,307.4 434.4,274.9 			"/>
			<polygon fill="#BABABA" points="375,339.9 385.1,347.7 364.9,359.3 			"/>
		</g>
	</g>
	<polygon fill="#B2B2B2" points="260.7,422.5 250.9,416.5 282.6,356 292.4,362 	"/>
	<path fill="#3A3A3A" d="M353.7,268"/>
	<polygon fill="#B2B2B2" points="325.8,388.8 316,382.8 297.2,413.9 309,421.3 	"/>
	<g>
		<g>
			<polygon fill="#CECECE" points="281.2,291.5 337.5,258.9 254.7,416.8 226.8,394.8 			"/>
			<polygon fill="#CECECE" points="292.4,362 319.7,383.7 296.3,428.6 280.4,437.8 260.7,422.5 			"/>
			<polygon fill="#CECECE" points="325.8,388.8 309,421.3 342.7,401.8 			"/>
		</g>
		<g>
			<polygon fill="#CECECE" points="411.6,256.5 377.8,276 427.5,313.4 444.2,280.9 			"/>
			<polygon fill="#CECECE" points="404.9,306.6 388.5,338.5 402.6,349.2 412.1,343.7 423.9,320.9 			"/>
			<polygon fill="#CECECE" points="384.8,345.8 395,353.6 374.7,365.3 			"/>
		</g>
	</g>
	<polygon fill="#BABABA" points="327.7,252.9 337.5,258.9 281.2,291.5 271.3,285.5 	"/>
	<polygon fill="#B2B2B2" points="217,388.8 226.8,394.8 254.7,416.8 244.9,410.8 	"/>
	<polygon fill="#A5A4A4" points="250.9,416.5 260.7,422.5 280.4,437.8 270.6,431.8 	"/>
	<polygon fill="#A5A4A4" points="368,270.1 377.8,276 411.6,256.5 401.8,250.5 	"/>
	<polygon fill="#B2B2B2" points="427.5,313.4 417.7,307.4 368,270.1 377.8,276 	"/>
	<polygon fill="#B2B2B2" points="395.1,300.6 404.9,306.6 388.5,338.5 378.7,332.6 	"/>
	<polygon fill="#B2B2B2" points="375,339.9 384.8,345.8 374.7,365.3 364.9,359.3 	"/>
	<polygon fill="#AAAAAA" points="392.8,343.3 402.6,349.2 388.5,338.5 378.7,332.6 	"/>
</g>
<g>
	<path fill="#CECECE" d="M219.1,189.7c-2.7,1.5-5.4,3.1-8,4.7c-1.3,0.8-2.7,1-4.4,0.4c-2.8-0.8-5.7-1.5-8.5-2.2
		c-1.5-0.4-2.5-0.3-3.6,0.4c-8.6,5-17.2,9.9-25.8,14.9c-1.3,0.7-1.3,1.4-0.6,2.3c1.3,1.6,2.4,3.2,3.9,4.7c1,1.1,0.4,1.9-1,2.7
		c-5.4,3.1-10.7,6.2-16.1,9.3c-2.3,1.3-2.6,1.3-3.9-0.5c-14.6-19.9-29.1-39.8-43.7-59.7c-2.8-3.9-5.7-7.8-8.5-11.6
		c-0.5-0.7-1.3-1.4,0-2.2c1.3-0.8,2.7-0.4,4-0.1c38.1,9.3,76.1,18.6,114.2,27.8c3.3,0.8,6.6,1.6,10,2.4c2.1,0.5,2.1,1.1,0.6,1.9
		C224.7,186.4,221.9,188,219.1,189.7z M142.6,177.8c2.2,2.8,4.2,5.1,6.1,7.5c2.3,2.8,4.6,5.7,6.9,8.5c0.5,0.7,1,1.3,2.5,0.4
		c4.2-2.5,8.5-4.9,12.7-7.4c0.9-0.5,0.9-0.9-0.3-1.3C161.5,183,152.4,180.5,142.6,177.8z"/>
	<path fill="#CECECE" d="M230.2,79.2c5-3.2,11.3-5.7,18.3-7.6c1.8-0.5,3.2-0.6,4.6,0.5c4.1,3.1,8.3,6.1,12.4,9.1
		c2.4,1.8,2.3,1.7-1.4,2.7c-14.8,3.7-25.2,9.6-26.7,19.3c-1.1,7.5,4.6,13.6,14.2,18.3c8.6,4.3,18.7,6.4,30.3,5.3
		c6.5-0.6,12.2-2.2,17.1-4.8c6.6-3.4,12-7.4,15-12.2c0.9-1.4,2-1.2,3.6-0.5c5.6,2.5,11.1,5.1,16.8,7.5c1.4,0.6,1.9,1.2,1,2.1
		c-12.4,13.8-30.6,23.1-58.7,23.9c-14.3,0.4-27.2-2.5-38.6-7.4c-14.4-6.2-23.9-14.4-27.1-24.7c-3-9.8,1.4-18.7,11.5-26.7
		C224.8,82.4,227.3,80.8,230.2,79.2z"/>
	<path fill="#CECECE" d="M215,140.5c14,8.1,27.9,16.1,41.9,24.2c2.1,1.2,2.2,2,0.1,3.1c-4.4,2.4-8.6,4.9-12.8,7.4
		c-2.8,1.6-3,1.6-5.8,0c-18.2-10.5-36.3-21-54.5-31.4c-9.6-5.6-19.3-11.1-28.9-16.7c-2.8-1.6-2.8-1.8,0-3.4
		c4.2-2.4,8.4-4.9,12.6-7.3c2.8-1.6,2.8-1.6,5.7,0.1C187.3,124.5,201.1,132.5,215,140.5z"/>
</g>
</svg>
