<?xml version="1.0" encoding="utf-8"?>
<!-- Generator: Adobe Illustrator 18.0.0, SVG Export Plug-In . SVG Version: 6.00 Build 0)  -->
<!DOCTYPE svg PUBLIC "-//W3C//DTD SVG 1.1//EN" "http://www.w3.org/Graphics/SVG/1.1/DTD/svg11.dtd">
<svg version="1.1" id="Layer_1" xmlns="http://www.w3.org/2000/svg" xmlns:xlink="http://www.w3.org/1999/xlink" x="0px" y="0px"
	 viewBox="0 0 836.6 769.4" enable-background="new 0 0 836.6 769.4" xml:space="preserve">
<g>
	<polygon fill="#404A32" points="586.8,398.5 555.4,416.7 586.8,434.8 618.2,416.7 	"/>
	<polygon fill="#475139" points="586.8,434.8 586.8,507.2 619.1,488.6 618.2,416.7 	"/>
	<polygon fill="#505B3F" points="586.8,434.8 586.8,507.2 555.4,489.1 555.4,416.7 	"/>
	<g>
		<path fill="#566045" d="M598.1,411c6.3,3.6,6.3,9.5,0,13.1c-6.3,3.6-16.4,3.6-22.6,0c-6.3-3.6-6.3-9.5,0-13.1
			C581.7,407.4,591.9,407.4,598.1,411z"/>
		<polygon fill="#566045" points="570.8,361.4 570.8,417.6 601.9,417.6 602.8,361.4 		"/>
		<path fill="#2E361F" d="M598.1,354.9c6.3,3.6,6.3,9.5,0,13.1c-6.3,3.6-16.4,3.6-22.6,0s-6.3-9.5,0-13.1
			C581.7,351.3,591.9,351.3,598.1,354.9z"/>
	</g>
	<g>
		<path fill="#586249" d="M597.6,217c5.9,3.4,5.9,8.9,0,12.3c-5.9,3.4-15.5,3.4-21.4,0c-3-1.7-4.4-3.9-4.4-6.2
			c0-2.2,1.5-4.5,4.4-6.2C582.1,213.6,591.7,213.6,597.6,217z"/>
		<g>
			<g>
				<polygon fill="#586249" points="571.6,264.5 571.8,223.2 602,223.2 601.8,265.2 				"/>
				<path fill="#A1A37E" d="M595.7,356.8c4.9,2.8,4.9,7.4,0,10.2c-4.9,2.8-12.8,2.8-17.7,0c-4.9-2.8-4.9-7.4,0-10.2
					C583,354,590.9,354,595.7,356.8z"/>
				<polygon fill="#A1A37E" points="574.4,264.5 574.4,361.7 599.4,363 599.4,262.9 				"/>
				<path fill="#586249" d="M597.6,258.3c5.9,3.4,5.9,8.9,0,12.3c-5.9,3.4-15.5,3.4-21.4,0s-5.9-8.9,0-12.3
					C582.1,254.9,591.7,254.9,597.6,258.3z"/>
				<path fill="#A1A37E" d="M596,217.9c5,2.9,5,7.6,0,10.5c-5,2.9-13.2,2.9-18.2,0c-2.5-1.4-3.8-3.3-3.8-5.3c0-1.9,1.3-3.8,3.8-5.3
					C582.8,215,591,215,596,217.9z"/>
				<path fill="#A1A37E" d="M596,31.7c5,2.9,5,7.6,0,10.5s-13.2,2.9-18.2,0c-2.5-1.4-3.8-3.3-3.8-5.3c0-1.9,1.3-3.8,3.8-5.3
					C582.8,28.8,591,28.8,596,31.7z"/>
			</g>
			<polygon fill="#A1A37E" points="574.1,36.9 574.1,223.2 599.8,223.2 599.8,35.8 			"/>
		</g>
	</g>
	<path fill="#475139" d="M586.9,0c0,0-15.3,15.6-12.9,36.9c0,0,9.9,15,25.7-1.2C599.8,35.8,600.3,17,586.9,0z"/>
</g>
<g>
	<polygon fill="#404A32" points="693.3,400.7 661.9,418.8 693.3,436.9 724.7,418.8 	"/>
	<polygon fill="#475139" points="693.3,436.9 693.3,509.4 725.6,490.7 724.7,418.8 	"/>
	<polygon fill="#505B3F" points="693.3,436.9 693.3,509.4 661.9,491.3 661.9,418.8 	"/>
	<g>
		<path fill="#566045" d="M704.6,413.2c6.3,3.6,6.3,9.5,0,13.1c-6.3,3.6-16.4,3.6-22.6,0s-6.3-9.5,0-13.1
			C688.2,409.6,698.4,409.6,704.6,413.2z"/>
		<polygon fill="#566045" points="677.3,363.6 677.3,419.7 708.4,419.7 709.3,363.6 		"/>
		<path fill="#2E361F" d="M704.6,357c6.3,3.6,6.3,9.5,0,13.1c-6.3,3.6-16.4,3.6-22.6,0c-6.3-3.6-6.3-9.5,0-13.1
			C688.2,353.4,698.4,353.4,704.6,357z"/>
	</g>
	<g>
		<path fill="#586249" d="M704.1,219.2c5.9,3.4,5.9,8.9,0,12.3c-5.9,3.4-15.5,3.4-21.4,0c-3-1.7-4.4-3.9-4.4-6.2
			c0-2.2,1.5-4.5,4.4-6.2C688.6,215.8,698.2,215.8,704.1,219.2z"/>
		<g>
			<g>
				<polygon fill="#586249" points="678.1,266.7 678.3,225.3 708.5,225.3 708.3,267.3 				"/>
				<path fill="#A1A37E" d="M702.2,358.9c4.9,2.8,4.9,7.4,0,10.2s-12.8,2.8-17.7,0c-4.9-2.8-4.9-7.4,0-10.2
					C689.4,356.1,697.4,356.1,702.2,358.9z"/>
				<polygon fill="#A1A37E" points="680.9,266.7 680.9,363.8 705.9,365.1 705.9,265.1 				"/>
				<path fill="#586249" d="M704.1,260.5c5.9,3.4,5.9,8.9,0,12.3s-15.5,3.4-21.4,0s-5.9-8.9,0-12.3S698.2,257.1,704.1,260.5z"/>
				<path fill="#A1A37E" d="M702.5,220.1c5,2.9,5,7.6,0,10.5s-13.2,2.9-18.2,0c-2.5-1.4-3.8-3.3-3.8-5.3c0-1.9,1.3-3.8,3.8-5.3
					C689.3,217.2,697.5,217.2,702.5,220.1z"/>
				<path fill="#A1A37E" d="M702.5,33.9c5,2.9,5,7.6,0,10.5c-5,2.9-13.2,2.9-18.2,0c-2.5-1.4-3.8-3.3-3.8-5.3c0-1.9,1.3-3.8,3.8-5.3
					C689.3,31,697.5,31,702.5,33.9z"/>
			</g>
			<polygon fill="#A1A37E" points="680.5,39.1 680.5,225.3 706.3,225.3 706.3,37.9 			"/>
		</g>
	</g>
	<path fill="#475139" d="M693.4,2.2c0,0-15.3,15.6-12.9,36.9c0,0,9.9,15,25.7-1.2C706.3,37.9,706.8,19.2,693.4,2.2z"/>
</g>
<g>
	<polygon fill="#404A32" points="804.3,402.9 772.9,421 804.3,439.1 835.7,421 	"/>
	<polygon fill="#475139" points="804.3,439.1 804.3,511.5 836.6,492.9 835.7,421 	"/>
	<polygon fill="#505B3F" points="804.3,439.1 804.3,511.5 772.9,493.4 772.9,421 	"/>
	<g>
		<path fill="#566045" d="M815.6,415.4c6.3,3.6,6.3,9.5,0,13.1c-6.3,3.6-16.4,3.6-22.6,0c-6.3-3.6-6.3-9.5,0-13.1
			C799.2,411.8,809.4,411.8,815.6,415.4z"/>
		<polygon fill="#566045" points="788.3,365.7 788.3,421.9 819.4,421.9 820.3,365.7 		"/>
		<path fill="#2E361F" d="M815.6,359.2c6.3,3.6,6.3,9.5,0,13.1c-6.3,3.6-16.4,3.6-22.6,0c-6.3-3.6-6.3-9.5,0-13.1
			C799.2,355.6,809.4,355.6,815.6,359.2z"/>
	</g>
	<g>
		<path fill="#586249" d="M815.1,221.3c5.9,3.4,5.9,8.9,0,12.3c-5.9,3.4-15.5,3.4-21.4,0c-3-1.7-4.4-3.9-4.4-6.2
			c0-2.2,1.5-4.5,4.4-6.2C799.6,217.9,809.2,217.9,815.1,221.3z"/>
		<g>
			<g>
				<polygon fill="#586249" points="789.1,268.8 789.3,227.5 819.5,227.5 819.3,269.5 				"/>
				<path fill="#A1A37E" d="M813.2,361.1c4.9,2.8,4.9,7.4,0,10.2s-12.8,2.8-17.7,0c-4.9-2.8-4.9-7.4,0-10.2
					C800.4,358.3,808.4,358.3,813.2,361.1z"/>
				<polygon fill="#A1A37E" points="791.9,268.8 791.9,366 816.9,367.3 816.9,267.2 				"/>
				<path fill="#586249" d="M815.1,262.6c5.9,3.4,5.9,8.9,0,12.3c-5.9,3.4-15.5,3.4-21.4,0s-5.9-8.9,0-12.3
					C799.6,259.2,809.2,259.2,815.1,262.6z"/>
				<path fill="#A1A37E" d="M813.5,222.2c5,2.9,5,7.6,0,10.5c-5,2.9-13.2,2.9-18.2,0c-2.5-1.4-3.8-3.3-3.8-5.3
					c0-1.9,1.3-3.8,3.8-5.3C800.3,219.3,808.5,219.3,813.5,222.2z"/>
				<path fill="#A1A37E" d="M813.5,36c5,2.9,5,7.6,0,10.5c-5,2.9-13.2,2.9-18.2,0c-2.5-1.4-3.8-3.3-3.8-5.3c0-1.9,1.3-3.8,3.8-5.3
					C800.3,33.1,808.5,33.1,813.5,36z"/>
			</g>
			<polygon fill="#A1A37E" points="791.5,41.3 791.5,227.5 817.3,227.5 817.3,40.1 			"/>
		</g>
	</g>
	<path fill="#475139" d="M804.4,4.3c0,0-15.3,15.6-12.9,36.9c0,0,9.9,15,25.7-1.2C817.3,40.1,817.8,21.3,804.4,4.3z"/>
</g>
<g>
	<path fill="#262524" d="M336.6,741.3c0,0,10.6,12,2.6,24.7s-74.8-15.7-74.8-15.7S143.9,687.1,83,653.1
		c-25-15.6-36.4-32.3-39.2-38.8c-11.8-18.3-3.2-26.1-3.2-26.1L336.6,741.3z"/>
	<path fill="#262524" d="M494.3,654.2c0,0,10.6,12,2.6,24.7s-74.8-15.7-74.8-15.7S301.6,600,240.7,565.9
		c-25-15.6-36.4-32.3-39.2-38.8c-11.8-18.3-3.2-26.1-3.2-26.1L494.3,654.2z"/>
	<path fill="#443C3A" d="M384.9,716.6c0,0,10.6,12,2.6,24.7s-74.8-15.7-74.8-15.7S110.5,617.4,91.7,604.5
		c-18.7-12.9-24.1-34.7-4.7-42L384.9,716.6z"/>
	<path fill="#070707" d="M313.4,734.1c0,1.4-1,1.9-2.1,1.2c-1.2-0.7-2.1-2.3-2.1-3.7s1-1.9,2.1-1.2
		C312.5,731.1,313.4,732.7,313.4,734.1z"/>
	<path fill="#070707" d="M313.4,734.1c0,1.4-1,1.9-2.1,1.2c-1.2-0.7-2.1-2.3-2.1-3.7s1-1.9,2.1-1.2
		C312.5,731.1,313.4,732.7,313.4,734.1z"/>
	<path fill="#3F4D2C" d="M335.4,754.2c0,10.3-7.3,14.5-16.2,9.4S303,745.8,303,735.4c0-10.3,7.3-14.5,16.2-9.4
		C328.2,731.2,335.4,743.8,335.4,754.2z"/>
	<g>
		<path fill="#3F4D2C" d="M299.1,745c0,10.3-7.3,14.5-16.2,9.4c-9-5.2-16.2-17.7-16.2-28.1s7.3-14.5,16.2-9.4
			C291.8,722.1,299.1,734.6,299.1,745z"/>
		<path fill="#070707" d="M277.1,724.9c0,1.4-1,1.9-2.1,1.2c-1.2-0.7-2.1-2.3-2.1-3.7s1-1.9,2.1-1.2
			C276.1,721.9,277.1,723.5,277.1,724.9z"/>
		<path fill="#070707" d="M277.1,724.9c0,1.4-1,1.9-2.1,1.2c-1.2-0.7-2.1-2.3-2.1-3.7s1-1.9,2.1-1.2
			C276.1,721.9,277.1,723.5,277.1,724.9z"/>
		<path fill="#070707" d="M292.6,733.8c0,1.4-1,1.9-2.1,1.2c-1.2-0.7-2.1-2.3-2.1-3.7s1-1.9,2.1-1.2
			C291.6,730.8,292.6,732.5,292.6,733.8z"/>
		<path fill="#070707" d="M292.6,733.8c0,1.4-1,1.9-2.1,1.2c-1.2-0.7-2.1-2.3-2.1-3.7s1-1.9,2.1-1.2
			C291.6,730.8,292.6,732.5,292.6,733.8z"/>
		<path fill="#070707" d="M292.6,748.6c0,1.4-1,1.9-2.1,1.2c-1.2-0.7-2.1-2.3-2.1-3.7s1-1.9,2.1-1.2
			C291.6,745.6,292.6,747.2,292.6,748.6z"/>
		<path fill="#070707" d="M277.1,739.7c0,1.4-1,1.9-2.1,1.2c-1.2-0.7-2.1-2.3-2.1-3.7s1-1.9,2.1-1.2
			C276.1,736.7,277.1,738.3,277.1,739.7z"/>
		<path fill="#3F4D2C" d="M299.1,745c0,10.3-7.3,14.5-16.2,9.4c-9-5.2-16.2-17.7-16.2-28.1s7.3-14.5,16.2-9.4
			C291.8,722.1,299.1,734.6,299.1,745z"/>
	</g>
	<g>
		<path fill="#3F4D2C" d="M263.1,730.3c0,10.3-7.3,14.5-16.2,9.4s-16.2-17.7-16.2-28.1c0-10.3,7.3-14.5,16.2-9.4
			C255.8,707.4,263.1,719.9,263.1,730.3z"/>
		<path fill="#070707" d="M241.1,710.2c0,1.4-1,1.9-2.1,1.2s-2.1-2.3-2.1-3.7s1-1.9,2.1-1.2S241.1,708.9,241.1,710.2z"/>
		<path fill="#070707" d="M241.1,710.2c0,1.4-1,1.9-2.1,1.2s-2.1-2.3-2.1-3.7s1-1.9,2.1-1.2S241.1,708.9,241.1,710.2z"/>
		<path fill="#070707" d="M256.5,719.2c0,1.4-1,1.9-2.1,1.2s-2.1-2.3-2.1-3.7s1-1.9,2.1-1.2S256.5,717.8,256.5,719.2z"/>
		<path fill="#070707" d="M256.5,719.2c0,1.4-1,1.9-2.1,1.2s-2.1-2.3-2.1-3.7s1-1.9,2.1-1.2S256.5,717.8,256.5,719.2z"/>
		<path fill="#070707" d="M256.5,733.9c0,1.4-1,1.9-2.1,1.2s-2.1-2.3-2.1-3.7s1-1.9,2.1-1.2S256.5,732.6,256.5,733.9z"/>
		<path fill="#070707" d="M241.1,725c0,1.4-1,1.9-2.1,1.2s-2.1-2.3-2.1-3.7s1-1.9,2.1-1.2S241.1,723.6,241.1,725z"/>
		<path fill="#3F4D2C" d="M263.1,730.3c0,10.3-7.3,14.5-16.2,9.4s-16.2-17.7-16.2-28.1c0-10.3,7.3-14.5,16.2-9.4
			C255.8,707.4,263.1,719.9,263.1,730.3z"/>
	</g>
	<g>
		<path fill="#3F4D2C" d="M227.2,710.2c0,10.3-7.3,14.5-16.2,9.4c-9-5.2-16.2-17.7-16.2-28.1s7.3-14.5,16.2-9.4
			C219.9,687.3,227.2,699.9,227.2,710.2z"/>
		<path fill="#070707" d="M205.2,690.1c0,1.4-1,1.9-2.1,1.2s-2.1-2.3-2.1-3.7s1-1.9,2.1-1.2C204.2,687.1,205.2,688.8,205.2,690.1z"
			/>
		<path fill="#070707" d="M205.2,690.1c0,1.4-1,1.9-2.1,1.2s-2.1-2.3-2.1-3.7s1-1.9,2.1-1.2C204.2,687.1,205.2,688.8,205.2,690.1z"
			/>
		<path fill="#070707" d="M220.7,699.1c0,1.4-1,1.9-2.1,1.2s-2.1-2.3-2.1-3.7s1-1.9,2.1-1.2C219.7,696,220.7,697.7,220.7,699.1z"/>
		<path fill="#070707" d="M220.7,699.1c0,1.4-1,1.9-2.1,1.2s-2.1-2.3-2.1-3.7s1-1.9,2.1-1.2C219.7,696,220.7,697.7,220.7,699.1z"/>
		<path fill="#070707" d="M220.7,713.8c0,1.4-1,1.9-2.1,1.2c-1.2-0.7-2.1-2.3-2.1-3.7s1-1.9,2.1-1.2S220.7,712.5,220.7,713.8z"/>
		<path fill="#070707" d="M205.2,704.9c0,1.4-1,1.9-2.1,1.2c-1.2-0.7-2.1-2.3-2.1-3.7s1-1.9,2.1-1.2S205.2,703.5,205.2,704.9z"/>
		<path fill="#3F4D2C" d="M227.2,710.2c0,10.3-7.3,14.5-16.2,9.4c-9-5.2-16.2-17.7-16.2-28.1s7.3-14.5,16.2-9.4
			C219.9,687.3,227.2,699.9,227.2,710.2z"/>
	</g>
	<g>
		<path fill="#3F4D2C" d="M194.8,692.9c0,10.3-7.3,14.5-16.2,9.4c-9-5.2-16.2-17.7-16.2-28.1s7.3-14.5,16.2-9.4
			C187.5,669.9,194.8,682.5,194.8,692.9z"/>
		<path fill="#070707" d="M172.8,672.8c0,1.4-1,1.9-2.1,1.2s-2.1-2.3-2.1-3.7s1-1.9,2.1-1.2S172.8,671.4,172.8,672.8z"/>
		<path fill="#070707" d="M172.8,672.8c0,1.4-1,1.9-2.1,1.2s-2.1-2.3-2.1-3.7s1-1.9,2.1-1.2S172.8,671.4,172.8,672.8z"/>
		<path fill="#070707" d="M188.3,681.7c0,1.4-1,1.9-2.1,1.2s-2.1-2.3-2.1-3.7s1-1.9,2.1-1.2S188.3,680.4,188.3,681.7z"/>
		<path fill="#070707" d="M188.3,681.7c0,1.4-1,1.9-2.1,1.2s-2.1-2.3-2.1-3.7s1-1.9,2.1-1.2S188.3,680.4,188.3,681.7z"/>
		<path fill="#070707" d="M188.3,696.5c0,1.4-1,1.9-2.1,1.2s-2.1-2.3-2.1-3.7s1-1.9,2.1-1.2S188.3,695.1,188.3,696.5z"/>
		<path fill="#070707" d="M172.8,687.6c0,1.4-1,1.9-2.1,1.2s-2.1-2.3-2.1-3.7s1-1.9,2.1-1.2S172.8,686.2,172.8,687.6z"/>
		<path fill="#3F4D2C" d="M194.8,692.9c0,10.3-7.3,14.5-16.2,9.4c-9-5.2-16.2-17.7-16.2-28.1s7.3-14.5,16.2-9.4
			C187.5,669.9,194.8,682.5,194.8,692.9z"/>
	</g>
	<g>
		<path fill="#3F4D2C" d="M161.9,674.5c0,10.3-7.3,14.5-16.2,9.4c-9-5.2-16.2-17.7-16.2-28.1c0-10.3,7.3-14.5,16.2-9.4
			S161.9,664.2,161.9,674.5z"/>
		<path fill="#070707" d="M139.9,654.5c0,1.4-1,1.9-2.1,1.2s-2.1-2.3-2.1-3.7s1-1.9,2.1-1.2S139.9,653.1,139.9,654.5z"/>
		<path fill="#070707" d="M139.9,654.5c0,1.4-1,1.9-2.1,1.2s-2.1-2.3-2.1-3.7s1-1.9,2.1-1.2S139.9,653.1,139.9,654.5z"/>
		<path fill="#070707" d="M155.3,663.4c0,1.4-1,1.9-2.1,1.2s-2.1-2.3-2.1-3.7s1-1.9,2.1-1.2S155.3,662,155.3,663.4z"/>
		<path fill="#070707" d="M155.3,663.4c0,1.4-1,1.9-2.1,1.2s-2.1-2.3-2.1-3.7s1-1.9,2.1-1.2S155.3,662,155.3,663.4z"/>
		<path fill="#070707" d="M155.3,678.1c0,1.4-1,1.9-2.1,1.2s-2.1-2.3-2.1-3.7s1-1.9,2.1-1.2S155.3,676.8,155.3,678.1z"/>
		<path fill="#070707" d="M139.9,669.2c0,1.4-1,1.9-2.1,1.2s-2.1-2.3-2.1-3.7s1-1.9,2.1-1.2S139.9,667.9,139.9,669.2z"/>
		<path fill="#3F4D2C" d="M161.9,674.5c0,10.3-7.3,14.5-16.2,9.4c-9-5.2-16.2-17.7-16.2-28.1c0-10.3,7.3-14.5,16.2-9.4
			S161.9,664.2,161.9,674.5z"/>
	</g>
	<path fill="#3F4D2C" d="M128.7,657.5c0,10.3-7.3,14.5-16.2,9.4c-9-5.2-16.2-17.7-16.2-28.1c0-10.3,7.3-14.5,16.2-9.4
		C121.4,634.6,128.7,647.1,128.7,657.5z"/>
	<path fill="#3F4D2C" d="M128.7,657.5c0,10.3-7.3,14.5-16.2,9.4c-9-5.2-16.2-17.7-16.2-28.1c0-10.3,7.3-14.5,16.2-9.4
		C121.4,634.6,128.7,647.1,128.7,657.5z"/>
	<g>
		<path fill="#3F4D2C" d="M95.4,639.4c0,10.3-7.3,14.5-16.2,9.4S62.9,631,62.9,620.7c0-10.3,7.3-14.5,16.2-9.4
			C88.1,616.5,95.4,629,95.4,639.4z"/>
		<path fill="#070707" d="M73.4,619.3c0,1.4-1,1.9-2.1,1.2s-2.1-2.3-2.1-3.7s1-1.9,2.1-1.2S73.4,618,73.4,619.3z"/>
		<path fill="#070707" d="M73.4,619.3c0,1.4-1,1.9-2.1,1.2s-2.1-2.3-2.1-3.7s1-1.9,2.1-1.2S73.4,618,73.4,619.3z"/>
		<path fill="#070707" d="M88.8,628.2c0,1.4-1,1.9-2.1,1.2s-2.1-2.3-2.1-3.7s1-1.9,2.1-1.2S88.8,626.9,88.8,628.2z"/>
		<path fill="#070707" d="M88.8,628.2c0,1.4-1,1.9-2.1,1.2s-2.1-2.3-2.1-3.7s1-1.9,2.1-1.2S88.8,626.9,88.8,628.2z"/>
		<path fill="#070707" d="M88.8,643c0,1.4-1,1.9-2.1,1.2s-2.1-2.3-2.1-3.7s1-1.9,2.1-1.2S88.8,641.6,88.8,643z"/>
		<path fill="#070707" d="M73.4,634.1c0,1.4-1,1.9-2.1,1.2s-2.1-2.3-2.1-3.7s1-1.9,2.1-1.2S73.4,632.7,73.4,634.1z"/>
		<path fill="#3F4D2C" d="M95.4,639.4c0,10.3-7.3,14.5-16.2,9.4S62.9,631,62.9,620.7c0-10.3,7.3-14.5,16.2-9.4
			C88.1,616.5,95.4,629,95.4,639.4z"/>
	</g>
	<path fill="#3F4D2C" d="M64.1,609.7c0,7.8-5.4,10.9-12.2,7s-12.2-13.3-12.2-21.1c0-7.8,5.4-10.9,12.2-7
		C58.7,592.5,64.1,601.9,64.1,609.7z"/>
	<path fill="#070707" d="M54.1,602c0,1.4-1,1.9-2.1,1.2s-2.1-2.3-2.1-3.7s1-1.9,2.1-1.2S54.1,600.6,54.1,602z"/>
	<path fill="#070707" d="M80.8,632.4c0,1.4-1,1.9-2.1,1.2s-2.1-2.3-2.1-3.7s1-1.9,2.1-1.2C79.8,629.4,80.8,631.1,80.8,632.4z"/>
	<polygon fill="#424936" points="0,544.1 21.7,531.6 32.6,537.8 37.4,540.6 14.2,554 	"/>
	<path fill="#070707" d="M114.6,651.2c0,1.4-1,1.9-2.1,1.2s-2.1-2.3-2.1-3.7s1-1.9,2.1-1.2C113.7,648.2,114.6,649.8,114.6,651.2z"/>
	<path fill="#070707" d="M147.2,667.5c0,1.4-1,1.9-2.1,1.2s-2.1-2.3-2.1-3.7s1-1.9,2.1-1.2S147.2,666.2,147.2,667.5z"/>
	<path fill="#070707" d="M180.7,685.7c0,1.4-1,1.9-2.1,1.2s-2.1-2.3-2.1-3.7s1-1.9,2.1-1.2S180.7,684.3,180.7,685.7z"/>
	<path fill="#070707" d="M212,703.5c0,1.4-1,1.9-2.1,1.2c-1.2-0.7-2.1-2.3-2.1-3.7s1-1.9,2.1-1.2S212,702.2,212,703.5z"/>
	<path fill="#070707" d="M250,723c0,1.4-1,1.9-2.1,1.2s-2.1-2.3-2.1-3.7s1-1.9,2.1-1.2S250,721.6,250,723z"/>
	<path fill="#070707" d="M285,737.9c0,1.4-1,1.9-2.1,1.2c-1.2-0.7-2.1-2.3-2.1-3.7s1-1.9,2.1-1.2C284,734.9,285,736.5,285,737.9z"/>
	<path fill="#302F2E" d="M458.1,674.1l36.2-20.3c0,0,11.8,15.6,1.2,27.2l-36.7,19.6C458.7,700.7,464.9,680.9,458.1,674.1z"/>
	<path fill="#2B2928" d="M458.1,674.1c0,0,10.6,12,2.6,24.7s-74.8-15.7-74.8-15.7s-120.4-63.2-181.4-97.3
		c-25-15.6-36.4-32.3-39.2-38.8c-11.8-18.3-3.2-26.1-3.2-26.1L458.1,674.1z"/>
	<polygon fill="#3F4D2C" points="14.2,545.3 43,526.6 62.9,538.4 39.8,560.1 	"/>
	<g>
		<path fill="#475138" d="M416,553.7c0,0,12.7,43.7,62.5,72.5c15.3,8.6,15.7,27.2,15.7,27.2c-6.2,15.3-125.5-54.3-125.5-54.3
			l-172.3-99.8v-72.3L416,553.7z"/>
		<polygon fill="#6B7457" points="39.8,517.4 259.4,644.2 415.7,553.3 196.7,426.9 		"/>
		<path fill="#616C4E" d="M331.6,725.7l156.6-90.6c0,0-3.1-5.9-19.6-15.3s-42.3-36.9-52.9-66.6l-156.3,90.9c0,0,14.1,42.9,55.4,68.1
			c19.9,13.4,16,13.4,16,13.4"/>
		<path fill="#475138" d="M259.4,644.2c0,0,12.7,43.7,62.5,72.5c15.3,8.6,15.7,27.2,15.7,27.2c-6.2,15.3-125.5-54.3-125.5-54.3
			L39.8,589.7v-72.3L259.4,644.2z"/>
		<path fill="#576146" d="M331.6,725.7c0,0,6,8.6,5.9,18.1l156.6-90.6c0,0-1.3-11.9-5.9-18.1L331.6,725.7z"/>
		<g>
			<polygon fill="#808662" points="217,606.3 248.3,624.4 311.1,588.2 279.7,570 			"/>
			<polygon fill="#50563B" points="248.3,624.4 248.3,627.8 311.1,592 311.1,588.2 			"/>
			<polygon fill="#3F442A" points="248.3,624.4 217,606.3 217,608.8 248.3,627.8 			"/>
		</g>
		<polygon fill="#313429" points="329.7,553.6 345.4,562.7 376.8,544.6 361.1,535.5 		"/>
		<g>
			<polygon fill="#7B8465" points="350,562.7 365.7,571.8 381.4,562.7 365.7,553.7 			"/>
			<polygon fill="#485331" points="365.7,571.8 365.7,576.6 381.4,567.5 381.4,562.7 			"/>
			<polygon fill="#404928" points="350,562.7 350,567.5 365.7,576.6 365.7,571.8 			"/>
		</g>
		<g>
			<polygon fill="#7B8465" points="373.6,548.8 389.3,557.9 404.9,548.8 389.3,539.8 			"/>
			<polygon fill="#485331" points="389.3,557.9 389.3,562.7 404.9,553.6 404.9,548.8 			"/>
			<polygon fill="#404928" points="373.6,548.8 373.6,553.7 389.3,562.7 389.3,557.9 			"/>
		</g>
		<g>
			<path fill="#444C2B" d="M352.8,689.6c8.4,4.9,8.4,12.7,0,17.6c-8.4,4.9-22,4.9-30.5,0s-8.4-12.7,0-17.6
				C330.8,684.8,344.4,684.8,352.8,689.6z"/>
			<path fill="#4F5631" d="M352.8,686.3c8.4,4.9,8.4,12.7,0,17.6c-8.4,4.9-22,4.9-30.5,0c-8.4-4.9-8.4-12.7,0-17.6
				C330.8,681.4,344.4,681.4,352.8,686.3z"/>
		</g>
		<g>
			<path fill="#444C2B" d="M456.7,628c8.4,4.9,8.4,12.7,0,17.6c-8.4,4.9-22,4.9-30.5,0s-8.4-12.7,0-17.6S448.3,623.2,456.7,628z"/>
			<path fill="#4F5631" d="M456.7,624.7c8.4,4.9,8.4,12.7,0,17.6s-22,4.9-30.5,0s-8.4-12.7,0-17.6
				C434.7,619.9,448.3,619.9,456.7,624.7z"/>
		</g>
		<g>
			<g>
				<polygon fill="#4D5134" points="82.4,512.1 102.5,465.7 220.9,534.1 201.8,581 				"/>
				<polygon fill="#6C7556" points="102.5,465.7 193.8,413.8 312.2,482.2 219.6,537.2 				"/>
				<polygon fill="#646D4A" points="219.6,537.2 243,581 333.4,529.5 312.2,482.2 				"/>
				<polygon fill="#525740" points="219.6,537.2 219.6,572 201.8,581 				"/>
				<polygon fill="#575C45" points="219.6,537.2 219.6,572 243,581 				"/>
				<g>
					<polygon fill="#687058" points="209.6,507.2 219.6,513 229.6,507.2 219.6,501.4 					"/>
					<polygon fill="#575F48" points="219.6,513 219.6,517.6 229.6,512 229.6,507.2 					"/>
					<polygon fill="#4B513D" points="219.6,513 219.6,517.6 209.6,512.4 209.6,507.2 					"/>
				</g>
				<g>
					<polygon fill="#687058" points="263.1,480.8 273.1,486.6 283.2,480.8 273.1,475 					"/>
					<polygon fill="#575F48" points="273.1,486.6 273.1,491.2 283.2,485.5 283.2,480.8 					"/>
					<polygon fill="#4B513D" points="273.1,486.6 273.1,491.2 263.1,486 263.1,480.8 					"/>
				</g>
				<path fill="#475138" d="M226.2,573.7c6.7,2.4,6.7,7.9,0,10.2c-3.4,1.2-7.1,1.2-10.5,0c-6.7-2.4-6.7-7.9,0-10.2
					C219.1,572.5,222.8,572.5,226.2,573.7z"/>
				<polygon fill="#475138" points="209.3,537.2 210.7,578.8 231.3,578.8 229.6,535.9 				"/>
				<path fill="#3C442D" d="M209.6,538.4c0,0,1,36.3,1.1,40.3c0.1,4.1,6.5,5.5,6.5,5.5v-41.1C217.2,543.2,213.7,541.1,209.6,538.4z"
					/>
				<path fill="#7E8661" d="M224.8,532.1c6.7,2.4,6.7,7.9,0,10.2c-3.4,1.2-7.1,1.2-10.5,0c-6.7-2.4-6.7-7.9,0-10.2
					C217.7,530.9,221.5,530.9,224.8,532.1z"/>
			</g>
			<g>
				<path fill="#373D1D" d="M160.8,460c6.7,3.9,6.7,10.2,0,14.1c-6.7,3.9-17.6,3.9-24.4,0s-6.7-10.2,0-14.1S154.1,456.1,160.8,460z"
					/>
				<path fill="#444C2B" d="M160.8,457.3c6.7,3.9,6.7,10.2,0,14.1c-6.7,3.9-17.6,3.9-24.4,0c-6.7-3.9-6.7-10.2,0-14.1
					S154.1,453.5,160.8,457.3z"/>
			</g>
			<g>
				<path fill="#373D1D" d="M207.7,435.7c6.7,3.9,6.7,10.2,0,14.1c-6.7,3.9-17.6,3.9-24.4,0c-6.7-3.9-6.7-10.2,0-14.1
					C190.1,431.8,201,431.8,207.7,435.7z"/>
				<path fill="#444C2B" d="M207.7,433c6.7,3.9,6.7,10.2,0,14.1c-6.7,3.9-17.6,3.9-24.4,0c-6.7-3.9-6.7-10.2,0-14.1
					C190.1,429.1,201,429.1,207.7,433z"/>
			</g>
		</g>
		<polygon fill="#576148" points="198,618 198,672.3 194.8,670.4 194.8,616.1 		"/>
		<polygon fill="#576148" points="153,593.8 153,648.1 149.7,646.2 149.7,591.9 		"/>
		<polygon fill="#576148" points="110.8,568.7 110.8,623 107.5,621.1 107.5,566.8 		"/>
		<polygon fill="#576148" points="67.8,543.7 67.8,598 64.5,596.1 64.5,541.8 		"/>
		<path fill="#3A422D" d="M90.8,599.6c0,2.7-1.9,3.8-4.2,2.4c-2.3-1.3-4.2-4.6-4.2-7.3c0-2.7,1.9-3.8,4.2-2.4
			C88.9,593.7,90.8,597,90.8,599.6z"/>
		<path fill="#3A422D" d="M133.6,624.8c0,2.7-1.9,3.8-4.2,2.4c-2.3-1.3-4.2-4.6-4.2-7.3c0-2.7,1.9-3.8,4.2-2.4
			C131.8,618.9,133.6,622.1,133.6,624.8z"/>
		<path fill="#3A422D" d="M177.4,650.6c0,2.7-1.9,3.8-4.2,2.4c-2.3-1.3-4.2-4.6-4.2-7.3c0-2.7,1.9-3.8,4.2-2.4
			C175.5,644.6,177.4,647.9,177.4,650.6z"/>
		<path fill="#6C7E66" d="M357.9,467"/>
		<polygon fill="#6C7556" points="259.4,529.1 268.8,547 291.2,534.7 282.6,515.4 		"/>
		<polygon fill="#4B4F38" points="273.1,529.1 282.5,547 304.9,534.7 296.3,515.4 		"/>
		<path fill="#6A724C" d="M450.3,475.5"/>
		<path fill="#6A724C" d="M259.4,529.1"/>
		<path fill="#6A724C" d="M442.7,469.6"/>
		<path fill="#6A724C" d="M282.6,515.4"/>
		<polygon fill="#50563B" points="273.1,529.1 259.4,529.1 268.8,547 282.5,547 		"/>
		<polygon fill="#6C7556" points="259.4,529.1 273.1,529.1 296.3,515.4 282.6,515.4 		"/>
		<line fill="#475138" x1="259.4" y1="529.1" x2="404.9" y2="529.1"/>
		<path fill="#475138" d="M282.6,515.4"/>
		<path fill="#A1A37E" d="M298.6,531.6c0,4.4-3.3,8-7.4,8c-4.1,0-7.4-3.6-7.4-8c0-3.2,1.7-5.9,4.1-7.2c1-0.5,2.1-0.8,3.3-0.8
			C295.3,523.6,298.6,527.2,298.6,531.6z"/>
		<polygon fill="#A1A37E" points="410.7,523.6 414.4,539.1 293.6,539.2 289,524 414.4,523.2 414.4,527.6 		"/>
		<ellipse fill="#313429" cx="413.1" cy="531.2" rx="7.4" ry="8"/>
		<polygon fill="#A1A37E" points="300.4,539.2 291.8,539.6 294.5,534.9 		"/>
	</g>
	<path fill="#302F2E" d="M384.9,716.6c0,0-44.8,25-47.3,27.2s9.5,5.5,1.6,22.2l45.6-22.6C384.9,743.5,397.5,737.2,384.9,716.6z"/>
	<polygon fill="#3B4230" points="40.6,588.1 14.2,572.1 14.2,545.3 39.8,560.1 	"/>
	<polygon fill="#3B4230" points="14.2,554 0,544.1 0,555 14.2,563.5 	"/>
	<g>
		<polygon fill="#262821" points="8.5,544.7 10,545.7 11.5,544.8 10,543.9 		"/>
		<polygon fill="#262821" points="8.5,544.7 8.5,517.5 10,516.7 11.5,517.6 11.5,544.8 		"/>
	</g>
	<g>
		<polygon fill="#262821" points="8.5,517.9 10,518.9 11.5,518 10,517.1 		"/>
		<polygon fill="#262821" points="8.5,517.9 8.5,490.7 10,489.9 11.5,490.8 11.5,518 		"/>
	</g>
	<g>
		<polygon fill="#262821" points="8.5,490.8 10,491.7 11.5,490.8 10,489.9 		"/>
		<polygon fill="#262821" points="8.5,490.8 8.5,463.6 10,462.7 11.5,463.7 11.5,490.8 		"/>
	</g>
	<g>
		<polygon fill="#262821" points="8.5,463.6 10,464.6 11.5,463.7 10,462.7 		"/>
		<polygon fill="#262821" points="8.5,463.6 8.5,436.4 10,435.6 11.5,436.5 11.5,463.7 		"/>
	</g>
</g>
</svg>
