<?xml version="1.0" encoding="utf-8"?>
<!-- Generator: Adobe Illustrator 18.0.0, SVG Export Plug-In . SVG Version: 6.00 Build 0)  -->
<!DOCTYPE svg PUBLIC "-//W3C//DTD SVG 1.1//EN" "http://www.w3.org/Graphics/SVG/1.1/DTD/svg11.dtd">
<svg version="1.1" id="Layer_1" xmlns="http://www.w3.org/2000/svg" xmlns:xlink="http://www.w3.org/1999/xlink" x="0px" y="0px"
	 viewBox="0 0 278.4 487.2" enable-background="new 0 0 278.4 487.2" xml:space="preserve">
<polygon fill="#373536" points="123.6,487.2 67.5,454.9 67.5,436.4 123.9,470 "/>
<polygon fill="#3B393A" points="82.1,306 59.4,293.7 59.4,316.8 59.6,436.8 106.7,409.6 106.7,322.1 124.4,312.5 124.4,399.4 
	169.4,373.4 169.4,264.3 "/>
<polygon fill="#373536" points="188.2,449.4 132.1,417.2 132.1,398.7 188.5,432.3 "/>
<polygon fill="#4B4B4D" points="150.7,409.9 188.5,432.3 227.2,409.9 188.8,387.9 "/>
<polygon fill="#3D3D3D" points="188.5,432.3 188.2,449.4 227.2,428 227.2,409.9 "/>
<polygon fill="#4B4B4D" points="146.4,413.4 124.4,399.4 124.4,312.5 146.4,302.2 "/>
<g>
	<polygon fill="#BEBFC1" points="189.6,204.8 230.4,216.9 242.8,237.8 188.2,222 	"/>
	<polygon fill="#EDB883" points="249.7,222.3 262.9,243.6 242.8,237.8 230.4,216.9 	"/>
	<polygon fill="#E6E7E9" points="230.4,216.9 246.4,193.8 219.4,187 189.6,198.6 189.6,204.8 	"/>
	<polygon fill="#FDD1A2" points="246.4,193.8 266.1,198.6 249.7,222.3 230.4,216.9 	"/>
	<polyline fill="#E3B17C" points="262.9,243.6 278.4,221.3 266.1,198.6 249.7,222.3 	"/>
</g>
<polygon fill="#4B4B4D" points="81.6,450.8 59.6,436.8 59.4,293.7 81.6,309.8 "/>
<polygon fill="#3B393A" points="104.1,320 81.4,307.7 81.4,330.8 81.6,450.8 128.7,423.6 128.7,336.1 146.4,326.5 146.4,413.4 
	191.4,387.4 191.4,278.3 "/>
<polygon fill="#E6E7E9" points="109.8,220.5 109.8,311 109.8,329.2 203.9,274.8 204.6,256.7 204.6,166.1 "/>
<polygon fill="#D2D3D5" points="31.4,175.2 31.4,265.8 31.4,283.9 109.8,329.2 109.8,311 109.8,220.5 "/>
<g>
	<polygon fill="#E7E6EC" points="85,235.2 65.3,276.3 39,271 64.2,219.5 	"/>
	<polygon fill="#BFBFC1" points="65.3,276.3 72.7,298.7 97.6,246.3 85,235.2 	"/>
	<polygon fill="#FDD1A2" points="65.3,276.3 55.6,295.1 27.9,291.3 39,271 	"/>
	<polygon fill="#EDB883" points="55.6,295.1 62,319 72.7,298.7 65.3,276.3 	"/>
	<polygon fill="#E2B37F" points="55.6,295.1 27.9,291.3 36.6,314.5 62,319 	"/>
</g>
<path fill="#FFFBF9" d="M164.1,135.3c0,0,10.9,6.5,8,19.7c-2.9,13.2-5.8,24-25.7,33.2s-30.9-9.1-26.8-21.3L164.1,135.3z"/>
<path fill="#363435" d="M161.3,138.2c0,0,10.8,6.3,7.3,20.2c-3.5,13.8-16.5,26.7-30.3,26.7c-13.8,0-17.7-14.5-15.6-19.7
	S152.3,137.2,161.3,138.2z"/>
<path fill="#F8F6F7" d="M156.6,147.5c0,0,5.9-2.9,8.2,1.9s-2.6,9.6-6.6,10.7s-7.4-2.1-6.2-6.4S156.6,147.5,156.6,147.5z"/>
<polygon fill="#FDD1A2" points="219.6,63.4 109.8,126.8 109.8,235.5 109.8,253.6 219.6,190.2 219.6,172.1 219.6,172.1 "/>
<polygon fill="#945B26" points="0,63.4 109.8,126.8 219.6,63.4 109.8,0 "/>
<g>
	<path fill="#FFFFFF" d="M211.8,130.2c0,7.1-5,15.7-11.1,19.3c-6.1,3.5-11.1,0.7-11.1-6.4s5-15.7,11.1-19.3
		C206.8,120.3,211.8,123.1,211.8,130.2z"/>
	<path fill="#FFFFFF" d="M155.6,159.9c0,7.1-5,15.7-11.1,19.3s-11.1,0.7-11.1-6.4c0-7.1,5-15.7,11.1-19.3S155.6,152.8,155.6,159.9z"
		/>
	<path fill="#363435" d="M154.3,160.6c0,6.2-4.4,13.8-9.8,16.9c-5.4,3.1-9.8,0.6-9.8-5.6c0-6.2,4.4-13.8,9.8-16.9
		C149.9,151.9,154.3,154.4,154.3,160.6z"/>
	<path fill="#FFFBF9" d="M151.7,161.5c0,1.2-0.8,2.6-1.8,3.2c-1,0.6-1.8,0.1-1.8-1.1s0.8-2.6,1.8-3.2
		C150.8,159.8,151.7,160.3,151.7,161.5z"/>
	<path fill="#363435" d="M210.4,131c0,6.2-4.4,13.8-9.8,16.9c-5.4,3.1-9.8,0.6-9.8-5.6c0-6.2,4.4-13.8,9.8-16.9
		S210.4,124.7,210.4,131z"/>
	<path fill="#FFFBF9" d="M208.2,131.7c0,1.2-0.8,2.6-1.8,3.2c-1,0.6-1.8,0.1-1.8-1.1c0-1.2,0.8-2.6,1.8-3.2
		C207.4,130.1,208.2,130.5,208.2,131.7z"/>
</g>
<polygon fill="#F1BF8A" points="0,63.4 0,172.1 0,189.8 109.8,253.6 109.8,235.5 109.8,199.2 109.8,126.8 "/>
<path fill="#834B1A" d="M219.6,97.6c0,0-2.1,10.9-17.4,22.6c0,0,5.3-4.7,4-13.5c0,0-27.6,12.3-33.7,36.2c0,0-3.7-0.7-4-13
	c0,0-21.5,41.3-58.7,44.3l0-40.4l109.8-63.4L219.6,97.6z"/>
<path fill="#5C310F" d="M109.8,174.2c0,0-43.3-17.3-37.8,20.2c0,0-17.2-22.2-19.8-45.5s-26.7-15-27.7-2s0,45.9,0,45.9v0.7L0,179.1
	L0,70.4l109.8,63.4L109.8,174.2z"/>
<polygon fill="#5C310F" points="24.6,186.4 24.6,204.1 0,189.8 0,172.1 "/>
<polygon fill="#834B1A" points="109.8,133.8 109.8,126.8 219.6,63.4 219.6,70.4 "/>
<path fill="#5C310F" d="M109.8,126.8l0,7C108,136.9-1.8,73.6,0,70.4v-7L109.8,126.8z"/>
<path fill="#383435" d="M158.6,183.6c0,0,16.9,1.7,31-17.3c14.1-19,1.9,19.3-3.9,23.9c-6.2,8.4-23.9,13.4-30.1,4.6
	S158.6,183.6,158.6,183.6z"/>
<path fill="#E83437" d="M177.3,187.9c-9.6,2.2-12.3,11.5-12.3,11.5c0,0,0,0,0,0l2.3,0c7-0.4,14.7-4.2,18.3-9.2
	c0.4-0.3,0.8-0.7,1.2-1.3C186.8,188.9,181.3,186.9,177.3,187.9z"/>
<path fill="#E83437" d="M177.3,187.9c0,0,5.7-7,9.8-7.2c4.1-0.2,3.6,0.9,3.6,0.9s-2.4,5.5-4,7.4
	C186.8,188.9,177.5,190.1,177.3,187.9z"/>
<path fill="#383435" d="M179.7,185.3c0,0-2.5,2.4-4,4.9c-1,1.7,0.8-3.3,1.4-3.7S179.7,185.3,179.7,185.3z"/>
<path fill="#D2A473" d="M43.6,148.6v22c0,0-13.8-2.1-13.8-12.1S43.6,148.6,43.6,148.6z"/>
<polygon fill="#4B4B4D" points="86.1,447.7 123.9,470 162.6,447.7 124.2,425.7 "/>
<polygon fill="#3D3D3D" points="123.9,470 123.6,487.2 162.6,465.7 162.6,447.7 "/>
<polygon fill="#3B393A" points="160.9,223.3 171.3,217.3 174,224.5 167.4,235.2 176.6,277 168.7,289.9 160.2,286.5 163.1,237.7 
	157.2,234.5 "/>
</svg>
