<?xml version="1.0" encoding="utf-8"?>
<!-- Generator: Adobe Illustrator 18.0.0, SVG Export Plug-In . SVG Version: 6.00 Build 0)  -->
<!DOCTYPE svg PUBLIC "-//W3C//DTD SVG 1.1//EN" "http://www.w3.org/Graphics/SVG/1.1/DTD/svg11.dtd">
<svg version="1.1" id="Layer_1" xmlns="http://www.w3.org/2000/svg" xmlns:xlink="http://www.w3.org/1999/xlink" x="0px" y="0px"
	 viewBox="0 0 1268.6 1213.3" enable-background="new 0 0 1268.6 1213.3" xml:space="preserve">
<path fill="#BEBFC1" d="M863.4,0C639.6,0,458.2,106.3,458.2,237.5c0,71.9,54.4,136.3,140.5,179.8l-28.9,45.1l57.6-31.8
	c66.5,28,148,44.4,236,44.4c223.8,0,405.2-106.3,405.2-237.5S1087.2,0,863.4,0z"/>
<polygon fill="#3B393A" points="226.2,983.4 392,937.4 392,1057.6 326.3,1093.3 326.3,986.6 289.7,1003.9 289.7,1101.6 
	224.7,1128.9 "/>
<polygon fill="#D2D3D5" points="242.7,996.3 129.2,907.7 119.7,817.1 235.8,874.5 "/>
<polygon fill="#FDD1A2" points="193.8,617.1 208.7,885.1 490,775.4 509.7,506.3 "/>
<path fill="#FFFBF9" d="M318.6,684.1c0,0,10.9,6.5,8,19.7c-2.9,13.2-5.8,24-25.7,33.2s-30.9-9.1-26.8-21.3L318.6,684.1z"/>
<polygon fill="#945B26" points="0,463.9 193.8,617.1 509.7,506.3 321.4,383.2 "/>
<path fill="#363435" d="M315.8,686.9c0,0,10.8,6.3,7.3,20.2s-16.5,26.7-30.3,26.7c-13.8,0-17.7-14.5-15.6-19.7
	S306.8,685.9,315.8,686.9z"/>
<polygon fill="#F1BF8A" points="193.8,617.1 208.7,885.1 30.4,750.9 0,463.9 "/>
<path fill="#834B1A" d="M200.4,736.9c0,0,101.3-9.3,137-79.3c0,0-2.6,23,3.8,32.6c4.5,15.1,8.8,22.6,8.8,22.6s33.7-73.5,92.9-99.5
	c0,0,0.6,7.5-18.8,25.2c0,0,56.7-18.7,79.6-51.7l5.9-80.6L193.8,617.1L200.4,736.9z"/>
<path fill="#383435" d="M328.7,760.6c0,0,38,6.3,88.7-38.7c38.1-26.3-8.1,50.5-16.5,55.8c-7.4,7.5-25.8,34.5-75.2,24.2
	C290.2,788.3,318.3,757.6,328.7,760.6z"/>
<path fill="#FFFEFB" d="M341.1,768.1c0,0-0.1,2.4,3.4,1.7s38.1-14.5,50.5-22.5c3.5-3.5,1.9-9.7,1.9-9.7l0,0
	c-25.9,17.8-45,22.1-55.8,22.9C341.1,760.4,340.4,765.2,341.1,768.1z"/>
<path fill="#E83437" d="M400.8,777.8c0.7-0.5,1.7-1.5,2.9-2.9c-0.1-0.3-0.3-0.6-0.5-0.8c-5.6-7.3-14.3-8.1-24-1.5
	s-15.3,19.6-15.6,16.5s3.4-8.2,3.4-8.2s-2.5-2.8-14,2.8c-8.6,4.2-16.9,14.5-20.5,19.5C376.7,809.7,393.8,785,400.8,777.8z"/>
<path fill="#F8F6F7" d="M311.1,696.2c0,0,5.9-2.9,8.2,1.9s-2.6,9.6-6.6,10.7s-7.4-2.1-6.2-6.4S311.1,696.2,311.1,696.2z"/>
<path fill="#FFFDF4" d="M429.3,639.2c0,0,42.6-8.8,25.6,33c-18.5,33.5-45.4,22.7-50.4,9.1S407.2,647.4,429.3,639.2z"/>
<path fill="#393335" d="M429.6,643.8c0,0,35.4-7.3,21.3,27.4c-15.4,27.8-37.7,18.9-41.8,7.5S411.2,650.7,429.6,643.8z"/>
<path fill="#FDFDFD" d="M444,652.9c0,0,8.8-1.8,5.3,6.8c-3.8,7-9.4,4.7-10.5,1.9C437.9,658.8,439.4,654.6,444,652.9z"/>
<path fill="#5C310F" d="M200.4,736.9c0,0-30,4.5-44.8,11s-14,28.4-13,38.2s6.3,33,6.3,33s-21-28.3-25.8-53.5
	c-6.4-22.1-6-19.3-7.5-31.9c-1.5-12.6-8-37.7-24.8-46.9s-24.5-5.7-32.8,8.4c-8.3,14.1,3.6,79.2,3.6,79.2l-31.3-23.6L0,463.9
	l193.8,153.2L200.4,736.9z"/>
<path fill="#D2A473" d="M89.2,709.3c0,0,2.7,39.5,4,47.8c0,0-22.6-2-26.7-23S89.2,709.3,89.2,709.3z"/>
<polygon fill="#E6E7E9" points="235.8,874.5 242.7,996.3 426,923.9 433.9,797.3 "/>
<polygon fill="#393738" points="322.7,840.7 315.8,855.7 332.5,864.6 321,926.9 343.8,938.9 363,912.9 344.3,861.9 354,843.4 
	341.7,833.3 "/>
<polygon fill="#E7E6EC" points="172.9,858.2 143,920.4 103.2,912.4 141.3,834.4 "/>
<polygon fill="#BFBFC1" points="143,920.4 154.2,954.4 192,874.9 172.9,858.2 "/>
<polygon fill="#FDD1A2" points="143,920.4 128.3,948.9 86.4,943.2 103.2,912.4 "/>
<polygon fill="#EDB883" points="128.3,948.9 138,985.1 154.2,954.4 143,920.4 "/>
<polygon fill="#E2B37F" points="128.3,948.9 86.4,943.2 99.5,978.3 138,985.1 "/>
<polygon fill="#BEBFC1" points="433.9,806.7 495.7,824.9 514.4,856.7 431.7,832.7 "/>
<polygon fill="#E6E7E9" points="495.7,824.9 519.9,789.9 479.1,779.7 433.9,797.3 433.9,806.7 "/>
<polygon fill="#FDD1A2" points="519.9,789.9 549.8,797.3 524.9,833.2 495.7,824.9 "/>
<polygon fill="#EDB883" points="524.9,833.2 544.9,865.4 514.4,856.7 495.7,824.9 "/>
<polygon fill="#373536" points="276.2,1185.9 205.7,1106.9 205.7,1136.3 276.2,1213.3 "/>
<polygon fill="#E3B17C" points="524.9,833.2 544.9,865.4 568.4,831.7 549.8,797.3 "/>
<polygon fill="#363435" points="377.7,1139.3 303.3,1061.6 303.3,1091.3 377.7,1164.6 "/>
<polygon fill="#4B4B4D" points="226.2,983.4 224.7,1128.9 185.7,1088.8 181.2,948.2 "/>
<polygon fill="#4B4B4D" points="326.3,1093.3 289.7,1057.9 289.7,1003.9 326.3,986.6 "/>
<polygon fill="#4B4B4D" points="226.2,1128.3 276.2,1185.9 336.2,1152.2 283.4,1104.3 "/>
<polygon fill="#3B393A" points="276.2,1185.9 276.2,1213.3 337.2,1178.4 336.2,1152.2 "/>
<polygon fill="#4B4B4D" points="330.7,1090.9 377.7,1139.3 436.7,1104.3 386.2,1060.8 "/>
<polygon fill="#3B393A" points="377.7,1139.3 377.7,1164.6 437.4,1126.8 436.7,1104.3 "/>
<g>
	<text transform="matrix(1 0 0 1 588.8625 255.6057)" fill="#FFFFFF" font-family="'Bebas'" font-size="60.2723">CAMPUS AMBASSADOR</text>
</g>
</svg>
