<?xml version="1.0" encoding="utf-8"?>
<!-- Generator: Adobe Illustrator 18.0.0, SVG Export Plug-In . SVG Version: 6.00 Build 0)  -->
<!DOCTYPE svg PUBLIC "-//W3C//DTD SVG 1.1//EN" "http://www.w3.org/Graphics/SVG/1.1/DTD/svg11.dtd">
<svg version="1.1" id="Layer_1" xmlns="http://www.w3.org/2000/svg" xmlns:xlink="http://www.w3.org/1999/xlink" x="0px" y="0px"
	 viewBox="0 0 564.7 503.3" enable-background="new 0 0 564.7 503.3" xml:space="preserve">
<g>
	<polygon fill="#B6D3A3" points="0,313.1 298.1,485.1 564.7,329 271.8,162.1 	"/>
	<polygon fill="#94BA7B" points="298.1,485.1 298.1,503.3 0,331.2 0,313.1 	"/>
	<polygon fill="#9DC185" points="298.1,485.1 564.7,329 564.7,349.3 298.1,503.3 	"/>
	<polygon fill="#1A442E" points="128.4,148.8 128.4,257.5 392.9,412.7 392.9,340.3 	"/>
	<polygon fill="#163A26" points="329.5,412.9 393.1,377.6 128.4,194.3 89.4,218.3 	"/>
	<polygon fill="#1A442E" points="64.9,185.1 64.9,293.7 329.4,449 329.4,376.5 	"/>
	<path fill="#1E6430" d="M283.1,0c0.3,3.4-0.5,7.1-2.5,8.6c-0.7,0.9-1.7,1.5-2.8,1.5c-2.1,0-3.5-2-4.1-4.5c-0.1,0.1-0.1,0.2-0.1,0.2
		v72.7l17.6,0.8V6.9C288.2,2.6,285.5,0.6,283.1,0z"/>
	<path fill="#33B838" d="M273.6,21.1h17.6V6.9c0,0-6.6-14.7-17.6-1.2V21.1z"/>
	<path opacity="0.46" fill="#383838" d="M278.7,1.1v73.2h-5.2V5.7C273.6,5.7,276.4,2.2,278.7,1.1z"/>
	<path fill="#1B6B2E" d="M33.6,203.2"/>
	<polygon fill="#1A442E" points="300,397.1 98.3,234.2 98.3,182.2 166.4,224.4 300,332.7 	"/>
	<polygon fill="#19A333" points="392.9,340.1 148.7,139 154.1,136 	"/>
	<polygon fill="#19A333" points="392.9,340.1 128.4,148.8 148.7,139 	"/>
	<polygon fill="#1A592A" points="300,332.7 351.8,309.3 351.8,366 300,397.1 	"/>
	<path fill="#1F7230" d="M316.2,330.7v53.5l-16.1,9.3v-60.8C300,332.7,309.2,332.6,316.2,330.7z"/>
	<path fill="#186628" d="M541.1,249.7v72.5c0,0,0.5,4.2-7,8.5v-71.8L541.1,249.7z"/>
	<polygon fill="#1A442E" points="337.8,349.3 337.8,389.8 299.8,368.7 299.8,332.7 	"/>
	<path fill="#9CF364" stroke="#147820" stroke-width="5" stroke-miterlimit="10" d="M278.1,95.1c0,0,7.1-3.8,14.9,2.3l39,28.2
		c0,0,2.2,4.1-0.5,7.6l-75.2,43.4c0,0-7.5,3.5-12.4-0.1l-39-28.2l-2.8-2c0,0-4.1-4.9,1-7.8L278.1,95.1z"/>
	<g>
		<polygon display="none" fill="#19A333" points="536.2,241.3 536.2,241.3 549,250.4 		"/>
		<path fill="#19A333" d="M536.2,241.5l-1.8-1.3v0L284.5,63.6l10.1,7.1c-9.4-6.7-18.9-2.2-20.7-1.2l-159,88.5l39.3-21.9l238.8,204.1
			L534.3,259C546.5,251.5,539.8,244.3,536.2,241.5z"/>
	</g>
	<path fill="#9CF364" stroke="#147820" stroke-width="5" stroke-miterlimit="10" d="M282.2,95.1c0,0,7.1-3.8,14.9,2.3l39,28.2
		c0,0,2.2,4.1-0.5,7.6l-75.2,43.4c0,0-7.5,3.5-12.4-0.1l-39-28.2l-2.8-2c0,0-4.1-4.9,1-7.8L282.2,95.1z"/>
	<path fill="#9CF364" stroke="#147820" stroke-width="5" stroke-miterlimit="10" d="M282.2,93.1c0,0,7.1-3.8,14.9,2.3l39,28.2
		c0,0,2.2,4.1-0.5,7.6l-75.2,43.4c0,0-7.5,3.5-12.4-0.1l-39-28.2l-2.8-2c0,0-4.1-4.9,1-7.8L282.2,93.1z"/>
	<g>
		<g>
			<path fill="#1A442E" d="M386.3,296.6c0,0-1.1-1,0.2-1.8l10.7-6.3c0,0,1.8-0.8,2.9,0l9.7,7c0,0,1.3,0.9-0.2,1.8l-10.8,6.2
				c0,0-1.5,1-2.9,0L386.3,296.6z"/>
			<path fill="#67D320" d="M386.3,294.4c0,0-1.1-1,0.2-1.8l10.7-6.3c0,0,1.8-0.8,2.9,0l9.7,7c0,0,1.3,0.9-0.2,1.8l-10.8,6.2
				c0,0-1.5,1-2.9,0L386.3,294.4z"/>
			<path fill="#1A442E" d="M410.2,295.1v1.5h-0.7l0.4-0.8C409.9,295.9,410.2,295.5,410.2,295.1z"/>
			<path fill="#1A442E" d="M385.8,294.5v1.4l0.6,0.3l-0.3-0.9C386.1,295.2,385.8,295,385.8,294.5z"/>
		</g>
		<g>
			<path fill="#1A442E" d="M415.2,281.9c0,0-1.1-1,0.2-1.8l10.7-6.3c0,0,1.8-0.8,2.9,0l9.7,7c0,0,1.3,0.9-0.2,1.8l-10.8,6.2
				c0,0-1.5,1-2.9,0L415.2,281.9z"/>
			<path fill="#67D320" d="M415.2,279.6c0,0-1.1-1,0.2-1.8l10.7-6.3c0,0,1.8-0.8,2.9,0l9.7,7c0,0,1.3,0.9-0.2,1.8l-10.8,6.2
				c0,0-1.5,1-2.9,0L415.2,279.6z"/>
			<path fill="#1A442E" d="M439.2,280.3v1.5h-0.7l0.4-0.8C438.9,281.1,439.2,280.8,439.2,280.3z"/>
			<path fill="#1A442E" d="M414.8,279.7v1.4l0.6,0.3l-0.3-0.9C415.1,280.5,414.8,280.2,414.8,279.7z"/>
		</g>
		<g>
			<path fill="#1A442E" d="M445.1,267.7c0,0-1.1-1,0.2-1.8l10.7-6.3c0,0,1.8-0.8,2.9,0l9.7,7c0,0,1.3,0.9-0.2,1.8l-10.8,6.2
				c0,0-1.5,1-2.9,0L445.1,267.7z"/>
			<path fill="#67D320" d="M445.1,265.5c0,0-1.1-1,0.2-1.8l10.7-6.3c0,0,1.8-0.8,2.9,0l9.7,7c0,0,1.3,0.9-0.2,1.8l-10.8,6.2
				c0,0-1.5,1-2.9,0L445.1,265.5z"/>
			<path fill="#1A442E" d="M469.1,266.2v1.5h-0.7l0.4-0.8C468.8,266.9,469.1,266.6,469.1,266.2z"/>
			<path fill="#1A442E" d="M444.6,265.6v1.4l0.6,0.3l-0.3-0.9C445,266.3,444.7,266,444.6,265.6z"/>
		</g>
		<g>
			<path fill="#1A442E" d="M469.2,254.6c0,0-1.1-1,0.2-1.8l10.7-6.3c0,0,1.8-0.8,2.9,0l9.7,7c0,0,1.3,0.9-0.2,1.8l-10.8,6.2
				c0,0-1.5,1-2.9,0L469.2,254.6z"/>
			<path fill="#67D320" d="M469.2,252.3c0,0-1.1-1,0.2-1.8l10.7-6.3c0,0,1.8-0.8,2.9,0l9.7,7c0,0,1.3,0.9-0.2,1.8l-10.8,6.2
				c0,0-1.5,1-2.9,0L469.2,252.3z"/>
			<path fill="#1A442E" d="M493.2,253v1.5h-0.7l0.4-0.8C492.9,253.8,493.2,253.5,493.2,253z"/>
			<path fill="#1A442E" d="M468.8,252.4v1.4l0.6,0.3l-0.3-0.9C469.1,253.2,468.8,252.9,468.8,252.4z"/>
		</g>
	</g>
	<g>
		<path fill="#1A442E" d="M271.6,209.3c0,0-1.9-1.7,0.3-2.9l17.9-10.4c0,0,3-1.3,4.8,0l16.1,11.7c0,0,2.1,1.6-0.3,2.9l-18,10.4
			c0,0-2.5,1.6-4.8,0L271.6,209.3z"/>
		<path fill="#9CF364" d="M271.6,206.2c0,0-1.9-1.7,0.3-2.9l17.9-10.4c0,0,3-1.3,4.8,0l16.1,11.7c0,0,2.1,1.6-0.3,2.9l-18,10.4
			c0,0-2.5,1.6-4.8,0L271.6,206.2z"/>
	</g>
	<g>
		<path fill="#1A442E" d="M311.8,188.2c0,0-1.9-1.7,0.3-2.9l17.9-10.4c0,0,3-1.3,4.8,0l16.1,11.7c0,0,2.1,1.6-0.3,2.9l-18,10.4
			c0,0-2.5,1.6-4.8,0L311.8,188.2z"/>
		<path fill="#BCF995" d="M311.8,185.1c0,0-1.9-1.7,0.3-2.9l17.9-10.4c0,0,3-1.3,4.8,0l16.1,11.7c0,0,2.1,1.6-0.3,2.9l-18,10.4
			c0,0-2.5,1.6-4.8,0L311.8,185.1z"/>
	</g>
	<g>
		<path fill="#1A442E" d="M349.4,166.1c0,0-1.9-1.7,0.3-2.9l17.9-10.4c0,0,3-1.3,4.8,0l16.1,11.7c0,0,2.1,1.6-0.3,2.9l-18,10.4
			c0,0-2.5,1.6-4.8,0L349.4,166.1z"/>
		<path fill="#9CF364" d="M349.4,163c0,0-1.9-1.7,0.3-2.9l17.9-10.4c0,0,3-1.3,4.8,0l16.1,11.7c0,0,2.1,1.6-0.3,2.9l-18,10.4
			c0,0-2.5,1.6-4.8,0L349.4,163z"/>
		<path fill="#1A442E" d="M348.6,162.5v2.3l1,0.5l-0.5-1.6C349.1,163.8,348.6,163.3,348.6,162.5z"/>
	</g>
	<g>
		<path fill="#1A442E" d="M305.6,235.3c0,0-1.9-1.7,0.3-2.9l17.9-10.4c0,0,3-1.3,4.8,0l16.1,11.7c0,0,2.1,1.6-0.3,2.9l-18,10.4
			c0,0-2.5,1.6-4.8,0L305.6,235.3z"/>
		<path fill="#BCF995" d="M305.6,232.2c0,0-1.9-1.7,0.3-2.9l17.9-10.4c0,0,3-1.3,4.8,0l16.1,11.7c0,0,2.1,1.6-0.3,2.9l-18,10.4
			c0,0-2.5,1.6-4.8,0L305.6,232.2z"/>
		<path fill="#1A442E" d="M345.5,232.8v2.6h-1.1l0.6-1.3C345,234,345.5,233.5,345.5,232.8z"/>
		<path fill="#1A442E" d="M304.8,231.7v2.3l1,0.5l-0.5-1.6C305.3,233,304.8,232.5,304.8,231.7z"/>
	</g>
	<g>
		<path fill="#1A442E" d="M345.8,214.2c0,0-1.9-1.7,0.3-2.9l17.9-10.4c0,0,3-1.3,4.8,0l16.1,11.7c0,0,2.1,1.6-0.3,2.9l-18,10.4
			c0,0-2.5,1.6-4.8,0L345.8,214.2z"/>
		<path fill="#9CF364" d="M345.8,211.1c0,0-1.9-1.7,0.3-2.9l17.9-10.4c0,0,3-1.3,4.8,0l16.1,11.7c0,0,2.1,1.6-0.3,2.9l-18,10.4
			c0,0-2.5,1.6-4.8,0L345.8,211.1z"/>
	</g>
	<g>
		<path fill="#1A442E" d="M383.4,192.1c0,0-1.9-1.7,0.3-2.9l17.9-10.4c0,0,3-1.3,4.8,0l16.1,11.7c0,0,2.1,1.6-0.3,2.9l-18,10.4
			c0,0-2.5,1.6-4.8,0L383.4,192.1z"/>
		<path fill="#BCF995" d="M383.4,189c0,0-1.9-1.7,0.3-2.9l17.9-10.4c0,0,3-1.3,4.8,0l16.1,11.7c0,0,2.1,1.6-0.3,2.9l-18,10.4
			c0,0-2.5,1.6-4.8,0L383.4,189z"/>
	</g>
	<g>
		<path fill="#1A442E" d="M338.6,261.3c0,0-1.9-1.7,0.3-2.9l17.9-10.4c0,0,3-1.3,4.8,0l16.1,11.7c0,0,2.1,1.6-0.3,2.9l-18,10.4
			c0,0-2.5,1.6-4.8,0L338.6,261.3z"/>
		<path fill="#9CF364" d="M338.6,258.2c0,0-1.9-1.7,0.3-2.9l17.9-10.4c0,0,3-1.3,4.8,0l16.1,11.7c0,0,2.1,1.6-0.3,2.9l-18,10.4
			c0,0-2.5,1.6-4.8,0L338.6,258.2z"/>
	</g>
	<g>
		<path fill="#1A442E" d="M378.8,240.2c0,0-1.9-1.7,0.3-2.9l17.9-10.4c0,0,3-1.3,4.8,0l16.1,11.7c0,0,2.1,1.6-0.3,2.9l-18,10.4
			c0,0-2.5,1.6-4.8,0L378.8,240.2z"/>
		<path fill="#BCF995" d="M378.8,237.1c0,0-1.9-1.7,0.3-2.9l17.9-10.4c0,0,3-1.3,4.8,0l16.1,11.7c0,0,2.1,1.6-0.3,2.9l-18,10.4
			c0,0-2.5,1.6-4.8,0L378.8,237.1z"/>
	</g>
	<g>
		<path fill="#1A442E" d="M416.4,218.1c0,0-1.9-1.7,0.3-2.9l17.9-10.4c0,0,3-1.3,4.8,0l16.1,11.7c0,0,2.1,1.6-0.3,2.9l-18,10.4
			c0,0-2.5,1.6-4.8,0L416.4,218.1z"/>
		<path fill="#9CF364" d="M416.4,215c0,0-1.9-1.7,0.3-2.9l17.9-10.4c0,0,3-1.3,4.8,0l16.1,11.7c0,0,2.1,1.6-0.3,2.9l-18,10.4
			c0,0-2.5,1.6-4.8,0L416.4,215z"/>
	</g>
	<path fill="#BCF995" d="M270.8,208"/>
	<path fill="#1A592A" d="M382,329.9c-1.1,0.7-2.4,1.1-4,1.1c-2.3,0-4-0.8-5.3-2l-34.9,20.4v39.4v22.6c0,0,28.7-4.4,44.8-25.8v-55.7
		C382.4,329.9,382.2,329.9,382,329.9z"/>
	<path fill="#3ACB42" d="M98.3,182.2c0,0,69.2,58.4,94.4,71.1l-32.7-65.1L98.3,182.2z"/>
	<path fill="#3ACB42" d="M344.9,291.4c-24.8-21.3-47.5-40.1-67.9-56.4c-79.1-66.7-115.6-86-118.1-86.5c-3.5-0.7-17.7-0.5-17.7-0.5
		l0.2,0.2c-45.8,2.5-43.1,34.1-43.1,34.1s18.3,11.6,44.1,30.8l-44.1-30.8c0,0,72.3,62.6,142.2,111.8c3.3,2.6,6.6,5,9.9,7.4
		c10.6,7.8,20,14,27.6,18.8c7.9,5,16.7,10.3,22.1,12.5l0,0c4.7,2.8,11.1,5.7,17.2,8.4c7.5,3.6,14.4,6.4,20.6,8.2
		c23.5,4.6,44.8-19.4,44.8-19.4c-0.1-0.1-0.2-0.2-0.3-0.3C383.4,328.3,384.4,321.5,344.9,291.4z"/>
	<path fill="#163A26" d="M337.8,389.8c0,0,34.5,0.8,44.8-25.5V383l-44.7,24.9L337.8,389.8z"/>
	<path fill="#166627" d="M288.1,387.4l20,1.4v71.7c0,0-7.3,8.2-20,0.7V387.4z"/>
	<path fill="#173D28" d="M40.8,204.4v108.7c0,0,1.1,3.6,6.2,6.7V212.9C47.1,212.9,41,208.1,40.8,204.4z"/>
	<g>
		<polygon fill="#19A333" points="47.1,212.9 47.1,212.9 33.6,203.2 		"/>
		<path fill="#19A333" d="M334,373.9l-4.5,2.6L65.4,185.4l-18.8,10.5c-3,1.8-11.6,8.3,0.5,17l241.1,174.5c0,0,11.9,6,20,1.4
			l-10.1,5.8L334,373.9z"/>
	</g>
	<polygon fill="#1A442E" points="288.1,387.4 33.6,203.2 33.6,203.2 47.1,212.9 47.1,319.8 298,467.1 288.1,461.2 	"/>
	<polygon fill="#1B6B2E" points="534.1,259.1 392.9,340.5 392.9,377.3 392,377.9 329.3,413 329.3,376.8 307.9,389.1 307.9,461.5 
		297.8,467.3 534.1,330.9 	"/>
	<polygon fill="#166627" points="307.9,461.5 304.9,462.9 305.7,459.2 307.9,459.2 	"/>
</g>
</svg>
