<?xml version="1.0" encoding="utf-8"?>
<!-- Generator: Adobe Illustrator 18.0.0, SVG Export Plug-In . SVG Version: 6.00 Build 0)  -->
<!DOCTYPE svg PUBLIC "-//W3C//DTD SVG 1.1//EN" "http://www.w3.org/Graphics/SVG/1.1/DTD/svg11.dtd">
<svg version="1.1" id="Layer_1" xmlns="http://www.w3.org/2000/svg" xmlns:xlink="http://www.w3.org/1999/xlink" x="0px" y="0px"
	 viewBox="0 0 1108.7 874.4" enable-background="new 0 0 1108.7 874.4" xml:space="preserve">
<polygon fill="#3A4142" points="1108.7,737.6 685.2,493.1 448.9,629.9 872.4,874.4 "/>
<path fill="#3A4142" d="M699,714c-138,79.6-361.6,79.6-499.6,0s-138-208.8,0-288.4s361.6-79.6,499.6,0S837,634.3,699,714z"/>
<polygon fill="#747B7C" points="1108.7,733.6 685.2,489.1 449.9,624.9 873.4,869.4 "/>
<polygon fill="#A5A9AA" points="873.4,380.4 1108.7,244.5 1108.7,498.1 873.4,634 "/>
<path fill="#747B7C" d="M702,708c-138,79.6-361.6,79.6-499.6,0s-138-208.8,0-288.4s361.6-79.6,499.6,0S840,628.3,702,708z"/>
<polygon fill="#4AA1B2" points="854.6,691 515.8,495.4 515.8,613.1 854.6,808.8 "/>
<polygon fill="#185D64" points="854.6,691 854.6,808.8 1042.8,700.1 1042.8,582.3 "/>
<g>
	<polygon fill="#802E20" points="675,709.6 690.7,718.6 690.7,582.8 675,573.7 	"/>
	<polygon fill="#523120" points="690.7,718.6 694,716.7 694,581 690.7,582.8 	"/>
</g>
<polygon fill="#991414" points="0,779.6 47.1,805.2 423.5,589.4 376.5,562.3 "/>
<path fill="#1A1E1E" d="M702,597.1c-138,79.6-361.6,79.6-499.6,0s-138-208.8,0-288.4s361.6-79.6,499.6,0S840,517.4,702,597.1z"/>
<path fill="#3A4142" d="M702,502.9c-138,79.6-361.6,79.6-499.6,0s-138-208.8,0-288.4s361.6-79.6,499.6,0S840,423.2,702,502.9z"/>
<path fill="#3A4142" d="M702,502.9c-138,79.6-361.6,79.6-499.6,0s-138-208.8,0-288.4s361.6-79.6,499.6,0S840,423.2,702,502.9z"/>
<polygon fill="#69270D" points="865.7,815.4 885.7,804.6 885.7,714.2 865.7,723.4 "/>
<polygon fill="#DBDBDB" points="449.9,135.9 449.9,389.4 873.4,634 873.4,380.4 "/>
<g>
	<polygon fill="#BFC1BF" points="783.7,582.3 783.7,659.3 783.7,691 783.7,768 799.4,777.1 799.4,700.1 799.4,668.4 799.4,591.4 	
		"/>
	<polygon fill="#EDF4ED" points="781.7,583.3 781.7,660.3 781.7,692 781.7,769 797.4,778.1 797.4,701.1 797.4,669.4 797.4,592.4 	
		"/>
	<polygon fill="#BFC1BF" points="797.4,778.1 799.4,777.1 797.4,775.9 	"/>
</g>
<g>
	<polygon fill="#BFC1BF" points="752.8,564.5 752.8,641.5 752.8,673.2 752.8,750.2 768.5,759.2 768.5,682.3 768.5,650.6 
		768.5,573.6 	"/>
	<polygon fill="#EDF4ED" points="750.8,565.5 750.8,642.5 750.8,674.2 750.8,751.2 766.5,760.2 766.5,683.3 766.5,651.6 
		766.5,574.6 	"/>
	<polygon fill="#BFC1BF" points="766.5,760.2 768.5,759.2 766.5,758.1 	"/>
</g>
<g>
	<polygon fill="#BFC1BF" points="723.3,547.8 723.3,624.8 723.3,656.5 723.3,733.5 739,742.5 739,665.5 739,633.8 739,556.9 	"/>
	<polygon fill="#EDF4ED" points="721.3,548.8 721.3,625.8 721.3,657.5 721.3,734.5 737,743.5 737,666.5 737,634.8 737,557.9 	"/>
	<polygon fill="#BFC1BF" points="737,743.5 739,742.5 737,741.4 	"/>
</g>
<g>
	<g>
		<polygon fill="#692719" points="917.9,780 917.8,743.5 928.4,737.4 928.4,773.9 		"/>
		<polygon fill="#863719" points="912.6,777 912.6,740.5 917.8,743.5 917.9,780 		"/>
		<polygon fill="#692719" points="917.9,743.5 917.8,707 928.4,700.9 928.4,737.4 		"/>
		<polygon fill="#863719" points="912.6,740.5 912.6,704 917.8,707 917.9,743.5 		"/>
	</g>
	<g>
		<polygon fill="#692719" points="917.9,713.1 917.8,676.6 928.4,670.5 928.4,707 		"/>
		<polygon fill="#863719" points="912.6,710 912.6,673.5 917.8,676.6 917.9,713.1 		"/>
		<polygon fill="#692719" points="917.9,676.6 917.8,640 928.4,634 928.4,670.5 		"/>
		<polygon fill="#863719" points="912.6,673.5 912.6,637 917.8,640 917.9,676.6 		"/>
	</g>
</g>
<g>
	<g>
		<polygon fill="#692719" points="962.8,753.3 962.8,716.8 973.3,710.7 973.3,747.2 		"/>
		<polygon fill="#863719" points="957.5,750.2 957.5,713.7 962.8,716.8 962.8,753.3 		"/>
		<polygon fill="#692719" points="962.8,716.8 962.8,680.2 973.3,674.2 973.3,710.7 		"/>
		<polygon fill="#863719" points="957.5,713.7 957.5,677.2 962.8,680.2 962.8,716.8 		"/>
	</g>
	<g>
		<polygon fill="#692719" points="962.8,686.3 962.8,649.8 973.3,643.7 973.3,680.2 		"/>
		<polygon fill="#863719" points="957.5,683.3 957.5,646.8 962.8,649.8 962.8,686.3 		"/>
		<polygon fill="#692719" points="962.8,649.8 962.8,613.3 973.3,607.2 973.3,643.7 		"/>
		<polygon fill="#863719" points="957.5,646.8 957.5,610.3 962.8,613.3 962.8,649.8 		"/>
	</g>
</g>
<g>
	<g>
		<polygon fill="#692719" points="1002.1,730.8 1002.1,694.3 1012.7,688.2 1012.7,724.7 		"/>
		<polygon fill="#863719" points="996.9,727.8 996.9,691.3 1002.1,694.3 1002.1,730.8 		"/>
		<polygon fill="#692719" points="1002.1,694.3 1002.1,657.8 1012.7,651.7 1012.7,688.2 		"/>
		<polygon fill="#863719" points="996.9,691.3 996.9,654.7 1002.1,657.8 1002.1,694.3 		"/>
	</g>
	<g>
		<polygon fill="#692719" points="1002.1,663.9 1002.1,627.4 1012.7,621.3 1012.7,657.8 		"/>
		<polygon fill="#863719" points="996.9,660.8 996.9,624.3 1002.1,627.4 1002.1,663.9 		"/>
		<polygon fill="#692719" points="1002.1,627.4 1002.1,590.8 1012.7,584.8 1012.7,621.3 		"/>
		<polygon fill="#863719" points="996.9,624.3 996.9,587.8 1002.1,590.8 1002.1,627.4 		"/>
	</g>
</g>
<g>
	<g>
		<polygon fill="#692719" points="1037.5,710.7 1037.5,674.2 1048.1,668.1 1048.1,704.6 		"/>
		<polygon fill="#863719" points="1032.3,707.6 1032.3,671.1 1037.5,674.2 1037.5,710.7 		"/>
		<polygon fill="#692719" points="1037.5,674.2 1037.5,637.6 1048.1,631.6 1048.1,668.1 		"/>
		<polygon fill="#863719" points="1032.3,671.1 1032.3,634.6 1037.5,637.6 1037.5,674.2 		"/>
	</g>
	<g>
		<polygon fill="#692719" points="1037.5,643.7 1037.5,607.2 1048.1,601.1 1048.1,637.6 		"/>
		<polygon fill="#863719" points="1032.3,640.7 1032.3,604.2 1037.5,607.2 1037.5,643.7 		"/>
		<polygon fill="#692719" points="1037.5,607.2 1037.5,570.7 1048.1,564.6 1048.1,601.1 		"/>
		<polygon fill="#863719" points="1032.3,604.2 1032.3,567.7 1037.5,570.7 1037.5,607.2 		"/>
	</g>
</g>
<polygon fill="#F7FBFA" points="1108.7,244.5 685.2,0 449.9,135.9 873.4,380.4 "/>
<polygon fill="#DBDBDB" points="672.7,518.1 672.7,612.2 873.4,727.9 873.4,634 "/>
<polygon fill="#A5A9AA" points="873.4,634 873.4,727.9 1108.7,590.6 1108.7,498.1 "/>
<polygon fill="#889395" points="1095.5,242.4 689,7.6 463.1,138 869.7,372.8 "/>
<g>
	<g>
		<path fill="#BC9108" d="M665.9,226.1c0-7.1,1.9-12.4,6-15.3c2.5-1.7,5.5-2.1,9.1-1.3c5.8,1.3,11.7,4.7,17.3,10.6
			c7.3,7.6,11.5,16.5,13.1,26.2c1.5,9.1,0.3,16.2-4.2,20.4c-4,3.9-9.6,3.6-16.3,0.3c-3.7-1.9-7.4-4.3-10.9-7.9
			c-8.2-8.5-12.6-18.2-14-28.9c-0.1-0.6-0.2-1.3-0.2-1.9C665.8,227.6,665.9,226.8,665.9,226.1z M688.9,223.6
			c-7.9-4.9-13.3-0.8-13.3,8c0,7.2,3.7,18.1,13.5,23.6c8.1,4.6,13.1,0.7,13.1-8.2C702.2,237.7,696.6,227.7,688.9,223.6z"/>
		<path fill="#BC9108" d="M490.2,124.6c0-8.1,0-16.1,0-24.2c0-1.6,0-1.6,1.4-0.8c3.7,2.1,7.4,4.2,11.1,6.4c4.5,2.7,8.9,6,12.8,11
			c5,6.4,8.1,13.3,9.5,20.6c1.7,9,0.9,16.3-3.3,20.8c-3.9,4.2-9.4,4.2-16.2,0.8c-4.5-2.2-9.1-5.1-13.6-7.7c-1.8-1-1.8-1-1.8-3.2
			C490.2,140.5,490.2,132.6,490.2,124.6z M499.2,129.8c0,4.7,0,9.4,0,14.1c0,0.9,0.3,1.5,1.1,1.9c1.4,0.7,2.8,1.7,4.2,2.4
			c3,1.5,5.7,2,7.8,0.9c3.9-2.1,5-7,3.7-13.7c-1.4-7.2-5-13.1-10.7-17.2c-1.6-1.1-3.2-1.9-4.8-2.9c-1-0.6-1.3-0.4-1.3,0.8
			C499.2,120.6,499.2,125.2,499.2,129.8z"/>
		<path fill="#BC9108" d="M789.3,297.2c0-8,0-16.1,0-24.1c0-1.6,0-1.6,1.4-0.8c5.1,3,10.3,5.9,15.4,8.9c3.8,2.3,7.4,5.3,10.2,10.3
			c3.1,5.6,4.3,10.8,3.7,15.6c-0.6,5.5-3.1,8.4-8,7.8c-0.7-0.1-0.5,0.5-0.2,1.1c1.6,4.2,3.2,8.3,4.8,12.5c1.5,4,3.1,8,4.6,12.1
			c0.4,1,0.2,1.2-0.5,0.8c-2.8-1.6-5.6-3.3-8.4-4.9c-0.7-0.4-1-1-1.3-1.8c-2.6-7.2-5.2-14.4-7.8-21.6c-0.4-1.3-1-1.9-1.9-2.5
			c-2.9-1.6-2.9-1.7-2.9,1.7c0,4.9,0,9.7,0,14.6c0,1.1-0.3,1.4-1.3,0.8c-2.1-1.3-4.2-2.5-6.3-3.7c-1.3-0.8-1.4-0.8-1.4-2.5
			C789.3,313.3,789.3,305.3,789.3,297.2z M798.3,292.9c0,1.6,0,3.1,0,4.7c0,0.8,0.3,1.2,0.9,1.6c2.1,1.2,4.3,2.5,6.4,3.7
			c2.1,1.2,3.7,1.1,4.5-0.8c1.1-2.6-0.2-8.4-4.7-10.7c-1.9-1-3.9-2.2-5.8-3.3c-1.4-0.8-1.4-0.8-1.4,0.8
			C798.3,290.2,798.3,291.6,798.3,292.9z"/>
		<path fill="#BC9108" d="M730.4,237.6c2.5,1.4,4.9,2.9,7.4,4.2c6.9,3.7,11.9,12.3,12.9,20.5c0.6,5.2-0.2,9.1-2.6,11.7
			c-2.5,2.6-6,2.1-10.1-0.2c-2.4-1.3-4.8-2.8-7.2-4.1c-1.4-0.8-1.4-0.8-1.4,0.9c0,5.4,0,10.7,0,16.1c0,1.7,0,1.7-1.5,0.8
			c-2.1-1.2-4.2-2.5-6.3-3.6c-1-0.6-1.3-1.2-1.3-2.3c0-8.7,0-17.5,0-26.3c0-7.3,0-14.6,0-22c0-1.7,0-1.7,1.5-0.8
			C724.6,234.3,727.5,235.9,730.4,237.6z M729.3,253c0,1.4,0,2.9,0,4.3c0,1.1,0.2,1.7,1.3,2.3c1.9,1,3.7,2.2,5.6,3.2
			c3.4,1.9,5.1,1.2,5.3-2.6c0.2-3-1.6-6.9-4.5-8.4c-2.1-1.1-4.3-2.4-6.4-3.7c-1-0.6-1.3-0.3-1.2,0.8
			C729.3,250.2,729.3,251.6,729.3,253z"/>
		<path fill="#BC9108" d="M605.2,191c0-8,0-16.1,0-24.1c0-1.7,0.1-1.8,1.5-0.9c6.5,3.8,13.1,7.6,19.6,11.3c1.1,0.6,1.4,1.2,1.4,2.4
			c-0.1,2.4-0.1,4.9,0,7.4c0,1.2-0.3,1.4-1.4,0.8c-3.6-2.1-7.1-4.1-10.7-6.2c-1-0.6-1.3-0.4-1.3,0.7c0.1,2.5,0,4.9,0,7.3
			c0,0.9,0.3,1.4,1.1,1.9c3.1,1.7,6.2,3.6,9.2,5.3c1.1,0.6,1.4,1.2,1.3,2.4c-0.1,2.5,0,5.1,0,7.7c0,1-0.3,1.2-1.1,0.7
			c-3.1-1.8-6.2-3.5-9.2-5.4c-1-0.6-1.3-0.4-1.3,0.8c0.1,2.4,0.1,4.8,0,7.2c0,1,0.3,1.6,1.2,2.1c3.8,2.2,7.7,4.4,11.5,6.6
			c1.4,0.8,1.4,0.9,1.4,2.4c0,2.5,0,5,0,7.6c0,1-0.2,1.3-1.2,0.8c-7-4-13.9-8.1-20.9-12.1c-1.1-0.6-1.3-1.3-1.3-2.3
			C605.2,207.3,605.2,199.2,605.2,191z"/>
		<path fill="#BC9108" d="M757.7,279c0-8,0-16,0-24c0-1.8,0-1.8,1.6-0.9c6.5,3.7,13,7.5,19.4,11.2c1.4,0.8,1.5,0.9,1.5,2.5
			c0,2.5,0,4.9,0,7.5c0,1.2-0.4,1.3-1.3,0.7c-3.6-2.1-7.1-4.1-10.7-6.2c-1-0.6-1.4-0.5-1.3,0.7c0.1,2.4,0.1,4.8,0,7.2
			c0,1,0.3,1.6,1.2,2.1c3,1.7,6.1,3.5,9.1,5.2c1.1,0.6,1.4,1.2,1.3,2.4c-0.1,2.5,0,5.1,0,7.7c0,1-0.3,1.2-1.2,0.7
			c-3.1-1.8-6.2-3.5-9.2-5.4c-0.9-0.5-1.3-0.5-1.3,0.7c0.1,2.4,0.1,4.8,0,7.2c0,1.2,0.4,1.7,1.3,2.2c3.8,2.1,7.6,4.3,11.3,6.5
			c1.5,0.9,1.5,0.9,1.5,2.6c0,2.5,0,5,0,7.6c0,0.9-0.3,1.1-1.1,0.6c-7-4.1-14-8.1-21-12.1c-1.1-0.6-1.2-1.4-1.2-2.4
			C757.8,295.3,757.7,287.2,757.7,279z"/>
		<path fill="#BC9108" d="M534.1,150c0-8.1,0-16.2,0-24.2c0-1.7,0-1.7,1.4-0.9c6.5,3.8,13.1,7.6,19.6,11.3c1.4,0.8,1.4,0.9,1.4,2.4
			c0,2.4,0,4.9,0,7.3c0,1.6,0,1.6-1.5,0.8c-3.6-2.1-7.1-4.1-10.7-6.2c-1-0.6-1.3-0.4-1.3,0.7c0.1,2.5,0,4.9,0,7.3
			c0,0.9,0.3,1.4,1.1,1.9c3.1,1.8,6.2,3.6,9.4,5.4c1.3,0.8,1.4,0.8,1.4,2.4c0,2.5,0,5,0,7.6c0,1.1-0.3,1.2-1.2,0.7
			c-3.1-1.8-6.2-3.5-9.2-5.4c-1-0.6-1.4-0.5-1.4,0.7c0.1,2.4,0.1,4.8,0,7.1c0,1.2,0.4,1.7,1.3,2.3c3.9,2.2,7.8,4.5,11.6,6.7
			c1.3,0.7,1.3,0.8,1.3,2.3c0,2.6,0,5.1,0,7.7c0,1-0.3,1.2-1.2,0.7c-7-4.1-14-8.1-21-12.1c-0.9-0.5-1.2-1.1-1.2-2.1
			C534.1,166.3,534.1,158.2,534.1,150z"/>
		<path fill="#BC9108" d="M580.5,178.2c0.5-1.3,1-2.5,1.4-3.8c2.2-6,4.8-11.5,7.1-17.3c0.3-0.7,0.7-0.7,1.5-0.2
			c2.7,1.6,5.3,3.1,8,4.6c1.3,0.7,1.3,0.9,0.8,2c-4.2,9.6-8.5,19.2-12.7,28.8c-1.6,3.6-3.2,7.2-4.8,10.8c-0.3,0.6-0.5,1.1-1.4,0.6
			c-0.9-0.5-1.4-1.2-1.7-2.3c-1.7-5.9-3.4-11.9-5.2-17.8c-4.1-14.1-8.2-28.2-12.3-42.2c-0.5-1.6-0.4-1.7,0.8-0.9
			c2.7,1.5,5.3,3.1,8,4.6c0.9,0.5,1.3,1.1,1.6,2.2c2.8,9.9,5.8,19.9,8.2,29.7c0.1,0.3,0.2,0.6,0.3,0.9
			C580.4,178,580.4,178.1,580.5,178.2z"/>
		<path fill="#BC9108" d="M840,300.5c3.2,1.7,6.1,4.3,8.9,7c0.6,0.5,0.9,1,0.8,1.7c-0.3,2.4-0.6,4.9-0.9,7.3
			c-0.2,1.3-0.2,1.3-1.4,0.1c-2.6-2.6-5.2-4.9-7.9-6.2c-1.8-0.9-3.3-1-4,0.6c-0.6,1.4-0.6,3.3,0.5,5.5c0.9,1.8,2.2,3.2,3.5,4.5
			c3.1,3.1,6.1,6.5,8.8,10.4c7.3,10.8,5.4,22.2-1.3,23c-3.7,0.5-7.6-1.3-11.8-4.3c-3.1-2.3-6.1-5-8.9-8.2c-0.8-0.8-1-1.5-0.9-2.4
			c0.3-2.7,0.6-5.4,0.9-8c0.1-0.9,0.4-0.8,1.1,0.1c3.1,4.1,6.6,7.2,10.3,9.6c1.2,0.8,2.4,1.3,3.6,1.3c3,0.2,3.4-3.7,0.8-7.5
			c-0.8-1.1-1.6-2-2.5-2.9c-3-3.1-6-6.1-8.6-9.9c-4.5-6.6-5.9-11.9-4.6-18c1.1-5.1,5.3-7.1,10.3-5.2
			C837.9,299.3,839.1,299.9,840,300.5z"/>
		<path fill="#BC9108" d="M636.6,209.3c0-8,0-16.1,0-24.1c0-1.7,0-1.7,1.5-0.8c2.1,1.2,4.2,2.4,6.2,3.6c1.4,0.8,1.4,0.9,1.4,2.4
			c0,12.3,0,24.6,0,36.9c0,2.8-0.2,2.4,2.2,3.8c3.6,2.1,7.1,4.2,10.7,6.2c1,0.6,1.3,1.1,1.3,2.3c-0.1,2.6,0,5.2,0,7.8
			c0,0.9-0.3,1.1-1.1,0.7c-7-4.1-14.1-8.1-21.1-12.2c-1.1-0.6-1.2-1.3-1.2-2.3C636.6,225.4,636.6,217.4,636.6,209.3z"/>
	</g>
</g>
<g>
	<g>
		<path fill="#BC9108" d="M666.9,225.1c0-7.1,1.9-12.4,6-15.3c2.5-1.7,5.5-2.1,9.1-1.3c5.8,1.3,11.7,4.7,17.3,10.6
			c7.3,7.6,11.5,16.5,13.1,26.2c1.5,9.1,0.3,16.2-4.2,20.4c-4,3.9-9.6,3.6-16.3,0.3c-3.7-1.9-7.4-4.3-10.9-7.9
			c-8.2-8.5-12.6-18.2-14-28.9c-0.1-0.6-0.2-1.3-0.2-1.9C666.8,226.6,666.9,225.8,666.9,225.1z M689.9,222.6
			c-7.9-4.9-13.3-0.8-13.3,8c0,7.2,3.7,18.1,13.5,23.6c8.1,4.6,13.1,0.7,13.1-8.2C703.2,236.7,697.6,226.7,689.9,222.6z"/>
		<path fill="#BC9108" d="M491.2,123.6c0-8.1,0-16.1,0-24.2c0-1.6,0-1.6,1.4-0.8c3.7,2.1,7.4,4.2,11.1,6.4c4.5,2.7,8.9,6,12.8,11
			c5,6.4,8.1,13.3,9.5,20.6c1.7,9,0.9,16.3-3.3,20.8c-3.9,4.2-9.4,4.2-16.2,0.8c-4.5-2.2-9.1-5.1-13.6-7.7c-1.8-1-1.8-1-1.8-3.2
			C491.2,139.5,491.2,131.6,491.2,123.6z M500.2,128.8c0,4.7,0,9.4,0,14.1c0,0.9,0.3,1.5,1.1,1.9c1.4,0.7,2.8,1.7,4.2,2.4
			c3,1.5,5.7,2,7.8,0.9c3.9-2.1,5-7,3.7-13.7c-1.4-7.2-5-13.1-10.7-17.2c-1.6-1.1-3.2-1.9-4.8-2.9c-1-0.6-1.3-0.4-1.3,0.8
			C500.2,119.6,500.2,124.2,500.2,128.8z"/>
		<path fill="#BC9108" d="M790.3,296.2c0-8,0-16.1,0-24.1c0-1.6,0-1.6,1.4-0.8c5.1,3,10.3,5.9,15.4,8.9c3.8,2.3,7.4,5.3,10.2,10.3
			c3.1,5.6,4.3,10.8,3.7,15.6c-0.6,5.5-3.1,8.4-8,7.8c-0.7-0.1-0.5,0.5-0.2,1.1c1.6,4.2,3.2,8.3,4.8,12.5c1.5,4,3.1,8,4.6,12.1
			c0.4,1,0.2,1.2-0.5,0.8c-2.8-1.6-5.6-3.3-8.4-4.9c-0.7-0.4-1-1-1.3-1.8c-2.6-7.2-5.2-14.4-7.8-21.6c-0.4-1.3-1-1.9-1.9-2.5
			c-2.9-1.6-2.9-1.7-2.9,1.7c0,4.9,0,9.7,0,14.6c0,1.1-0.3,1.4-1.3,0.8c-2.1-1.3-4.2-2.5-6.3-3.7c-1.3-0.8-1.4-0.8-1.4-2.5
			C790.3,312.3,790.3,304.3,790.3,296.2z M799.3,291.9c0,1.6,0,3.1,0,4.7c0,0.8,0.3,1.2,0.9,1.6c2.1,1.2,4.3,2.5,6.4,3.7
			c2.1,1.2,3.7,1.1,4.5-0.8c1.1-2.6-0.2-8.4-4.7-10.7c-1.9-1-3.9-2.2-5.8-3.3c-1.4-0.8-1.4-0.8-1.4,0.8
			C799.3,289.2,799.3,290.6,799.3,291.9z"/>
		<path fill="#BC9108" d="M731.4,236.6c2.5,1.4,4.9,2.9,7.4,4.2c6.9,3.7,11.9,12.3,12.9,20.5c0.6,5.2-0.2,9.1-2.6,11.7
			c-2.5,2.6-6,2.1-10.1-0.2c-2.4-1.3-4.8-2.8-7.2-4.1c-1.4-0.8-1.4-0.8-1.4,0.9c0,5.4,0,10.7,0,16.1c0,1.7,0,1.7-1.5,0.8
			c-2.1-1.2-4.2-2.5-6.3-3.6c-1-0.6-1.3-1.2-1.3-2.3c0-8.7,0-17.5,0-26.3c0-7.3,0-14.6,0-22c0-1.7,0-1.7,1.5-0.8
			C725.6,233.3,728.5,234.9,731.4,236.6z M730.3,252c0,1.4,0,2.9,0,4.3c0,1.1,0.2,1.7,1.3,2.3c1.9,1,3.7,2.2,5.6,3.2
			c3.4,1.9,5.1,1.2,5.3-2.6c0.2-3-1.6-6.9-4.5-8.4c-2.1-1.1-4.3-2.4-6.4-3.7c-1-0.6-1.3-0.3-1.2,0.8
			C730.3,249.2,730.3,250.6,730.3,252z"/>
		<path fill="#BC9108" d="M606.2,190c0-8,0-16.1,0-24.1c0-1.7,0.1-1.8,1.5-0.9c6.5,3.8,13.1,7.6,19.6,11.3c1.1,0.6,1.4,1.2,1.4,2.4
			c-0.1,2.4-0.1,4.9,0,7.4c0,1.2-0.3,1.4-1.4,0.8c-3.6-2.1-7.1-4.1-10.7-6.2c-1-0.6-1.3-0.4-1.3,0.7c0.1,2.5,0,4.9,0,7.3
			c0,0.9,0.3,1.4,1.1,1.9c3.1,1.7,6.2,3.6,9.2,5.3c1.1,0.6,1.4,1.2,1.3,2.4c-0.1,2.5,0,5.1,0,7.7c0,1-0.3,1.2-1.1,0.7
			c-3.1-1.8-6.2-3.5-9.2-5.4c-1-0.6-1.3-0.4-1.3,0.8c0.1,2.4,0.1,4.8,0,7.2c0,1,0.3,1.6,1.2,2.1c3.8,2.2,7.7,4.4,11.5,6.6
			c1.4,0.8,1.4,0.9,1.4,2.4c0,2.5,0,5,0,7.6c0,1-0.2,1.3-1.2,0.8c-7-4-13.9-8.1-20.9-12.1c-1.1-0.6-1.3-1.3-1.3-2.3
			C606.2,206.3,606.2,198.2,606.2,190z"/>
		<path fill="#BC9108" d="M758.7,278c0-8,0-16,0-24c0-1.8,0-1.8,1.6-0.9c6.5,3.7,13,7.5,19.4,11.2c1.4,0.8,1.5,0.9,1.5,2.5
			c0,2.5,0,4.9,0,7.5c0,1.2-0.4,1.3-1.3,0.7c-3.6-2.1-7.1-4.1-10.7-6.2c-1-0.6-1.4-0.5-1.3,0.7c0.1,2.4,0.1,4.8,0,7.2
			c0,1,0.3,1.6,1.2,2.1c3,1.7,6.1,3.5,9.1,5.2c1.1,0.6,1.4,1.2,1.3,2.4c-0.1,2.5,0,5.1,0,7.7c0,1-0.3,1.2-1.2,0.7
			c-3.1-1.8-6.2-3.5-9.2-5.4c-0.9-0.5-1.3-0.5-1.3,0.7c0.1,2.4,0.1,4.8,0,7.2c0,1.2,0.4,1.7,1.3,2.2c3.8,2.1,7.6,4.3,11.3,6.5
			c1.5,0.9,1.5,0.9,1.5,2.6c0,2.5,0,5,0,7.6c0,0.9-0.3,1.1-1.1,0.6c-7-4.1-14-8.1-21-12.1c-1.1-0.6-1.2-1.4-1.2-2.4
			C758.8,294.3,758.7,286.2,758.7,278z"/>
		<path fill="#BC9108" d="M535.1,149c0-8.1,0-16.2,0-24.2c0-1.7,0-1.7,1.4-0.9c6.5,3.8,13.1,7.6,19.6,11.3c1.4,0.8,1.4,0.9,1.4,2.4
			c0,2.4,0,4.9,0,7.3c0,1.6,0,1.6-1.5,0.8c-3.6-2.1-7.1-4.1-10.7-6.2c-1-0.6-1.3-0.4-1.3,0.7c0.1,2.5,0,4.9,0,7.3
			c0,0.9,0.3,1.4,1.1,1.9c3.1,1.8,6.2,3.6,9.4,5.4c1.3,0.8,1.4,0.8,1.4,2.4c0,2.5,0,5,0,7.6c0,1.1-0.3,1.2-1.2,0.7
			c-3.1-1.8-6.2-3.5-9.2-5.4c-1-0.6-1.4-0.5-1.4,0.7c0.1,2.4,0.1,4.8,0,7.1c0,1.2,0.4,1.7,1.3,2.3c3.9,2.2,7.8,4.5,11.6,6.7
			c1.3,0.7,1.3,0.8,1.3,2.3c0,2.6,0,5.1,0,7.7c0,1-0.3,1.2-1.2,0.7c-7-4.1-14-8.1-21-12.1c-0.9-0.5-1.2-1.1-1.2-2.1
			C535.1,165.3,535.1,157.2,535.1,149z"/>
		<path fill="#BC9108" d="M581.5,177.2c0.5-1.3,1-2.5,1.4-3.8c2.2-6,4.8-11.5,7.1-17.3c0.3-0.7,0.7-0.7,1.5-0.2
			c2.7,1.6,5.3,3.1,8,4.6c1.3,0.7,1.3,0.9,0.8,2c-4.2,9.6-8.5,19.2-12.7,28.8c-1.6,3.6-3.2,7.2-4.8,10.8c-0.3,0.6-0.5,1.1-1.4,0.6
			c-0.9-0.5-1.4-1.2-1.7-2.3c-1.7-5.9-3.4-11.9-5.2-17.8c-4.1-14.1-8.2-28.2-12.3-42.2c-0.5-1.6-0.4-1.7,0.8-0.9
			c2.7,1.5,5.3,3.1,8,4.6c0.9,0.5,1.3,1.1,1.6,2.2c2.8,9.9,5.8,19.9,8.2,29.7c0.1,0.3,0.2,0.6,0.3,0.9
			C581.4,177,581.4,177.1,581.5,177.2z"/>
		<path fill="#BC9108" d="M841,299.5c3.2,1.7,6.1,4.3,8.9,7c0.6,0.5,0.9,1,0.8,1.7c-0.3,2.4-0.6,4.9-0.9,7.3
			c-0.2,1.3-0.2,1.3-1.4,0.1c-2.6-2.6-5.2-4.9-7.9-6.2c-1.8-0.9-3.3-1-4,0.6c-0.6,1.4-0.6,3.3,0.5,5.5c0.9,1.8,2.2,3.2,3.5,4.5
			c3.1,3.1,6.1,6.5,8.8,10.4c7.3,10.8,5.4,22.2-1.3,23c-3.7,0.5-7.6-1.3-11.8-4.3c-3.1-2.3-6.1-5-8.9-8.2c-0.8-0.8-1-1.5-0.9-2.4
			c0.3-2.7,0.6-5.4,0.9-8c0.1-0.9,0.4-0.8,1.1,0.1c3.1,4.1,6.6,7.2,10.3,9.6c1.2,0.8,2.4,1.3,3.6,1.3c3,0.2,3.4-3.7,0.8-7.5
			c-0.8-1.1-1.6-2-2.5-2.9c-3-3.1-6-6.1-8.6-9.9c-4.5-6.6-5.9-11.9-4.6-18c1.1-5.1,5.3-7.1,10.3-5.2
			C838.9,298.3,840.1,298.9,841,299.5z"/>
		<path fill="#BC9108" d="M637.6,208.3c0-8,0-16.1,0-24.1c0-1.7,0-1.7,1.5-0.8c2.1,1.2,4.2,2.4,6.2,3.6c1.4,0.8,1.4,0.9,1.4,2.4
			c0,12.3,0,24.6,0,36.9c0,2.8-0.2,2.4,2.2,3.8c3.6,2.1,7.1,4.2,10.7,6.2c1,0.6,1.3,1.1,1.3,2.3c-0.1,2.6,0,5.2,0,7.8
			c0,0.9-0.3,1.1-1.1,0.7c-7-4.1-14.1-8.1-21.1-12.2c-1.1-0.6-1.2-1.3-1.2-2.3C637.6,224.4,637.6,216.4,637.6,208.3z"/>
	</g>
</g>
<g>
	<g>
		<path fill="#BC9108" d="M667.9,224.1c0-7.1,1.9-12.4,6-15.3c2.5-1.7,5.5-2.1,9.1-1.3c5.8,1.3,11.7,4.7,17.3,10.6
			c7.3,7.6,11.5,16.5,13.1,26.2c1.5,9.1,0.3,16.2-4.2,20.4c-4,3.9-9.6,3.6-16.3,0.3c-3.7-1.9-7.4-4.3-10.9-7.9
			c-8.2-8.5-12.6-18.2-14-28.9c-0.1-0.6-0.2-1.3-0.2-1.9C667.8,225.6,667.9,224.8,667.9,224.1z M690.9,221.6
			c-7.9-4.9-13.3-0.8-13.3,8c0,7.2,3.7,18.1,13.5,23.6c8.1,4.6,13.1,0.7,13.1-8.2C704.2,235.7,698.6,225.7,690.9,221.6z"/>
		<path fill="#BC9108" d="M492.2,122.6c0-8.1,0-16.1,0-24.2c0-1.6,0-1.6,1.4-0.8c3.7,2.1,7.4,4.2,11.1,6.4c4.5,2.7,8.9,6,12.8,11
			c5,6.4,8.1,13.3,9.5,20.6c1.7,9,0.9,16.3-3.3,20.8c-3.9,4.2-9.4,4.2-16.2,0.8c-4.5-2.2-9.1-5.1-13.6-7.7c-1.8-1-1.8-1-1.8-3.2
			C492.2,138.5,492.2,130.6,492.2,122.6z M501.2,127.8c0,4.7,0,9.4,0,14.1c0,0.9,0.3,1.5,1.1,1.9c1.4,0.7,2.8,1.7,4.2,2.4
			c3,1.5,5.7,2,7.8,0.9c3.9-2.1,5-7,3.7-13.7c-1.4-7.2-5-13.1-10.7-17.2c-1.6-1.1-3.2-1.9-4.8-2.9c-1-0.6-1.3-0.4-1.3,0.8
			C501.2,118.6,501.2,123.2,501.2,127.8z"/>
		<path fill="#BC9108" d="M791.3,295.2c0-8,0-16.1,0-24.1c0-1.6,0-1.6,1.4-0.8c5.1,3,10.3,5.9,15.4,8.9c3.8,2.3,7.4,5.3,10.2,10.3
			c3.1,5.6,4.3,10.8,3.7,15.6c-0.6,5.5-3.1,8.4-8,7.8c-0.7-0.1-0.5,0.5-0.2,1.1c1.6,4.2,3.2,8.3,4.8,12.5c1.5,4,3.1,8,4.6,12.1
			c0.4,1,0.2,1.2-0.5,0.8c-2.8-1.6-5.6-3.3-8.4-4.9c-0.7-0.4-1-1-1.3-1.8c-2.6-7.2-5.2-14.4-7.8-21.6c-0.4-1.3-1-1.9-1.9-2.5
			c-2.9-1.6-2.9-1.7-2.9,1.7c0,4.9,0,9.7,0,14.6c0,1.1-0.3,1.4-1.3,0.8c-2.1-1.3-4.2-2.5-6.3-3.7c-1.3-0.8-1.4-0.8-1.4-2.5
			C791.3,311.3,791.3,303.3,791.3,295.2z M800.3,290.9c0,1.6,0,3.1,0,4.7c0,0.8,0.3,1.2,0.9,1.6c2.1,1.2,4.3,2.5,6.4,3.7
			c2.1,1.2,3.7,1.1,4.5-0.8c1.1-2.6-0.2-8.4-4.7-10.7c-1.9-1-3.9-2.2-5.8-3.3c-1.4-0.8-1.4-0.8-1.4,0.8
			C800.3,288.2,800.3,289.6,800.3,290.9z"/>
		<path fill="#BC9108" d="M732.4,235.6c2.5,1.4,4.9,2.9,7.4,4.2c6.9,3.7,11.9,12.3,12.9,20.5c0.6,5.2-0.2,9.1-2.6,11.7
			c-2.5,2.6-6,2.1-10.1-0.2c-2.4-1.3-4.8-2.8-7.2-4.1c-1.4-0.8-1.4-0.8-1.4,0.9c0,5.4,0,10.7,0,16.1c0,1.7,0,1.7-1.5,0.8
			c-2.1-1.2-4.2-2.5-6.3-3.6c-1-0.6-1.3-1.2-1.3-2.3c0-8.7,0-17.5,0-26.3c0-7.3,0-14.6,0-22c0-1.7,0-1.7,1.5-0.8
			C726.6,232.3,729.5,233.9,732.4,235.6z M731.3,251c0,1.4,0,2.9,0,4.3c0,1.1,0.2,1.7,1.3,2.3c1.9,1,3.7,2.2,5.6,3.2
			c3.4,1.9,5.1,1.2,5.3-2.6c0.2-3-1.6-6.9-4.5-8.4c-2.1-1.1-4.3-2.4-6.4-3.7c-1-0.6-1.3-0.3-1.2,0.8
			C731.3,248.2,731.3,249.6,731.3,251z"/>
		<path fill="#BC9108" d="M607.2,189c0-8,0-16.1,0-24.1c0-1.7,0.1-1.8,1.5-0.9c6.5,3.8,13.1,7.6,19.6,11.3c1.1,0.6,1.4,1.2,1.4,2.4
			c-0.1,2.4-0.1,4.9,0,7.4c0,1.2-0.3,1.4-1.4,0.8c-3.6-2.1-7.1-4.1-10.7-6.2c-1-0.6-1.3-0.4-1.3,0.7c0.1,2.5,0,4.9,0,7.3
			c0,0.9,0.3,1.4,1.1,1.9c3.1,1.7,6.2,3.6,9.2,5.3c1.1,0.6,1.4,1.2,1.3,2.4c-0.1,2.5,0,5.1,0,7.7c0,1-0.3,1.2-1.1,0.7
			c-3.1-1.8-6.2-3.5-9.2-5.4c-1-0.6-1.3-0.4-1.3,0.8c0.1,2.4,0.1,4.8,0,7.2c0,1,0.3,1.6,1.2,2.1c3.8,2.2,7.7,4.4,11.5,6.6
			c1.4,0.8,1.4,0.9,1.4,2.4c0,2.5,0,5,0,7.6c0,1-0.2,1.3-1.2,0.8c-7-4-13.9-8.1-20.9-12.1c-1.1-0.6-1.3-1.3-1.3-2.3
			C607.2,205.3,607.2,197.2,607.2,189z"/>
		<path fill="#BC9108" d="M759.7,277c0-8,0-16,0-24c0-1.8,0-1.8,1.6-0.9c6.5,3.7,13,7.5,19.4,11.2c1.4,0.8,1.5,0.9,1.5,2.5
			c0,2.5,0,4.9,0,7.5c0,1.2-0.4,1.3-1.3,0.7c-3.6-2.1-7.1-4.1-10.7-6.2c-1-0.6-1.4-0.5-1.3,0.7c0.1,2.4,0.1,4.8,0,7.2
			c0,1,0.3,1.6,1.2,2.1c3,1.7,6.1,3.5,9.1,5.2c1.1,0.6,1.4,1.2,1.3,2.4c-0.1,2.5,0,5.1,0,7.7c0,1-0.3,1.2-1.2,0.7
			c-3.1-1.8-6.2-3.5-9.2-5.4c-0.9-0.5-1.3-0.5-1.3,0.7c0.1,2.4,0.1,4.8,0,7.2c0,1.2,0.4,1.7,1.3,2.2c3.8,2.1,7.6,4.3,11.3,6.5
			c1.5,0.9,1.5,0.9,1.5,2.6c0,2.5,0,5,0,7.6c0,0.9-0.3,1.1-1.1,0.6c-7-4.1-14-8.1-21-12.1c-1.1-0.6-1.2-1.4-1.2-2.4
			C759.8,293.3,759.7,285.2,759.7,277z"/>
		<path fill="#BC9108" d="M536.1,148c0-8.1,0-16.2,0-24.2c0-1.7,0-1.7,1.4-0.9c6.5,3.8,13.1,7.6,19.6,11.3c1.4,0.8,1.4,0.9,1.4,2.4
			c0,2.4,0,4.9,0,7.3c0,1.6,0,1.6-1.5,0.8c-3.6-2.1-7.1-4.1-10.7-6.2c-1-0.6-1.3-0.4-1.3,0.7c0.1,2.5,0,4.9,0,7.3
			c0,0.9,0.3,1.4,1.1,1.9c3.1,1.8,6.2,3.6,9.4,5.4c1.3,0.8,1.4,0.8,1.4,2.4c0,2.5,0,5,0,7.6c0,1.1-0.3,1.2-1.2,0.7
			c-3.1-1.8-6.2-3.5-9.2-5.4c-1-0.6-1.4-0.5-1.4,0.7c0.1,2.4,0.1,4.8,0,7.1c0,1.2,0.4,1.7,1.3,2.3c3.9,2.2,7.8,4.5,11.6,6.7
			c1.3,0.7,1.3,0.8,1.3,2.3c0,2.6,0,5.1,0,7.7c0,1-0.3,1.2-1.2,0.7c-7-4.1-14-8.1-21-12.1c-0.9-0.5-1.2-1.1-1.2-2.1
			C536.1,164.3,536.1,156.2,536.1,148z"/>
		<path fill="#BC9108" d="M582.5,176.2c0.5-1.3,1-2.5,1.4-3.8c2.2-6,4.8-11.5,7.1-17.3c0.3-0.7,0.7-0.7,1.5-0.2
			c2.7,1.6,5.3,3.1,8,4.6c1.3,0.7,1.3,0.9,0.8,2c-4.2,9.6-8.5,19.2-12.7,28.8c-1.6,3.6-3.2,7.2-4.8,10.8c-0.3,0.6-0.5,1.1-1.4,0.6
			c-0.9-0.5-1.4-1.2-1.7-2.3c-1.7-5.9-3.4-11.9-5.2-17.8c-4.1-14.1-8.2-28.2-12.3-42.2c-0.5-1.6-0.4-1.7,0.8-0.9
			c2.7,1.5,5.3,3.1,8,4.6c0.9,0.5,1.3,1.1,1.6,2.2c2.8,9.9,5.8,19.9,8.2,29.7c0.1,0.3,0.2,0.6,0.3,0.9
			C582.4,176,582.4,176.1,582.5,176.2z"/>
		<path fill="#BC9108" d="M842,298.5c3.2,1.7,6.1,4.3,8.9,7c0.6,0.5,0.9,1,0.8,1.7c-0.3,2.4-0.6,4.9-0.9,7.3
			c-0.2,1.3-0.2,1.3-1.4,0.1c-2.6-2.6-5.2-4.9-7.9-6.2c-1.8-0.9-3.3-1-4,0.6c-0.6,1.4-0.6,3.3,0.5,5.5c0.9,1.8,2.2,3.2,3.5,4.5
			c3.1,3.1,6.1,6.5,8.8,10.4c7.3,10.8,5.4,22.2-1.3,23c-3.7,0.5-7.6-1.3-11.8-4.3c-3.1-2.3-6.1-5-8.9-8.2c-0.8-0.8-1-1.5-0.9-2.4
			c0.3-2.7,0.6-5.4,0.9-8c0.1-0.9,0.4-0.8,1.1,0.1c3.1,4.1,6.6,7.2,10.3,9.6c1.2,0.8,2.4,1.3,3.6,1.3c3,0.2,3.4-3.7,0.8-7.5
			c-0.8-1.1-1.6-2-2.5-2.9c-3-3.1-6-6.1-8.6-9.9c-4.5-6.6-5.9-11.9-4.6-18c1.1-5.1,5.3-7.1,10.3-5.2
			C839.9,297.3,841.1,297.9,842,298.5z"/>
		<path fill="#BC9108" d="M638.6,207.3c0-8,0-16.1,0-24.1c0-1.7,0-1.7,1.5-0.8c2.1,1.2,4.2,2.4,6.2,3.6c1.4,0.8,1.4,0.9,1.4,2.4
			c0,12.3,0,24.6,0,36.9c0,2.8-0.2,2.4,2.2,3.8c3.6,2.1,7.1,4.2,10.7,6.2c1,0.6,1.3,1.1,1.3,2.3c-0.1,2.6,0,5.2,0,7.8
			c0,0.9-0.3,1.1-1.1,0.7c-7-4.1-14.1-8.1-21.1-12.2c-1.1-0.6-1.2-1.3-1.2-2.3C638.6,223.4,638.6,215.4,638.6,207.3z"/>
	</g>
</g>
<g>
	<g>
		<path fill="#BC9108" d="M668.9,223.1c0-7.1,1.9-12.4,6-15.3c2.5-1.7,5.5-2.1,9.1-1.3c5.8,1.3,11.7,4.7,17.3,10.6
			c7.3,7.6,11.5,16.5,13.1,26.2c1.5,9.1,0.3,16.2-4.2,20.4c-4,3.9-9.6,3.6-16.3,0.3c-3.7-1.9-7.4-4.3-10.9-7.9
			c-8.2-8.5-12.6-18.2-14-28.9c-0.1-0.6-0.2-1.3-0.2-1.9C668.8,224.6,668.9,223.8,668.9,223.1z M691.9,220.6
			c-7.9-4.9-13.3-0.8-13.3,8c0,7.2,3.7,18.1,13.5,23.6c8.1,4.6,13.1,0.7,13.1-8.2C705.2,234.7,699.6,224.7,691.9,220.6z"/>
		<path fill="#BC9108" d="M493.2,121.6c0-8.1,0-16.1,0-24.2c0-1.6,0-1.6,1.4-0.8c3.7,2.1,7.4,4.2,11.1,6.4c4.5,2.7,8.9,6,12.8,11
			c5,6.4,8.1,13.3,9.5,20.6c1.7,9,0.9,16.3-3.3,20.8c-3.9,4.2-9.4,4.2-16.2,0.8c-4.5-2.2-9.1-5.1-13.6-7.7c-1.8-1-1.8-1-1.8-3.2
			C493.2,137.5,493.2,129.6,493.2,121.6z M502.2,126.8c0,4.7,0,9.4,0,14.1c0,0.9,0.3,1.5,1.1,1.9c1.4,0.7,2.8,1.7,4.2,2.4
			c3,1.5,5.7,2,7.8,0.9c3.9-2.1,5-7,3.7-13.7c-1.4-7.2-5-13.1-10.7-17.2c-1.6-1.1-3.2-1.9-4.8-2.9c-1-0.6-1.3-0.4-1.3,0.8
			C502.2,117.6,502.2,122.2,502.2,126.8z"/>
		<path fill="#BC9108" d="M792.3,294.2c0-8,0-16.1,0-24.1c0-1.6,0-1.6,1.4-0.8c5.1,3,10.3,5.9,15.4,8.9c3.8,2.3,7.4,5.3,10.2,10.3
			c3.1,5.6,4.3,10.8,3.7,15.6c-0.6,5.5-3.1,8.4-8,7.8c-0.7-0.1-0.5,0.5-0.2,1.1c1.6,4.2,3.2,8.3,4.8,12.5c1.5,4,3.1,8,4.6,12.1
			c0.4,1,0.2,1.2-0.5,0.8c-2.8-1.6-5.6-3.3-8.4-4.9c-0.7-0.4-1-1-1.3-1.8c-2.6-7.2-5.2-14.4-7.8-21.6c-0.4-1.3-1-1.9-1.9-2.5
			c-2.9-1.6-2.9-1.7-2.9,1.7c0,4.9,0,9.7,0,14.6c0,1.1-0.3,1.4-1.3,0.8c-2.1-1.3-4.2-2.5-6.3-3.7c-1.3-0.8-1.4-0.8-1.4-2.5
			C792.3,310.3,792.3,302.3,792.3,294.2z M801.3,289.9c0,1.6,0,3.1,0,4.7c0,0.8,0.3,1.2,0.9,1.6c2.1,1.2,4.3,2.5,6.4,3.7
			c2.1,1.2,3.7,1.1,4.5-0.8c1.1-2.6-0.2-8.4-4.7-10.7c-1.9-1-3.9-2.2-5.8-3.3c-1.4-0.8-1.4-0.8-1.4,0.8
			C801.3,287.2,801.3,288.6,801.3,289.9z"/>
		<path fill="#BC9108" d="M733.4,234.6c2.5,1.4,4.9,2.9,7.4,4.2c6.9,3.7,11.9,12.3,12.9,20.5c0.6,5.2-0.2,9.1-2.6,11.7
			c-2.5,2.6-6,2.1-10.1-0.2c-2.4-1.3-4.8-2.8-7.2-4.1c-1.4-0.8-1.4-0.8-1.4,0.9c0,5.4,0,10.7,0,16.1c0,1.7,0,1.7-1.5,0.8
			c-2.1-1.2-4.2-2.5-6.3-3.6c-1-0.6-1.3-1.2-1.3-2.3c0-8.7,0-17.5,0-26.3c0-7.3,0-14.6,0-22c0-1.7,0-1.7,1.5-0.8
			C727.6,231.3,730.5,232.9,733.4,234.6z M732.3,250c0,1.4,0,2.9,0,4.3c0,1.1,0.2,1.7,1.3,2.3c1.9,1,3.7,2.2,5.6,3.2
			c3.4,1.9,5.1,1.2,5.3-2.6c0.2-3-1.6-6.9-4.5-8.4c-2.1-1.1-4.3-2.4-6.4-3.7c-1-0.6-1.3-0.3-1.2,0.8
			C732.3,247.2,732.3,248.6,732.3,250z"/>
		<path fill="#BC9108" d="M608.2,188c0-8,0-16.1,0-24.1c0-1.7,0.1-1.8,1.5-0.9c6.5,3.8,13.1,7.6,19.6,11.3c1.1,0.6,1.4,1.2,1.4,2.4
			c-0.1,2.4-0.1,4.9,0,7.4c0,1.2-0.3,1.4-1.4,0.8c-3.6-2.1-7.1-4.1-10.7-6.2c-1-0.6-1.3-0.4-1.3,0.7c0.1,2.5,0,4.9,0,7.3
			c0,0.9,0.3,1.4,1.1,1.9c3.1,1.7,6.2,3.6,9.2,5.3c1.1,0.6,1.4,1.2,1.3,2.4c-0.1,2.5,0,5.1,0,7.7c0,1-0.3,1.2-1.1,0.7
			c-3.1-1.8-6.2-3.5-9.2-5.4c-1-0.6-1.3-0.4-1.3,0.8c0.1,2.4,0.1,4.8,0,7.2c0,1,0.3,1.6,1.2,2.1c3.8,2.2,7.7,4.4,11.5,6.6
			c1.4,0.8,1.4,0.9,1.4,2.4c0,2.5,0,5,0,7.6c0,1-0.2,1.3-1.2,0.8c-7-4-13.9-8.1-20.9-12.1c-1.1-0.6-1.3-1.3-1.3-2.3
			C608.2,204.3,608.2,196.2,608.2,188z"/>
		<path fill="#BC9108" d="M760.7,276c0-8,0-16,0-24c0-1.8,0-1.8,1.6-0.9c6.5,3.7,13,7.5,19.4,11.2c1.4,0.8,1.5,0.9,1.5,2.5
			c0,2.5,0,4.9,0,7.5c0,1.2-0.4,1.3-1.3,0.7c-3.6-2.1-7.1-4.1-10.7-6.2c-1-0.6-1.4-0.5-1.3,0.7c0.1,2.4,0.1,4.8,0,7.2
			c0,1,0.3,1.6,1.2,2.1c3,1.7,6.1,3.5,9.1,5.2c1.1,0.6,1.4,1.2,1.3,2.4c-0.1,2.5,0,5.1,0,7.7c0,1-0.3,1.2-1.2,0.7
			c-3.1-1.8-6.2-3.5-9.2-5.4c-0.9-0.5-1.3-0.5-1.3,0.7c0.1,2.4,0.1,4.8,0,7.2c0,1.2,0.4,1.7,1.3,2.2c3.8,2.1,7.6,4.3,11.3,6.5
			c1.5,0.9,1.5,0.9,1.5,2.6c0,2.5,0,5,0,7.6c0,0.9-0.3,1.1-1.1,0.6c-7-4.1-14-8.1-21-12.1c-1.1-0.6-1.2-1.4-1.2-2.4
			C760.8,292.3,760.7,284.2,760.7,276z"/>
		<path fill="#BC9108" d="M537.1,147c0-8.1,0-16.2,0-24.2c0-1.7,0-1.7,1.4-0.9c6.5,3.8,13.1,7.6,19.6,11.3c1.4,0.8,1.4,0.9,1.4,2.4
			c0,2.4,0,4.9,0,7.3c0,1.6,0,1.6-1.5,0.8c-3.6-2.1-7.1-4.1-10.7-6.2c-1-0.6-1.3-0.4-1.3,0.7c0.1,2.5,0,4.9,0,7.3
			c0,0.9,0.3,1.4,1.1,1.9c3.1,1.8,6.2,3.6,9.4,5.4c1.3,0.8,1.4,0.8,1.4,2.4c0,2.5,0,5,0,7.6c0,1.1-0.3,1.2-1.2,0.7
			c-3.1-1.8-6.2-3.5-9.2-5.4c-1-0.6-1.4-0.5-1.4,0.7c0.1,2.4,0.1,4.8,0,7.1c0,1.2,0.4,1.7,1.3,2.3c3.9,2.2,7.8,4.5,11.6,6.7
			c1.3,0.7,1.3,0.8,1.3,2.3c0,2.6,0,5.1,0,7.7c0,1-0.3,1.2-1.2,0.7c-7-4.1-14-8.1-21-12.1c-0.9-0.5-1.2-1.1-1.2-2.1
			C537.1,163.3,537.1,155.2,537.1,147z"/>
		<path fill="#BC9108" d="M583.5,175.2c0.5-1.3,1-2.5,1.4-3.8c2.2-6,4.8-11.5,7.1-17.3c0.3-0.7,0.7-0.7,1.5-0.2
			c2.7,1.6,5.3,3.1,8,4.6c1.3,0.7,1.3,0.9,0.8,2c-4.2,9.6-8.5,19.2-12.7,28.8c-1.6,3.6-3.2,7.2-4.8,10.8c-0.3,0.6-0.5,1.1-1.4,0.6
			c-0.9-0.5-1.4-1.2-1.7-2.3c-1.7-5.9-3.4-11.9-5.2-17.8c-4.1-14.1-8.2-28.2-12.3-42.2c-0.5-1.6-0.4-1.7,0.8-0.9
			c2.7,1.5,5.3,3.1,8,4.6c0.9,0.5,1.3,1.1,1.6,2.2c2.8,9.9,5.8,19.9,8.2,29.7c0.1,0.3,0.2,0.6,0.3,0.9
			C583.4,175,583.4,175.1,583.5,175.2z"/>
		<path fill="#BC9108" d="M843,297.5c3.2,1.7,6.1,4.3,8.9,7c0.6,0.5,0.9,1,0.8,1.7c-0.3,2.4-0.6,4.9-0.9,7.3
			c-0.2,1.3-0.2,1.3-1.4,0.1c-2.6-2.6-5.2-4.9-7.9-6.2c-1.8-0.9-3.3-1-4,0.6c-0.6,1.4-0.6,3.3,0.5,5.5c0.9,1.8,2.2,3.2,3.5,4.5
			c3.1,3.1,6.1,6.5,8.8,10.4c7.3,10.8,5.4,22.2-1.3,23c-3.7,0.5-7.6-1.3-11.8-4.3c-3.1-2.3-6.1-5-8.9-8.2c-0.8-0.8-1-1.5-0.9-2.4
			c0.3-2.7,0.6-5.4,0.9-8c0.1-0.9,0.4-0.8,1.1,0.1c3.1,4.1,6.6,7.2,10.3,9.6c1.2,0.8,2.4,1.3,3.6,1.3c3,0.2,3.4-3.7,0.8-7.5
			c-0.8-1.1-1.6-2-2.5-2.9c-3-3.1-6-6.1-8.6-9.9c-4.5-6.6-5.9-11.9-4.6-18c1.1-5.1,5.3-7.1,10.3-5.2
			C840.9,296.3,842.1,296.9,843,297.5z"/>
		<path fill="#BC9108" d="M639.6,206.3c0-8,0-16.1,0-24.1c0-1.7,0-1.7,1.5-0.8c2.1,1.2,4.2,2.4,6.2,3.6c1.4,0.8,1.4,0.9,1.4,2.4
			c0,12.3,0,24.6,0,36.9c0,2.8-0.2,2.4,2.2,3.8c3.6,2.1,7.1,4.2,10.7,6.2c1,0.6,1.3,1.1,1.3,2.3c-0.1,2.6,0,5.2,0,7.8
			c0,0.9-0.3,1.1-1.1,0.7c-7-4.1-14.1-8.1-21.1-12.2c-1.1-0.6-1.2-1.3-1.2-2.3C639.6,222.4,639.6,214.4,639.6,206.3z"/>
	</g>
</g>
<g>
	<g>
		<path fill="#FFCE10" d="M664.9,227.1c0-7.1,1.9-12.4,6-15.3c2.5-1.7,5.5-2.1,9.1-1.3c5.8,1.3,11.7,4.7,17.3,10.6
			c7.3,7.6,11.5,16.5,13.1,26.2c1.5,9.1,0.3,16.2-4.2,20.4c-4,3.9-9.6,3.6-16.3,0.3c-3.7-1.9-7.4-4.3-10.9-7.9
			c-8.2-8.5-12.6-18.2-14-28.9c-0.1-0.6-0.2-1.3-0.2-1.9C664.8,228.6,664.9,227.8,664.9,227.1z M687.9,224.6
			c-7.9-4.9-13.3-0.8-13.3,8c0,7.2,3.7,18.1,13.5,23.6c8.1,4.6,13.1,0.7,13.1-8.2C701.2,238.7,695.6,228.7,687.9,224.6z"/>
		<path fill="#FFCE10" d="M489.2,125.6c0-8.1,0-16.1,0-24.2c0-1.6,0-1.6,1.4-0.8c3.7,2.1,7.4,4.2,11.1,6.4c4.5,2.7,8.9,6,12.8,11
			c5,6.4,8.1,13.3,9.5,20.6c1.7,9,0.9,16.3-3.3,20.8c-3.9,4.2-9.4,4.2-16.2,0.8c-4.5-2.2-9.1-5.1-13.6-7.7c-1.8-1-1.8-1-1.8-3.2
			C489.2,141.5,489.2,133.6,489.2,125.6z M498.2,130.8c0,4.7,0,9.4,0,14.1c0,0.9,0.3,1.5,1.1,1.9c1.4,0.7,2.8,1.7,4.2,2.4
			c3,1.5,5.7,2,7.8,0.9c3.9-2.1,5-7,3.7-13.7c-1.4-7.2-5-13.1-10.7-17.2c-1.6-1.1-3.2-1.9-4.8-2.9c-1-0.6-1.3-0.4-1.3,0.8
			C498.2,121.6,498.2,126.2,498.2,130.8z"/>
		<path fill="#FFCE10" d="M788.3,298.2c0-8,0-16.1,0-24.1c0-1.6,0-1.6,1.4-0.8c5.1,3,10.3,5.9,15.4,8.9c3.8,2.3,7.4,5.3,10.2,10.3
			c3.1,5.6,4.3,10.8,3.7,15.6c-0.6,5.5-3.1,8.4-8,7.8c-0.7-0.1-0.5,0.5-0.2,1.1c1.6,4.2,3.2,8.3,4.8,12.5c1.5,4,3.1,8,4.6,12.1
			c0.4,1,0.2,1.2-0.5,0.8c-2.8-1.6-5.6-3.3-8.4-4.9c-0.7-0.4-1-1-1.3-1.8c-2.6-7.2-5.2-14.4-7.8-21.6c-0.4-1.3-1-1.9-1.9-2.5
			c-2.9-1.6-2.9-1.7-2.9,1.7c0,4.9,0,9.7,0,14.6c0,1.1-0.3,1.4-1.3,0.8c-2.1-1.3-4.2-2.5-6.3-3.7c-1.3-0.8-1.4-0.8-1.4-2.5
			C788.3,314.3,788.3,306.3,788.3,298.2z M797.3,293.9c0,1.6,0,3.1,0,4.7c0,0.8,0.3,1.2,0.9,1.6c2.1,1.2,4.3,2.5,6.4,3.7
			c2.1,1.2,3.7,1.1,4.5-0.8c1.1-2.6-0.2-8.4-4.7-10.7c-1.9-1-3.9-2.2-5.8-3.3c-1.4-0.8-1.4-0.8-1.4,0.8
			C797.3,291.2,797.3,292.6,797.3,293.9z"/>
		<path fill="#FFCE10" d="M729.4,238.6c2.5,1.4,4.9,2.9,7.4,4.2c6.9,3.7,11.9,12.3,12.9,20.5c0.6,5.2-0.2,9.1-2.6,11.7
			c-2.5,2.6-6,2.1-10.1-0.2c-2.4-1.3-4.8-2.8-7.2-4.1c-1.4-0.8-1.4-0.8-1.4,0.9c0,5.4,0,10.7,0,16.1c0,1.7,0,1.7-1.5,0.8
			c-2.1-1.2-4.2-2.5-6.3-3.6c-1-0.6-1.3-1.2-1.3-2.3c0-8.7,0-17.5,0-26.3c0-7.3,0-14.6,0-22c0-1.7,0-1.7,1.5-0.8
			C723.6,235.3,726.5,236.9,729.4,238.6z M728.3,254c0,1.4,0,2.9,0,4.3c0,1.1,0.2,1.7,1.3,2.3c1.9,1,3.7,2.2,5.6,3.2
			c3.4,1.9,5.1,1.2,5.3-2.6c0.2-3-1.6-6.9-4.5-8.4c-2.1-1.1-4.3-2.4-6.4-3.7c-1-0.6-1.3-0.3-1.2,0.8
			C728.3,251.2,728.3,252.6,728.3,254z"/>
		<path fill="#FFCE10" d="M604.2,192c0-8,0-16.1,0-24.1c0-1.7,0.1-1.8,1.5-0.9c6.5,3.8,13.1,7.6,19.6,11.3c1.1,0.6,1.4,1.2,1.4,2.4
			c-0.1,2.4-0.1,4.9,0,7.4c0,1.2-0.3,1.4-1.4,0.8c-3.6-2.1-7.1-4.1-10.7-6.2c-1-0.6-1.3-0.4-1.3,0.7c0.1,2.5,0,4.9,0,7.3
			c0,0.9,0.3,1.4,1.1,1.9c3.1,1.7,6.2,3.6,9.2,5.3c1.1,0.6,1.4,1.2,1.3,2.4c-0.1,2.5,0,5.1,0,7.7c0,1-0.3,1.2-1.1,0.7
			c-3.1-1.8-6.2-3.5-9.2-5.4c-1-0.6-1.3-0.4-1.3,0.8c0.1,2.4,0.1,4.8,0,7.2c0,1,0.3,1.6,1.2,2.1c3.8,2.2,7.7,4.4,11.5,6.6
			c1.4,0.8,1.4,0.9,1.4,2.4c0,2.5,0,5,0,7.6c0,1-0.2,1.3-1.2,0.8c-7-4-13.9-8.1-20.9-12.1c-1.1-0.6-1.3-1.3-1.3-2.3
			C604.2,208.3,604.2,200.2,604.2,192z"/>
		<path fill="#FFCE10" d="M756.7,280c0-8,0-16,0-24c0-1.8,0-1.8,1.6-0.9c6.5,3.7,13,7.5,19.4,11.2c1.4,0.8,1.5,0.9,1.5,2.5
			c0,2.5,0,4.9,0,7.5c0,1.2-0.4,1.3-1.3,0.7c-3.6-2.1-7.1-4.1-10.7-6.2c-1-0.6-1.4-0.5-1.3,0.7c0.1,2.4,0.1,4.8,0,7.2
			c0,1,0.3,1.6,1.2,2.1c3,1.7,6.1,3.5,9.1,5.2c1.1,0.6,1.4,1.2,1.3,2.4c-0.1,2.5,0,5.1,0,7.7c0,1-0.3,1.2-1.2,0.7
			c-3.1-1.8-6.2-3.5-9.2-5.4c-0.9-0.5-1.3-0.5-1.3,0.7c0.1,2.4,0.1,4.8,0,7.2c0,1.2,0.4,1.7,1.3,2.2c3.8,2.1,7.6,4.3,11.3,6.5
			c1.5,0.9,1.5,0.9,1.5,2.6c0,2.5,0,5,0,7.6c0,0.9-0.3,1.1-1.1,0.6c-7-4.1-14-8.1-21-12.1c-1.1-0.6-1.2-1.4-1.2-2.4
			C756.8,296.3,756.7,288.2,756.7,280z"/>
		<path fill="#FFCE10" d="M533.1,151c0-8.1,0-16.2,0-24.2c0-1.7,0-1.7,1.4-0.9c6.5,3.8,13.1,7.6,19.6,11.3c1.4,0.8,1.4,0.9,1.4,2.4
			c0,2.4,0,4.9,0,7.3c0,1.6,0,1.6-1.5,0.8c-3.6-2.1-7.1-4.1-10.7-6.2c-1-0.6-1.3-0.4-1.3,0.7c0.1,2.5,0,4.9,0,7.3
			c0,0.9,0.3,1.4,1.1,1.9c3.1,1.8,6.2,3.6,9.4,5.4c1.3,0.8,1.4,0.8,1.4,2.4c0,2.5,0,5,0,7.6c0,1.1-0.3,1.2-1.2,0.7
			c-3.1-1.8-6.2-3.5-9.2-5.4c-1-0.6-1.4-0.5-1.4,0.7c0.1,2.4,0.1,4.8,0,7.1c0,1.2,0.4,1.7,1.3,2.3c3.9,2.2,7.8,4.5,11.6,6.7
			c1.3,0.7,1.3,0.8,1.3,2.3c0,2.6,0,5.1,0,7.7c0,1-0.3,1.2-1.2,0.7c-7-4.1-14-8.1-21-12.1c-0.9-0.5-1.2-1.1-1.2-2.1
			C533.1,167.3,533.1,159.2,533.1,151z"/>
		<path fill="#FFCE10" d="M579.5,179.2c0.5-1.3,1-2.5,1.4-3.8c2.2-6,4.8-11.5,7.1-17.3c0.3-0.7,0.7-0.7,1.5-0.2
			c2.7,1.6,5.3,3.1,8,4.6c1.3,0.7,1.3,0.9,0.8,2c-4.2,9.6-8.5,19.2-12.7,28.8c-1.6,3.6-3.2,7.2-4.8,10.8c-0.3,0.6-0.5,1.1-1.4,0.6
			c-0.9-0.5-1.4-1.2-1.7-2.3c-1.7-5.9-3.4-11.9-5.2-17.8c-4.1-14.1-8.2-28.2-12.3-42.2c-0.5-1.6-0.4-1.7,0.8-0.9
			c2.7,1.5,5.3,3.1,8,4.6c0.9,0.5,1.3,1.1,1.6,2.2c2.8,9.9,5.8,19.9,8.2,29.7c0.1,0.3,0.2,0.6,0.3,0.9
			C579.4,179,579.4,179.1,579.5,179.2z"/>
		<path fill="#FFCE10" d="M839,301.5c3.2,1.7,6.1,4.3,8.9,7c0.6,0.5,0.9,1,0.8,1.7c-0.3,2.4-0.6,4.9-0.9,7.3
			c-0.2,1.3-0.2,1.3-1.4,0.1c-2.6-2.6-5.2-4.9-7.9-6.2c-1.8-0.9-3.3-1-4,0.6c-0.6,1.4-0.6,3.3,0.5,5.5c0.9,1.8,2.2,3.2,3.5,4.5
			c3.1,3.1,6.1,6.5,8.8,10.4c7.3,10.8,5.4,22.2-1.3,23c-3.7,0.5-7.6-1.3-11.8-4.3c-3.1-2.3-6.1-5-8.9-8.2c-0.8-0.8-1-1.5-0.9-2.4
			c0.3-2.7,0.6-5.4,0.9-8c0.1-0.9,0.4-0.8,1.1,0.1c3.1,4.1,6.6,7.2,10.3,9.6c1.2,0.8,2.4,1.3,3.6,1.3c3,0.2,3.4-3.7,0.8-7.5
			c-0.8-1.1-1.6-2-2.5-2.9c-3-3.1-6-6.1-8.6-9.9c-4.5-6.6-5.9-11.9-4.6-18c1.1-5.1,5.3-7.1,10.3-5.2
			C836.9,300.3,838.1,300.9,839,301.5z"/>
		<path fill="#FFCE10" d="M635.6,210.3c0-8,0-16.1,0-24.1c0-1.7,0-1.7,1.5-0.8c2.1,1.2,4.2,2.4,6.2,3.6c1.4,0.8,1.4,0.9,1.4,2.4
			c0,12.3,0,24.6,0,36.9c0,2.8-0.2,2.4,2.2,3.8c3.6,2.1,7.1,4.2,10.7,6.2c1,0.6,1.3,1.1,1.3,2.3c-0.1,2.6,0,5.2,0,7.8
			c0,0.9-0.3,1.1-1.1,0.7c-7-4.1-14.1-8.1-21.1-12.2c-1.1-0.6-1.2-1.3-1.2-2.3C635.6,226.4,635.6,218.4,635.6,210.3z"/>
	</g>
</g>
<polygon fill="#828385" points="927.4,396.3 954.9,380.4 954.9,634 944.1,640.3 "/>
<polygon fill="#205A72" points="920.5,400.3 920.5,653.9 951.9,635.8 951.9,382.2 "/>
<g>
	<polygon fill="#828385" points="990.8,365.4 1018.2,349.4 1018.2,603 1007.5,609.3 	"/>
	<polygon fill="#205A72" points="983.8,369.4 983.8,623 1015.2,604.8 1015.2,351.3 	"/>
	<polygon fill="#828385" points="1018.2,600.2 983.8,619.7 983.8,623 1018.2,603 	"/>
</g>
<polygon fill="#828385" points="954.9,631.1 920.5,650.6 920.5,653.9 954.9,634 "/>
<g>
	<polygon fill="#828385" points="1051.4,332 1078.9,316.1 1078.9,569.7 1068.1,575.9 	"/>
	<polygon fill="#205A72" points="1044.5,336 1044.5,589.6 1075.9,571.5 1075.9,317.9 	"/>
	<polygon fill="#828385" points="1078.9,566.8 1044.5,586.3 1044.5,589.6 1078.9,569.7 	"/>
</g>
<polygon fill="#49A2B4" points="814.9,392.1 814.9,428.4 485.5,238.2 485.5,201.9 "/>
<polygon fill="#9EABAD" points="814.9,428.4 814.9,431.9 483,239.6 483,201 485.5,201.9 485.5,238.2 "/>
<polygon fill="#49A2B4" points="814.9,392.1 814.9,428.4 485.5,238.2 485.5,201.9 "/>
<polygon fill="#49A2B4" points="814.9,392.1 814.9,428.4 485.5,238.2 485.5,201.9 "/>
<g>
	<polygon fill="#9EABAD" points="814.9,506.2 814.9,509.8 483,317.5 483,278.9 485.5,279.8 485.5,316 	"/>
	<polygon fill="#49A2B4" points="814.9,470 814.9,506.2 485.5,316 485.5,279.8 	"/>
</g>
<g>
	<polygon fill="#9EABAD" points="814.9,576.8 814.9,580.3 483,388.1 483,349.4 485.5,350.4 485.5,386.6 	"/>
	<polygon fill="#49A2B4" points="814.9,540.6 814.9,576.8 485.5,386.6 485.5,350.4 	"/>
</g>
<line fill="#9EABAD" x1="814.9" y1="431.9" x2="483" y2="239.6"/>
<polygon fill="#49A2B4" points="809.6,606.2 829.5,617.7 689.3,536.7 689.3,572.4 809.6,642.4 "/>
<polygon fill="#9EABAD" points="809.6,642.4 809.6,644.8 686.2,572.9 686.2,534.9 689.3,536.7 689.3,572.4 "/>
<polygon fill="#B24421" points="854.6,808.8 865.7,815.4 865.7,723.4 854.6,717 "/>
<polygon fill="#3A4142" points="1108.7,733.6 1108.7,737.6 1105.3,735.6 "/>
<polygon opacity="0.14" fill="#FFFFFF" points="683.3,316.1 708.1,366.6 747.4,389.4 712.9,333.2 "/>
<polygon opacity="0.14" fill="#FFFFFF" points="727.7,419.8 752.4,470.3 791.8,493.1 757.3,436.9 "/>
<polygon opacity="0.14" fill="#FFFFFF" points="544.7,236.1 566.4,284.9 591.1,299.1 564.1,247.3 "/>
<polygon opacity="0.14" fill="#FFFFFF" points="575.5,331.3 597.2,380 621.9,394.3 594.9,342.4 "/>
<polygon opacity="0.14" fill="#FFFFFF" points="595.5,414.8 617.2,463.5 641.9,477.8 614.9,425.9 "/>
<polygon opacity="0.13" fill="#FFFFFF" points="1075.9,335.8 1044.5,422.6 1044.5,435.6 1075.9,357.9 "/>
<polygon opacity="0.13" fill="#FFFFFF" points="1015.2,452.8 1015.2,463.6 983.8,526.4 983.8,518.1 "/>
<polygon opacity="0.13" fill="#FFFFFF" points="1015.2,516.3 1015.2,527 983.8,589.8 983.8,581.5 "/>
<polygon opacity="0.13" fill="#FFFFFF" points="944.2,640.2 951.9,623.4 951.9,615.4 940.7,642.2 "/>
<line opacity="0.13" fill="#FFFFFF" x1="951.9" y1="559.9" x2="920.5" y2="628.9"/>
</svg>
