<?xml version="1.0" encoding="utf-8"?>
<!-- Generator: Adobe Illustrator 18.0.0, SVG Export Plug-In . SVG Version: 6.00 Build 0)  -->
<!DOCTYPE svg PUBLIC "-//W3C//DTD SVG 1.1//EN" "http://www.w3.org/Graphics/SVG/1.1/DTD/svg11.dtd">
<svg version="1.1" id="Layer_1" xmlns="http://www.w3.org/2000/svg" xmlns:xlink="http://www.w3.org/1999/xlink" x="0px" y="0px"
	 viewBox="0 0 62.7 271.7" enable-background="new 0 0 62.7 271.7" xml:space="preserve">
<polygon fill="#768A93" points="62.7,199.2 60.4,197.9 31.4,214.8 30.2,218.4 "/>
<g>
	<polygon fill="#B1B2B2" points="17.7,80.4 62.7,54.3 62.7,0 15.7,27.2 0,36.2 0,90.6 0,235.5 31.4,217.4 31.4,72.5 	"/>
	<polygon fill="#B1B2B2" points="31.4,217.4 0,235.5 0,271.7 62.7,235.5 62.7,199.2 	"/>
</g>
<g>
	<polygon fill="#B1B2B2" points="61,182.7 61,184.4 29.6,202.9 29.6,201.2 	"/>
	<polygon fill="#768A93" points="60.4,182.4 59,181.7 59,183.2 	"/>
	<polygon fill="#768A93" points="59,183.2 31.4,199.2 31.4,200.1 61,182.7 60.4,182.4 	"/>
</g>
<g>
	<polygon fill="#B1B2B2" points="61,167.8 61,169.5 29.6,188.1 29.6,186.3 	"/>
	<polygon fill="#768A93" points="60.4,167.5 59,166.8 59,168.3 	"/>
	<polygon fill="#768A93" points="59,168.3 31.4,184.4 31.4,185.2 61,167.8 60.4,167.5 	"/>
</g>
<g>
	<polygon fill="#B1B2B2" points="61,151 61,152.6 29.6,171.2 29.6,169.5 	"/>
	<polygon fill="#768A93" points="60.4,150.7 59,149.9 59,151.5 	"/>
	<polygon fill="#768A93" points="59,151.5 31.4,167.5 31.4,168.4 61,151 60.4,150.7 	"/>
</g>
<g>
	<polygon fill="#B1B2B2" points="61,132.6 61,134.3 29.6,152.8 29.6,151.1 	"/>
	<polygon fill="#768A93" points="60.4,132.3 59,131.6 59,133.1 	"/>
	<polygon fill="#768A93" points="59,133.1 31.4,149.1 31.4,150 61,132.6 60.4,132.3 	"/>
</g>
<g>
	<polygon fill="#B1B2B2" points="61,112.4 61,114 29.6,132.6 29.6,130.9 	"/>
	<polygon fill="#768A93" points="60.4,112.1 59,111.3 59,112.9 	"/>
	<polygon fill="#768A93" points="59,112.9 31.4,128.9 31.4,129.8 61,112.4 60.4,112.1 	"/>
</g>
<g>
	<polygon fill="#B1B2B2" points="61,90 61,91.7 29.6,110.3 29.6,108.5 	"/>
	<polygon fill="#768A93" points="60.4,89.7 59,89 59,90.6 	"/>
	<polygon fill="#768A93" points="59,90.6 31.4,106.6 31.4,107.4 61,90 60.4,89.7 	"/>
</g>
<g>
	<polygon fill="#B1B2B2" points="61,69.8 61,71.5 29.6,90 29.6,88.3 	"/>
	<polygon fill="#768A93" points="60.4,69.5 59,68.8 59,70.3 	"/>
	<polygon fill="#768A93" points="59,70.3 31.4,86.3 31.4,87.2 61,69.8 60.4,69.5 	"/>
</g>
</svg>
