<?xml version="1.0" encoding="utf-8"?>
<!-- Generator: Adobe Illustrator 18.0.0, SVG Export Plug-In . SVG Version: 6.00 Build 0)  -->
<!DOCTYPE svg PUBLIC "-//W3C//DTD SVG 1.1//EN" "http://www.w3.org/Graphics/SVG/1.1/DTD/svg11.dtd">
<svg version="1.1" id="Layer_1" xmlns="http://www.w3.org/2000/svg" xmlns:xlink="http://www.w3.org/1999/xlink" x="0px" y="0px"
	 viewBox="0 0 832.3 986.3" enable-background="new 0 0 832.3 986.3" xml:space="preserve">
<g>
	<g>
		<g>
			<polygon fill="#DEC7A7" points="721.6,370.5 721.6,732.7 644.2,777.4 643.1,415.8 			"/>
			<polygon fill="#F2E2C8" points="125.5,461 0,533.5 94.1,587.8 219.6,515.4 533.3,696.5 831.4,524.4 643.1,415.8 721.6,370.5 
				502,243.7 			"/>
			<polygon fill="#BCAC9B" points="94.1,587.8 94.1,877 1.3,824 0,533.5 			"/>
			<polygon fill="#DCCBB1" points="219.6,515.4 219.6,805.2 94.1,877 94.1,587.8 			"/>
			<polygon fill="#BCAC9B" points="533.3,696.5 533.3,986.3 219.6,805.2 219.6,515.4 			"/>
			<path fill="#DEC7A7" d="M5.7,532.9c4.7,0,7.2,3.4,7.5,7.1l498.8-290l-9-5.6L1,534.1l0.2,0.1C2.4,533.4,3.9,532.9,5.7,532.9z"/>
			<polygon fill="#EAD7BB" points="831.4,524.4 831.4,814.2 533.3,986.3 533.3,696.5 			"/>
			<polygon fill="#DEC7A7" points="501,245.7 720.6,372.5 715.3,375.5 495.8,248.7 			"/>
			<polygon fill="#F9EBD7" points="502,243.7 0,533.5 9.8,539.2 510,248.3 			"/>
			<polygon fill="#F9EBD7" points="502,243.7 721.6,370.5 716.3,373.5 496.8,246.7 			"/>
			<polygon fill="#F9EBD7" points="0,533.5 94.1,587.8 103.2,582.6 9.2,528.2 			"/>
			<polygon fill="#DEC7A7" points="633,415.8 633,419.7 815.7,525.6 818.7,523.9 			"/>
			<polygon fill="#F9EBD7" points="94.1,587.8 219.6,515.4 219.6,507.7 87.1,583.8 			"/>
			<polygon fill="#F9EBD7" points="219.6,515.4 533.3,696.5 541.8,691.7 219.6,507.7 			"/>
			<polygon fill="#F9EBD7" points="533.3,696.5 831.4,524.4 824.6,520.5 525.4,691.9 			"/>
			<polygon fill="#F9EBD7" points="633,415.8 715.5,367 721.6,370.5 643.1,415.8 			"/>
			<polygon fill="#F9EBD7" points="633,415.8 825.5,527.8 831.4,524.4 643.1,415.8 			"/>
			<g>
				<polygon fill="#DCCBB1" points="11.3,595.2 11.3,630 31.4,641.5 31.4,606.8 				"/>
				<polygon fill="#2299BB" points="12.3,597.2 12.3,632 32.4,643.5 32.4,608.8 				"/>
				<polygon fill="#9B846B" points="12.3,632 11.3,630 12.3,630.5 				"/>
				<polygon fill="#9B846B" points="31.4,606.8 32.4,608.8 31.4,608.2 				"/>
			</g>
			<g>
				<polygon fill="#DCCBB1" points="52.2,613.5 52.2,648.3 72.3,659.9 72.3,625.1 				"/>
				<polygon fill="#2299BB" points="53.2,615.5 53.2,650.3 73.3,661.9 73.3,627.1 				"/>
				<polygon fill="#9B846B" points="53.2,650.3 52.2,648.3 53.2,648.9 				"/>
				<polygon fill="#9B846B" points="72.3,625.1 73.3,627.1 72.3,626.5 				"/>
			</g>
			<g>
				<polygon fill="#DCCBB1" points="11.3,662.9 11.3,697.6 31.4,709.2 31.4,674.5 				"/>
				<polygon fill="#2299BB" points="12.3,664.9 12.3,699.6 32.4,711.2 32.4,676.5 				"/>
				<polygon fill="#9B846B" points="12.3,699.6 11.3,697.6 12.3,698.2 				"/>
				<polygon fill="#9B846B" points="31.4,674.5 32.4,676.5 31.4,675.9 				"/>
			</g>
			<g>
				<polygon fill="#DCCBB1" points="52.2,681.2 52.2,716 72.3,727.6 72.3,692.8 				"/>
				<polygon fill="#2299BB" points="53.2,683.2 53.2,718 73.3,729.6 73.3,694.8 				"/>
				<polygon fill="#9B846B" points="53.2,718 52.2,716 53.2,716.6 				"/>
				<polygon fill="#9B846B" points="72.3,692.8 73.3,694.8 72.3,694.2 				"/>
			</g>
			<g>
				<polygon fill="#DCCBB1" points="11.3,724.3 11.3,759.1 31.4,770.7 31.4,735.9 				"/>
				<polygon fill="#2299BB" points="12.3,726.3 12.3,761.1 32.4,772.7 32.4,737.9 				"/>
				<polygon fill="#9B846B" points="12.3,761.1 11.3,759.1 12.3,759.7 				"/>
				<polygon fill="#9B846B" points="31.4,735.9 32.4,737.9 31.4,737.3 				"/>
			</g>
			<g>
				<polygon fill="#DCCBB1" points="52.2,742.6 52.2,777.4 72.3,789 72.3,754.2 				"/>
				<polygon fill="#2299BB" points="53.2,744.6 53.2,779.4 73.3,791 73.3,756.2 				"/>
				<polygon fill="#9B846B" points="53.2,779.4 52.2,777.4 53.2,778 				"/>
				<polygon fill="#9B846B" points="72.3,754.2 73.3,756.2 72.3,755.7 				"/>
			</g>
			<g>
				<polygon fill="#2299BB" points="531,749.5 295.4,613.5 295.4,648.3 533.3,791 533.3,750.9 				"/>
				<polygon fill="#DEC7A7" points="533.3,791 295.4,648.3 295.4,650.3 533.3,793.7 				"/>
			</g>
			<g>
				<polygon fill="#2299BB" points="531,824.5 295.4,688.5 295.4,723.3 533.3,866 533.3,825.9 				"/>
				<polygon fill="#DEC7A7" points="533.3,866 295.4,723.3 295.4,725.3 533.3,868.7 				"/>
			</g>
			<g>
				<polygon fill="#2299BB" points="531,900.5 295.4,764.5 295.4,799.3 533.3,942 533.3,901.9 				"/>
				<polygon fill="#DEC7A7" points="533.3,942 295.4,799.3 295.4,801.3 533.3,944.7 				"/>
			</g>
			<polygon fill="#54C5D7" points="533.3,901.9 572.2,877.6 572.2,918.2 533.3,942 			"/>
		</g>
		<polygon fill="#F2E0C7" points="533.3,942 572.2,918.2 572.2,920.4 533.3,944.7 		"/>
		<polygon fill="#F2E0C7" points="533.3,866 572.2,842.2 572.2,844.4 533.3,868.7 		"/>
		<polygon fill="#54C5D7" points="533.3,825.9 572.2,801.6 572.2,842.2 533.3,866 		"/>
		<line fill="#F2E0C7" x1="572.2" y1="844.4" x2="533.3" y2="868.7"/>
		<polygon fill="#54C5D7" points="533.3,825.9 572.2,801.6 572.2,842.2 533.3,866 		"/>
		<line fill="#F2E0C7" x1="572.2" y1="769.4" x2="533.3" y2="793.7"/>
		<polygon fill="#54C5D7" points="533.3,750.9 572.2,726.6 572.2,767.2 533.3,791 		"/>
	</g>
	<g>
		<g>
			<polygon fill="#F2E2C8" points="234.1,285.4 390.9,376 500.7,312.6 343.9,222 			"/>
			<polygon fill="#E3C8B5" points="390.9,376 390.9,412.2 500.7,348.8 500.7,312.6 			"/>
			<polygon fill="#AFAFB1" points="234.1,285.4 234.1,321.6 390.9,412.2 390.9,376 			"/>
			<polygon fill="#59C4D8" points="390.9,412.2 390.9,448.4 500.7,385 500.7,348.8 			"/>
			<polygon fill="#2597AF" points="234.1,321.6 234.1,357.8 390.9,448.4 390.9,412.2 			"/>
		</g>
		<g>
			<polygon fill="#F2E2C8" points="234.1,285.4 390.9,376 500.7,312.6 343.9,222 			"/>
			<polygon fill="#E3C8B5" points="390.9,376 390.9,412.2 500.7,348.8 500.7,312.6 			"/>
			<polygon fill="#AFAFB1" points="234.1,285.4 234.1,321.6 390.9,412.2 390.9,376 			"/>
			<polygon fill="#59C4D8" points="390.9,412.2 390.9,448.4 500.7,385 500.7,348.8 			"/>
			<polygon fill="#2597AF" points="234.1,321.6 234.1,357.8 390.9,448.4 390.9,412.2 			"/>
		</g>
		<g>
			<polygon fill="#F2E2C8" points="234.1,211.4 390.9,302 500.7,238.6 343.9,148 			"/>
			<polygon fill="#E3C8B5" points="390.9,302 390.9,338.2 500.7,274.8 500.7,238.6 			"/>
			<polygon fill="#AFAFB1" points="234.1,211.4 234.1,247.6 390.9,338.2 390.9,302 			"/>
			<polygon fill="#59C4D8" points="390.9,338.2 390.9,374.4 500.7,311 500.7,274.8 			"/>
			<polygon fill="#2597AF" points="234.1,247.6 234.1,283.8 390.9,374.4 390.9,338.2 			"/>
		</g>
		<g>
			<polygon fill="#F2E2C8" points="234.1,137.4 390.9,228 500.7,164.6 343.9,74 			"/>
			<polygon fill="#E3C8B5" points="390.9,228 390.9,264.2 500.7,200.8 500.7,164.6 			"/>
			<polygon fill="#AFAFB1" points="234.1,137.4 234.1,173.6 390.9,264.2 390.9,228 			"/>
			<polygon fill="#59C4D8" points="390.9,264.2 390.9,300.4 500.7,237 500.7,200.8 			"/>
			<polygon fill="#2597AF" points="234.1,173.6 234.1,209.8 390.9,300.4 390.9,264.2 			"/>
		</g>
		<g>
			<polygon fill="#F2E2C8" points="234.1,63.4 390.9,154 500.7,90.6 343.9,0 			"/>
			<polygon fill="#E3C8B5" points="390.9,154 390.9,190.2 500.7,126.8 500.7,90.6 			"/>
			<polygon fill="#AFAFB1" points="234.1,63.4 234.1,99.6 390.9,190.2 390.9,154 			"/>
			<polygon fill="#59C4D8" points="390.9,190.2 390.9,226.4 500.7,163 500.7,126.8 			"/>
			<polygon fill="#2597AF" points="234.1,99.6 234.1,135.8 390.9,226.4 390.9,190.2 			"/>
		</g>
		<polygon fill="none" stroke="#C8B9A2" stroke-width="5" stroke-miterlimit="10" points="336,81.6 398.8,117.8 445.8,90.7 
			383.1,54.4 		"/>
		<polygon fill="#F2E2C8" points="333,85.5 403.8,126.3 456.9,95.7 386.1,54.8 		"/>
		<polygon fill="#E3C8B5" points="390.9,448.4 390.9,503.2 500.7,439.8 500.7,385 		"/>
		<polygon fill="#AFAFB1" points="390.9,448.4 234.1,357.8 234.1,412.2 390.9,503.2 		"/>
	</g>
	<g>
		<polygon fill="#E8D5BC" points="163.8,433.3 209.7,459.7 242.9,439.8 197.7,413.7 		"/>
		<polygon fill="#B4A494" points="209.7,459.7 209.7,485.4 164.5,459.7 164.5,433.3 		"/>
		<polygon fill="#DCCBB1" points="242.9,439.8 242.9,465.9 209.7,485.4 209.7,459.7 		"/>
	</g>
	<g id="XMLID_1_">
		<g>
			<path fill="#B58D6D" d="M743.4,610.1l-4.5,10.4l-15.6,8.9c1.9,1.5,3.1,3.6,3.7,5.4l-4.3,2.6c0,0,0-6.5-4.6-10.1l15.6-8.9l1.5-3.5
				L743.4,610.1z"/>
			<path fill="#B58D6D" d="M743.1,630.6l-4.5,10.2l-10.6,6.1c-5.2,29.7-28.9,41.1-28.9,41.1l33.2,28.8l-13.4,7.8l-3.6-3.1l11.7-6.9
				l-33.2-28.8c0,0,6.3-3.1,13.2-10.1c6.4-6.6,13.2-16.7,15.7-31l10.6-6.1l1.4-3.1L743.1,630.6z"/>
			<polygon fill="#A37F5D" points="738.2,608 735.2,614.9 689.4,641.4 688.1,644.5 680.3,649 684.2,639.2 			"/>
			<path fill="#A37F5D" d="M737.9,628.4l-3.1,7.1l-6.8,4c0,0,0-2.2-0.9-4.7L737.9,628.4z"/>
			<path fill="#A37F5D" d="M717,653.5c0,0,0.8,10.6-10.2,21.9c-4.4,4.5-10.7,9.1-19.6,13.2l-0.1,8.5l28.3,24.4l-1.6,1L681.8,695
				l0.1-8.5c21.2-9.7,27.4-22.4,29.2-29.6L717,653.5z"/>
			<path fill="#A37F5D" d="M716.6,645.8l-27.1,15.7l-1.5,3.6l-8.1,4.7l4.4-10.5l27.1-15.7c0,0-0.8-1.9-1.9-3.2
				c1.8,0,3.1,0.5,4.4,1.4C715.4,643,716.6,645.8,716.6,645.8z"/>
			<path fill="#B58D6D" d="M722.8,644.7c-2.5,14.3-9.3,24.4-15.7,31l-0.3-0.3c11-11.3,10.2-21.9,10.2-21.9l-5.9,3.4
				c0.8-3.4,0.7-5.6,0.7-5.6l-23.9,13.8l1.5-3.6l27.1-15.7c0,0-1.1-2.8-2.7-4c-1.3-0.9-2.6-1.4-4.4-1.4c-0.3-0.3-0.5-0.6-0.8-0.8
				c-2-1.3-4-1.9-7.6-0.8c0,0-5.6,1.4-10.4,4.3l-2.4,1.3l1.3-3.2l45.8-26.5l-1.5,3.5l-15.6,8.9c4.6,3.6,4.6,10.1,4.6,10.1l4.3-2.6
				c0.9,2.5,0.9,4.7,0.9,4.7l6.8-4l-1.4,3.1L722.8,644.7z"/>
			<path fill="#B58D6D" d="M711.7,651.3c0,0,0.2,2.2-0.7,5.6l-26,15l2.9-6.8L711.7,651.3z"/>
			<path fill="#B58D6D" d="M708.6,639.7c0.3,0.2,0.6,0.5,0.8,0.8c-0.9,0-2,0.2-3.2,0.6c0,0-5.6,1.4-10.4,4.3l-10.2,5.8l2.7-6.6
				l2.4-1.3c4.9-2.9,10.4-4.3,10.4-4.3C704.6,637.8,706.5,638.3,708.6,639.7z"/>
			<path fill="#B58D6D" d="M707.1,675.7c-6.8,7.1-13.2,10.1-13.2,10.1l33.2,28.8l-11.7,6.9L687,697.2l0.1-8.5
				c8.9-4.1,15.2-8.7,19.6-13.2L707.1,675.7z"/>
		</g>
		<g>
		</g>
	</g>
	<path fill="#F4A72C" d="M180,94.7"/>
	<path fill="#F4A72C" d="M177.8,97.2"/>
	<path fill="#7CD9C5" d="M179.8,145.3"/>
	<path fill="#7CD9C5" d="M177.1,148.3"/>
	<path fill="none" d="M205.5,204.4"/>
	<line fill="#DD8D19" x1="198.8" y1="105.6" x2="180" y2="94.7"/>
	<line fill="#DD8D19" x1="198.6" y1="156.2" x2="179.8" y2="145.3"/>
	<polygon fill="#54C5D7" points="751.3,812.7 751.3,953.4 761.4,949.9 761.4,809 	"/>
	<g>
		<path fill="#2197B1" d="M829.1,859.6v33.6C829.1,893.2,836.2,877.8,829.1,859.6z"/>
		<g>
			<path fill="#2197B1" d="M832.3,871.9V738c0,0-0.8,9.2-3.2,14.8l-5,105.8L832.3,871.9z"/>
			<g>
				<path fill="#54C5D7" d="M707.7,824v140.4c0,0-56.6,11.7-111.3-14.5V808.7C596.9,810,640.9,833.1,707.7,824z"/>
				<path fill="#2197B1" d="M829.1,752.8v140.4c0,0-14.8,55.8-121.4,71.2V824C707.7,824,798.3,811.1,829.1,752.8z"/>
				<path fill="#CEBC9F" d="M802.6,689.6L596.4,808.7l-0.4,0.4c50.1,26.1,133.4,21.8,189-10.3C840.7,766.7,848,718.5,802.6,689.6z"
					/>
				<path fill="#F9E6D2" d="M802.6,682.6L596.4,801.7l-0.4,0.4c50.1,26.1,133.4,21.8,189-10.3C840.7,759.7,848,711.5,802.6,682.6z"
					/>
			</g>
		</g>
	</g>
	<polygon fill="#CEBC9F" points="596.1,802.1 596.1,809.1 602.5,805.2 	"/>
	<polygon fill="#B28866" points="689.4,661.4 684.2,659.3 679.8,669.8 685,671.9 	"/>
	<polygon fill="#B28866" points="685.5,651.1 680.3,649 684.2,639.2 689.4,641.4 	"/>
	<polygon fill="#A37F5D" points="718.9,724.6 713.7,722.5 706.9,716.6 713.8,720.3 	"/>
	<polygon fill="#B28866" points="687.1,688.7 681.9,686.5 681.8,695 687,697.2 	"/>
	<polygon fill="#A37F5D" points="738.2,608 743.4,610.1 689.4,641.4 684.2,639.2 	"/>
	<polygon fill="#A37F5D" points="737.9,628.4 743.1,630.6 731.5,637.5 729.1,633.6 	"/>
	<path fill="#54C5D7" d="M745.3,815.8v140.6l6.6-2V813.7C751.9,813.7,747.7,815.1,745.3,815.8z"/>
	<g>
		<path fill="#D89E0E" stroke="#D89E0E" stroke-width="18" stroke-miterlimit="10" d="M638.8,507.5c36.9,21.3,36.9,55.8,0,77.1
			c-38,22-95.5,22-133.5,0c-36.9-21.3-36.9-55.8,0-77.1C542.1,486.2,601.9,486.2,638.8,507.5z"/>
		<path fill="#F4A72C" stroke="#FFCE00" stroke-width="18" stroke-miterlimit="10" d="M639.2,494.9c36.9,21.3,36.9,55.8,0,77.1
			c-36.9,21.3-96.6,21.3-133.5,0s-36.9-55.8,0-77.1S602.3,473.6,639.2,494.9z"/>
		<g>
			<path fill="#FFCE00" d="M544.5,511.9c5.9-3.4,11.9-6.8,17.7-10.3c3.2-1.9,6.6-3.7,9.6-5.7c1.1-0.7,1.4-0.7,1.8,0.3
				c0.7,1.8,1.4,3.6,2.1,5.3c0.3,0.6-0.1,1-0.8,1.5c-3.4,2-6.8,4-10.2,6.1c-0.3,0.2-0.8,0.3-0.7,0.5c0.1,0.3,0.7,0.2,1.2,0.3
				c2.7,0.2,5.3,0.7,7.6,1.6c1.1,0.4,1.8,0.4,2.8-0.2c3.8-2.2,7.6-4.4,11.5-6.6c0.3-0.2,0.6-0.6,1.2-0.4c0.5,0.1,0.3,0.5,0.4,0.7
				c0.7,1.8,1.4,3.6,2.2,5.4c0.3,0.6,0.1,1-0.7,1.4c-2.2,1.3-4.4,2.6-6.6,3.9c-0.9,0.5-0.9,0.9-0.2,1.5c5.9,5.3,5.5,10.9,1.7,16.5
				c-1.7,2.6-4.3,4.9-7.3,7c-0.7,0.5-0.8,0.7,0.6,0.8c6.7,0.4,13.3,1,20,1.4c7.3,0.5,14.6,0.9,21.9,1.3c6.6,0.4,13.3,0.8,19.9,1.3
				c0.4,0,0.9,0,1.1,0.2c0.1,0.2-0.3,0.3-0.5,0.5c-3.5,2-7.1,4.1-10.6,6.1c-0.8,0.5-1.6,0.7-2.8,0.6c-11.1-0.8-22.3-1.6-33.4-2.3
				c-8.6-0.5-17.2-1-25.9-1.5c-1.1-0.1-2-0.3-2.8-0.8c-1.6-1-3.3-2-5-2.9c-1-0.5-0.9-0.9,0-1.5c2.8-1.6,5.6-3.1,8.1-4.8
				c3.7-2.4,6.6-5.2,7.5-8.5c0.7-2.7-0.3-5.3-3-7.6c-0.8-0.7-1.4-0.7-2.3-0.1c-8.4,4.9-16.8,9.7-25.2,14.5c-0.3,0.2-0.6,0.3-0.9,0.5
				c-0.3,0.2-0.6,0.5-1.1,0.4c-0.5-0.1-0.5-0.4-0.6-0.7c-0.7-1.8-1.3-3.7-2.1-5.5c-0.2-0.6,0-1,0.8-1.5c6.7-3.9,13.4-7.8,20.1-11.6
				c0.3-0.2,1-0.4,0.8-0.7c-0.2-0.3-0.8-0.2-1.2-0.3c-3.3-0.5-6.6-0.3-9.7,0.5c-5,1.3-9.2,3.2-13,5.5c-3,1.7-6,3.5-9,5.2
				c-0.3,0.2-0.6,0.5-1.1,0.4c-0.6-0.1-0.5-0.5-0.6-0.8c-0.6-1.7-1.2-3.4-1.9-5.1c-0.3-0.8-0.1-1.3,0.9-1.9
				C532.8,518.8,538.7,515.3,544.5,511.9C544.6,511.9,544.5,511.9,544.5,511.9z"/>
		</g>
	</g>
	<g>
		<path fill="#D89E0E" stroke="#D89E0E" stroke-width="18" stroke-miterlimit="10" d="M628.8,488.5c36.9,21.3,36.9,55.8,0,77.1
			c-38,22-95.5,22-133.5,0c-36.9-21.3-36.9-55.8,0-77.1C532.1,467.2,591.9,467.2,628.8,488.5z"/>
		<path fill="#F4A72C" stroke="#FFCE00" stroke-width="18" stroke-miterlimit="10" d="M629.2,475.9c36.9,21.3,36.9,55.8,0,77.1
			c-36.9,21.3-96.6,21.3-133.5,0s-36.9-55.8,0-77.1S592.3,454.6,629.2,475.9z"/>
		<g>
			<path fill="#FFCE00" d="M534.5,492.9c5.9-3.4,11.9-6.8,17.7-10.3c3.2-1.9,6.6-3.7,9.6-5.7c1.1-0.7,1.4-0.7,1.8,0.3
				c0.7,1.8,1.4,3.6,2.1,5.3c0.3,0.6-0.1,1-0.8,1.5c-3.4,2-6.8,4-10.2,6.1c-0.3,0.2-0.8,0.3-0.7,0.5c0.1,0.3,0.7,0.2,1.2,0.3
				c2.7,0.2,5.3,0.7,7.6,1.6c1.1,0.4,1.8,0.4,2.8-0.2c3.8-2.2,7.6-4.4,11.5-6.6c0.3-0.2,0.6-0.6,1.2-0.4c0.5,0.1,0.3,0.5,0.4,0.7
				c0.7,1.8,1.4,3.6,2.2,5.4c0.3,0.6,0.1,1-0.7,1.4c-2.2,1.3-4.4,2.6-6.6,3.9c-0.9,0.5-0.9,0.9-0.2,1.5c5.9,5.3,5.5,10.9,1.7,16.5
				c-1.7,2.6-4.3,4.9-7.3,7c-0.7,0.5-0.8,0.7,0.6,0.8c6.7,0.4,13.3,1,20,1.4c7.3,0.5,14.6,0.9,21.9,1.3c6.6,0.4,13.3,0.8,19.9,1.3
				c0.4,0,0.9,0,1.1,0.2c0.1,0.2-0.3,0.3-0.5,0.5c-3.5,2-7.1,4.1-10.6,6.1c-0.8,0.5-1.6,0.7-2.8,0.6c-11.1-0.8-22.3-1.6-33.4-2.3
				c-8.6-0.5-17.2-1-25.9-1.5c-1.1-0.1-2-0.3-2.8-0.8c-1.6-1-3.3-2-5-2.9c-1-0.5-0.9-0.9,0-1.5c2.8-1.6,5.6-3.1,8.1-4.8
				c3.7-2.4,6.6-5.2,7.5-8.5c0.7-2.7-0.3-5.3-3-7.6c-0.8-0.7-1.4-0.7-2.3-0.1c-8.4,4.9-16.8,9.7-25.2,14.5c-0.3,0.2-0.6,0.3-0.9,0.5
				c-0.3,0.2-0.6,0.5-1.1,0.4c-0.5-0.1-0.5-0.4-0.6-0.7c-0.7-1.8-1.3-3.7-2.1-5.5c-0.2-0.6,0-1,0.8-1.5c6.7-3.9,13.4-7.8,20.1-11.6
				c0.3-0.2,1-0.4,0.8-0.7c-0.2-0.3-0.8-0.2-1.2-0.3c-3.3-0.5-6.6-0.3-9.7,0.5c-5,1.3-9.2,3.2-13,5.5c-3,1.7-6,3.5-9,5.2
				c-0.3,0.2-0.6,0.5-1.1,0.4c-0.6-0.1-0.5-0.5-0.6-0.8c-0.6-1.7-1.2-3.4-1.9-5.1c-0.3-0.8-0.1-1.3,0.9-1.9
				C522.8,499.8,528.7,496.3,534.5,492.9C534.6,492.9,534.5,492.9,534.5,492.9z"/>
		</g>
	</g>
	<g>
		<path fill="#D89E0E" stroke="#D89E0E" stroke-width="18" stroke-miterlimit="10" d="M650.8,475.5c36.9,21.3,36.9,55.8,0,77.1
			c-38,22-95.5,22-133.5,0c-36.9-21.3-36.9-55.8,0-77.1C554.1,454.2,613.9,454.2,650.8,475.5z"/>
		<path fill="#F4A72C" stroke="#FFCE00" stroke-width="18" stroke-miterlimit="10" d="M651.2,462.9c36.9,21.3,36.9,55.8,0,77.1
			c-36.9,21.3-96.6,21.3-133.5,0c-36.9-21.3-36.9-55.8,0-77.1C554.5,441.6,614.3,441.6,651.2,462.9z"/>
		<g>
			<path fill="#FFCE00" d="M556.5,479.9c5.9-3.4,11.9-6.8,17.7-10.3c3.2-1.9,6.6-3.7,9.6-5.7c1.1-0.7,1.4-0.7,1.8,0.3
				c0.7,1.8,1.4,3.6,2.1,5.3c0.3,0.6-0.1,1-0.8,1.5c-3.4,2-6.8,4-10.2,6.1c-0.3,0.2-0.8,0.3-0.7,0.5c0.1,0.3,0.7,0.2,1.2,0.3
				c2.7,0.2,5.3,0.7,7.6,1.6c1.1,0.4,1.8,0.4,2.8-0.2c3.8-2.2,7.6-4.4,11.5-6.6c0.3-0.2,0.6-0.6,1.2-0.4c0.5,0.1,0.3,0.5,0.4,0.7
				c0.7,1.8,1.4,3.6,2.2,5.4c0.3,0.6,0.1,1-0.7,1.4c-2.2,1.3-4.4,2.6-6.6,3.9c-0.9,0.5-0.9,0.9-0.2,1.5c5.9,5.3,5.5,10.9,1.7,16.5
				c-1.7,2.6-4.3,4.9-7.3,7c-0.7,0.5-0.8,0.7,0.6,0.8c6.7,0.4,13.3,1,20,1.4c7.3,0.5,14.6,0.9,21.9,1.3c6.6,0.4,13.3,0.8,19.9,1.3
				c0.4,0,0.9,0,1.1,0.2c0.1,0.2-0.3,0.3-0.5,0.5c-3.5,2-7.1,4.1-10.6,6.1c-0.8,0.5-1.6,0.7-2.8,0.6c-11.1-0.8-22.3-1.6-33.4-2.3
				c-8.6-0.5-17.2-1-25.9-1.5c-1.1-0.1-2-0.3-2.8-0.8c-1.6-1-3.3-2-5-2.9c-1-0.5-0.9-0.9,0-1.5c2.8-1.6,5.6-3.1,8.1-4.8
				c3.7-2.4,6.6-5.2,7.5-8.5c0.7-2.7-0.3-5.3-3-7.6c-0.8-0.7-1.4-0.7-2.3-0.1c-8.4,4.9-16.8,9.7-25.2,14.5c-0.3,0.2-0.6,0.3-0.9,0.5
				c-0.3,0.2-0.6,0.5-1.1,0.4c-0.5-0.1-0.5-0.4-0.6-0.7c-0.7-1.8-1.3-3.7-2.1-5.5c-0.2-0.6,0-1,0.8-1.5c6.7-3.9,13.4-7.8,20.1-11.6
				c0.3-0.2,1-0.4,0.8-0.7c-0.2-0.3-0.8-0.2-1.2-0.3c-3.3-0.5-6.6-0.3-9.7,0.5c-5,1.3-9.2,3.2-13,5.5c-3,1.7-6,3.5-9,5.2
				c-0.3,0.2-0.6,0.5-1.1,0.4c-0.6-0.1-0.5-0.5-0.6-0.8c-0.6-1.7-1.2-3.4-1.9-5.1c-0.3-0.8-0.1-1.3,0.9-1.9
				C544.8,486.8,550.7,483.3,556.5,479.9C556.6,479.9,556.5,479.9,556.5,479.9z"/>
		</g>
	</g>
</g>
<g>
	<g>
		<g>
			<polygon fill="#DEC7A7" points="721.6,370.5 721.6,732.7 644.2,777.4 643.1,415.8 			"/>
			<polygon fill="#F2E2C8" points="125.5,461 0,533.5 94.1,587.8 219.6,515.4 533.3,696.5 831.4,524.4 643.1,415.8 721.6,370.5 
				502,243.7 			"/>
			<polygon fill="#BCAC9B" points="94.1,587.8 94.1,877 1.3,824 0,533.5 			"/>
			<polygon fill="#DCCBB1" points="219.6,515.4 219.6,805.2 94.1,877 94.1,587.8 			"/>
			<polygon fill="#BCAC9B" points="533.3,696.5 533.3,986.3 219.6,805.2 219.6,515.4 			"/>
			<path fill="#DEC7A7" d="M5.7,532.9c4.7,0,7.2,3.4,7.5,7.1l498.8-290l-9-5.6L1,534.1l0.2,0.1C2.4,533.4,3.9,532.9,5.7,532.9z"/>
			<polygon fill="#EAD7BB" points="831.4,524.4 831.4,814.2 533.3,986.3 533.3,696.5 			"/>
			<polygon fill="#DEC7A7" points="501,245.7 720.6,372.5 715.3,375.5 495.8,248.7 			"/>
			<polygon fill="#F9EBD7" points="502,243.7 0,533.5 9.8,539.2 510,248.3 			"/>
			<polygon fill="#F9EBD7" points="502,243.7 721.6,370.5 716.3,373.5 496.8,246.7 			"/>
			<polygon fill="#F9EBD7" points="0,533.5 94.1,587.8 103.2,582.6 9.2,528.2 			"/>
			<polygon fill="#DEC7A7" points="633,415.8 633,419.7 815.7,525.6 818.7,523.9 			"/>
			<polygon fill="#F9EBD7" points="94.1,587.8 219.6,515.4 219.6,507.7 87.1,583.8 			"/>
			<polygon fill="#F9EBD7" points="219.6,515.4 533.3,696.5 541.8,691.7 219.6,507.7 			"/>
			<polygon fill="#F9EBD7" points="533.3,696.5 831.4,524.4 824.6,520.5 525.4,691.9 			"/>
			<polygon fill="#F9EBD7" points="633,415.8 715.5,367 721.6,370.5 643.1,415.8 			"/>
			<polygon fill="#F9EBD7" points="633,415.8 825.5,527.8 831.4,524.4 643.1,415.8 			"/>
			<g>
				<polygon fill="#DCCBB1" points="11.3,595.2 11.3,630 31.4,641.5 31.4,606.8 				"/>
				<polygon fill="#2299BB" points="12.3,597.2 12.3,632 32.4,643.5 32.4,608.8 				"/>
				<polygon fill="#9B846B" points="12.3,632 11.3,630 12.3,630.5 				"/>
				<polygon fill="#9B846B" points="31.4,606.8 32.4,608.8 31.4,608.2 				"/>
			</g>
			<g>
				<polygon fill="#DCCBB1" points="52.2,613.5 52.2,648.3 72.3,659.9 72.3,625.1 				"/>
				<polygon fill="#2299BB" points="53.2,615.5 53.2,650.3 73.3,661.9 73.3,627.1 				"/>
				<polygon fill="#9B846B" points="53.2,650.3 52.2,648.3 53.2,648.9 				"/>
				<polygon fill="#9B846B" points="72.3,625.1 73.3,627.1 72.3,626.5 				"/>
			</g>
			<g>
				<polygon fill="#DCCBB1" points="11.3,662.9 11.3,697.6 31.4,709.2 31.4,674.5 				"/>
				<polygon fill="#2299BB" points="12.3,664.9 12.3,699.6 32.4,711.2 32.4,676.5 				"/>
				<polygon fill="#9B846B" points="12.3,699.6 11.3,697.6 12.3,698.2 				"/>
				<polygon fill="#9B846B" points="31.4,674.5 32.4,676.5 31.4,675.9 				"/>
			</g>
			<g>
				<polygon fill="#DCCBB1" points="52.2,681.2 52.2,716 72.3,727.6 72.3,692.8 				"/>
				<polygon fill="#2299BB" points="53.2,683.2 53.2,718 73.3,729.6 73.3,694.8 				"/>
				<polygon fill="#9B846B" points="53.2,718 52.2,716 53.2,716.6 				"/>
				<polygon fill="#9B846B" points="72.3,692.8 73.3,694.8 72.3,694.2 				"/>
			</g>
			<g>
				<polygon fill="#DCCBB1" points="11.3,724.3 11.3,759.1 31.4,770.7 31.4,735.9 				"/>
				<polygon fill="#2299BB" points="12.3,726.3 12.3,761.1 32.4,772.7 32.4,737.9 				"/>
				<polygon fill="#9B846B" points="12.3,761.1 11.3,759.1 12.3,759.7 				"/>
				<polygon fill="#9B846B" points="31.4,735.9 32.4,737.9 31.4,737.3 				"/>
			</g>
			<g>
				<polygon fill="#DCCBB1" points="52.2,742.6 52.2,777.4 72.3,789 72.3,754.2 				"/>
				<polygon fill="#2299BB" points="53.2,744.6 53.2,779.4 73.3,791 73.3,756.2 				"/>
				<polygon fill="#9B846B" points="53.2,779.4 52.2,777.4 53.2,778 				"/>
				<polygon fill="#9B846B" points="72.3,754.2 73.3,756.2 72.3,755.7 				"/>
			</g>
			<g>
				<polygon fill="#2299BB" points="531,749.5 295.4,613.5 295.4,648.3 533.3,791 533.3,750.9 				"/>
				<polygon fill="#DEC7A7" points="533.3,791 295.4,648.3 295.4,650.3 533.3,793.7 				"/>
			</g>
			<g>
				<polygon fill="#2299BB" points="531,824.5 295.4,688.5 295.4,723.3 533.3,866 533.3,825.9 				"/>
				<polygon fill="#DEC7A7" points="533.3,866 295.4,723.3 295.4,725.3 533.3,868.7 				"/>
			</g>
			<g>
				<polygon fill="#2299BB" points="531,900.5 295.4,764.5 295.4,799.3 533.3,942 533.3,901.9 				"/>
				<polygon fill="#DEC7A7" points="533.3,942 295.4,799.3 295.4,801.3 533.3,944.7 				"/>
			</g>
			<polygon fill="#54C5D7" points="533.3,901.9 572.2,877.6 572.2,918.2 533.3,942 			"/>
		</g>
		<polygon fill="#F2E0C7" points="533.3,942 572.2,918.2 572.2,920.4 533.3,944.7 		"/>
		<polygon fill="#F2E0C7" points="533.3,866 572.2,842.2 572.2,844.4 533.3,868.7 		"/>
		<polygon fill="#54C5D7" points="533.3,825.9 572.2,801.6 572.2,842.2 533.3,866 		"/>
		<line fill="#F2E0C7" x1="572.2" y1="844.4" x2="533.3" y2="868.7"/>
		<polygon fill="#54C5D7" points="533.3,825.9 572.2,801.6 572.2,842.2 533.3,866 		"/>
		<line fill="#F2E0C7" x1="572.2" y1="769.4" x2="533.3" y2="793.7"/>
		<polygon fill="#54C5D7" points="533.3,750.9 572.2,726.6 572.2,767.2 533.3,791 		"/>
	</g>
	<g>
		<g>
			<polygon fill="#F2E2C8" points="234.1,285.4 390.9,376 500.7,312.6 343.9,222 			"/>
			<polygon fill="#E3C8B5" points="390.9,376 390.9,412.2 500.7,348.8 500.7,312.6 			"/>
			<polygon fill="#AFAFB1" points="234.1,285.4 234.1,321.6 390.9,412.2 390.9,376 			"/>
			<polygon fill="#59C4D8" points="390.9,412.2 390.9,448.4 500.7,385 500.7,348.8 			"/>
			<polygon fill="#2597AF" points="234.1,321.6 234.1,357.8 390.9,448.4 390.9,412.2 			"/>
		</g>
		<g>
			<polygon fill="#F2E2C8" points="234.1,285.4 390.9,376 500.7,312.6 343.9,222 			"/>
			<polygon fill="#E3C8B5" points="390.9,376 390.9,412.2 500.7,348.8 500.7,312.6 			"/>
			<polygon fill="#AFAFB1" points="234.1,285.4 234.1,321.6 390.9,412.2 390.9,376 			"/>
			<polygon fill="#59C4D8" points="390.9,412.2 390.9,448.4 500.7,385 500.7,348.8 			"/>
			<polygon fill="#2597AF" points="234.1,321.6 234.1,357.8 390.9,448.4 390.9,412.2 			"/>
		</g>
		<g>
			<polygon fill="#F2E2C8" points="234.1,211.4 390.9,302 500.7,238.6 343.9,148 			"/>
			<polygon fill="#E3C8B5" points="390.9,302 390.9,338.2 500.7,274.8 500.7,238.6 			"/>
			<polygon fill="#AFAFB1" points="234.1,211.4 234.1,247.6 390.9,338.2 390.9,302 			"/>
			<polygon fill="#59C4D8" points="390.9,338.2 390.9,374.4 500.7,311 500.7,274.8 			"/>
			<polygon fill="#2597AF" points="234.1,247.6 234.1,283.8 390.9,374.4 390.9,338.2 			"/>
		</g>
		<g>
			<polygon fill="#F2E2C8" points="234.1,137.4 390.9,228 500.7,164.6 343.9,74 			"/>
			<polygon fill="#E3C8B5" points="390.9,228 390.9,264.2 500.7,200.8 500.7,164.6 			"/>
			<polygon fill="#AFAFB1" points="234.1,137.4 234.1,173.6 390.9,264.2 390.9,228 			"/>
			<polygon fill="#59C4D8" points="390.9,264.2 390.9,300.4 500.7,237 500.7,200.8 			"/>
			<polygon fill="#2597AF" points="234.1,173.6 234.1,209.8 390.9,300.4 390.9,264.2 			"/>
		</g>
		<g>
			<polygon fill="#F2E2C8" points="234.1,63.4 390.9,154 500.7,90.6 343.9,0 			"/>
			<polygon fill="#E3C8B5" points="390.9,154 390.9,190.2 500.7,126.8 500.7,90.6 			"/>
			<polygon fill="#AFAFB1" points="234.1,63.4 234.1,99.6 390.9,190.2 390.9,154 			"/>
			<polygon fill="#59C4D8" points="390.9,190.2 390.9,226.4 500.7,163 500.7,126.8 			"/>
			<polygon fill="#2597AF" points="234.1,99.6 234.1,135.8 390.9,226.4 390.9,190.2 			"/>
		</g>
		<polygon fill="none" stroke="#C8B9A2" stroke-width="5" stroke-miterlimit="10" points="336,81.6 398.8,117.8 445.8,90.7 
			383.1,54.4 		"/>
		<polygon fill="#F2E2C8" points="333,85.5 403.8,126.3 456.9,95.7 386.1,54.8 		"/>
		<polygon fill="#E3C8B5" points="390.9,448.4 390.9,503.2 500.7,439.8 500.7,385 		"/>
		<polygon fill="#AFAFB1" points="390.9,448.4 234.1,357.8 234.1,412.2 390.9,503.2 		"/>
	</g>
	<g>
		<polygon fill="#E8D5BC" points="163.8,433.3 209.7,459.7 242.9,439.8 197.7,413.7 		"/>
		<polygon fill="#B4A494" points="209.7,459.7 209.7,485.4 164.5,459.7 164.5,433.3 		"/>
		<polygon fill="#DCCBB1" points="242.9,439.8 242.9,465.9 209.7,485.4 209.7,459.7 		"/>
	</g>
	<g id="XMLID_5_">
		<g>
			<path fill="#B58D6D" d="M743.4,610.1l-4.5,10.4l-15.6,8.9c1.9,1.5,3.1,3.6,3.7,5.4l-4.3,2.6c0,0,0-6.5-4.6-10.1l15.6-8.9l1.5-3.5
				L743.4,610.1z"/>
			<path fill="#B58D6D" d="M743.1,630.6l-4.5,10.2l-10.6,6.1c-5.2,29.7-28.9,41.1-28.9,41.1l33.2,28.8l-13.4,7.8l-3.6-3.1l11.7-6.9
				l-33.2-28.8c0,0,6.3-3.1,13.2-10.1c6.4-6.6,13.2-16.7,15.7-31l10.6-6.1l1.4-3.1L743.1,630.6z"/>
			<polygon fill="#A37F5D" points="738.2,608 735.2,614.9 689.4,641.4 688.1,644.5 680.3,649 684.2,639.2 			"/>
			<path fill="#A37F5D" d="M737.9,628.4l-3.1,7.1l-6.8,4c0,0,0-2.2-0.9-4.7L737.9,628.4z"/>
			<path fill="#A37F5D" d="M717,653.5c0,0,0.8,10.6-10.2,21.9c-4.4,4.5-10.7,9.1-19.6,13.2l-0.1,8.5l28.3,24.4l-1.6,1L681.8,695
				l0.1-8.5c21.2-9.7,27.4-22.4,29.2-29.6L717,653.5z"/>
			<path fill="#A37F5D" d="M716.6,645.8l-27.1,15.7l-1.5,3.6l-8.1,4.7l4.4-10.5l27.1-15.7c0,0-0.8-1.9-1.9-3.2
				c1.8,0,3.1,0.5,4.4,1.4C715.4,643,716.6,645.8,716.6,645.8z"/>
			<path fill="#B58D6D" d="M706.7,675.4c11-11.3,10.2-21.9,10.2-21.9l-5.9,3.4c0.8-3.4,0.7-5.6,0.7-5.6l-23.9,13.8l1.5-3.6
				l27.1-15.7c0,0-1.1-2.8-2.7-4c-1.3-0.9-2.6-1.4-4.4-1.4c-0.3-0.3-0.5-0.6-0.8-0.8c-2-1.3-4-1.9-7.6-0.8c0,0-5.6,1.4-10.4,4.3
				l-2.4,1.3l1.3-3.2l45.8-26.5l-1.5,3.5l-15.6,8.9c4.6,3.6,4.6,10.1,4.6,10.1l4.3-2.6c0.9,2.5,0.9,4.7,0.9,4.7l6.8-4l-1.4,3.1
				l-10.6,6.1c-2.5,14.3-9.3,24.4-15.7,31L706.7,675.4z"/>
			<path fill="#B58D6D" d="M711.7,651.3c0,0,0.2,2.2-0.7,5.6l-26,15l2.9-6.8L711.7,651.3z"/>
			<path fill="#B58D6D" d="M708.6,639.7c0.3,0.2,0.6,0.5,0.8,0.8c-0.9,0-2,0.2-3.2,0.6c0,0-5.6,1.4-10.4,4.3l-10.2,5.8l2.7-6.6
				l2.4-1.3c4.9-2.9,10.4-4.3,10.4-4.3C704.6,637.8,706.5,638.3,708.6,639.7z"/>
			<path fill="#B58D6D" d="M687.1,688.7c8.9-4.1,15.2-8.7,19.6-13.2l0.3,0.3c-6.8,7.1-13.2,10.1-13.2,10.1l33.2,28.8l-11.7,6.9
				L687,697.2L687.1,688.7z"/>
		</g>
		<g>
		</g>
	</g>
	<path fill="#F4A72C" d="M180,94.7"/>
	<path fill="#F4A72C" d="M177.8,97.2"/>
	<path fill="#7CD9C5" d="M179.8,145.3"/>
	<path fill="#7CD9C5" d="M177.1,148.3"/>
	<path fill="none" d="M205.5,204.4"/>
	<line fill="#DD8D19" x1="198.8" y1="105.6" x2="180" y2="94.7"/>
	<line fill="#DD8D19" x1="198.6" y1="156.2" x2="179.8" y2="145.3"/>
	<polygon fill="#54C5D7" points="751.3,812.7 751.3,953.4 761.4,949.9 761.4,809 	"/>
	<g>
		<path fill="#2197B1" d="M829.1,859.6v33.6C829.1,893.2,836.2,877.8,829.1,859.6z"/>
		<g>
			<path fill="#2197B1" d="M832.3,871.9V738c0,0-0.8,9.2-3.2,14.8l-5,105.8L832.3,871.9z"/>
			<g>
				<path fill="#54C5D7" d="M707.7,824v140.4c0,0-56.6,11.7-111.3-14.5V808.7C596.9,810,640.9,833.1,707.7,824z"/>
				<path fill="#2197B1" d="M829.1,752.8v140.4c0,0-14.8,55.8-121.4,71.2V824C707.7,824,798.3,811.1,829.1,752.8z"/>
				<path fill="#CEBC9F" d="M802.6,689.6L596.4,808.7l-0.4,0.4c50.1,26.1,133.4,21.8,189-10.3C840.7,766.7,848,718.5,802.6,689.6z"
					/>
				<path fill="#F9E6D2" d="M802.6,682.6L596.4,801.7l-0.4,0.4c50.1,26.1,133.4,21.8,189-10.3C840.7,759.7,848,711.5,802.6,682.6z"
					/>
			</g>
		</g>
	</g>
	<polygon fill="#CEBC9F" points="596.1,802.1 596.1,809.1 602.5,805.2 	"/>
	<polygon fill="#B28866" points="689.4,661.4 684.2,659.3 679.8,669.8 685,671.9 	"/>
	<polygon fill="#B28866" points="685.5,651.1 680.3,649 684.2,639.2 689.4,641.4 	"/>
	<polygon fill="#A37F5D" points="718.9,724.6 713.7,722.5 706.9,716.6 713.8,720.3 	"/>
	<polygon fill="#B28866" points="687.1,688.7 681.9,686.5 681.8,695 687,697.2 	"/>
	<polygon fill="#A37F5D" points="738.2,608 743.4,610.1 689.4,641.4 684.2,639.2 	"/>
	<polygon fill="#A37F5D" points="737.9,628.4 743.1,630.6 731.5,637.5 729.1,633.6 	"/>
	<path fill="#54C5D7" d="M745.3,815.8v140.6l6.6-2V813.7C751.9,813.7,747.7,815.1,745.3,815.8z"/>
	<g>
		<path fill="#D89E0E" stroke="#D89E0E" stroke-width="18" stroke-miterlimit="10" d="M638.8,507.5c36.9,21.3,36.9,55.8,0,77.1
			c-38,22-95.5,22-133.5,0c-36.9-21.3-36.9-55.8,0-77.1C542.1,486.2,601.9,486.2,638.8,507.5z"/>
		<path fill="#F4A72C" stroke="#FFCE00" stroke-width="18" stroke-miterlimit="10" d="M639.2,494.9c36.9,21.3,36.9,55.8,0,77.1
			c-36.9,21.3-96.6,21.3-133.5,0s-36.9-55.8,0-77.1S602.3,473.6,639.2,494.9z"/>
		<g>
			<path fill="#FFCE00" d="M544.5,511.9c5.9-3.4,11.9-6.8,17.7-10.3c3.2-1.9,6.6-3.7,9.6-5.7c1.1-0.7,1.4-0.7,1.8,0.3
				c0.7,1.8,1.4,3.6,2.1,5.3c0.3,0.6-0.1,1-0.8,1.5c-3.4,2-6.8,4-10.2,6.1c-0.3,0.2-0.8,0.3-0.7,0.5c0.1,0.3,0.7,0.2,1.2,0.3
				c2.7,0.2,5.3,0.7,7.6,1.6c1.1,0.4,1.8,0.4,2.8-0.2c3.8-2.2,7.6-4.4,11.5-6.6c0.3-0.2,0.6-0.6,1.2-0.4c0.5,0.1,0.3,0.5,0.4,0.7
				c0.7,1.8,1.4,3.6,2.2,5.4c0.3,0.6,0.1,1-0.7,1.4c-2.2,1.3-4.4,2.6-6.6,3.9c-0.9,0.5-0.9,0.9-0.2,1.5c5.9,5.3,5.5,10.9,1.7,16.5
				c-1.7,2.6-4.3,4.9-7.3,7c-0.7,0.5-0.8,0.7,0.6,0.8c6.7,0.4,13.3,1,20,1.4c7.3,0.5,14.6,0.9,21.9,1.3c6.6,0.4,13.3,0.8,19.9,1.3
				c0.4,0,0.9,0,1.1,0.2c0.1,0.2-0.3,0.3-0.5,0.5c-3.5,2-7.1,4.1-10.6,6.1c-0.8,0.5-1.6,0.7-2.8,0.6c-11.1-0.8-22.3-1.6-33.4-2.3
				c-8.6-0.5-17.2-1-25.9-1.5c-1.1-0.1-2-0.3-2.8-0.8c-1.6-1-3.3-2-5-2.9c-1-0.5-0.9-0.9,0-1.5c2.8-1.6,5.6-3.1,8.1-4.8
				c3.7-2.4,6.6-5.2,7.5-8.5c0.7-2.7-0.3-5.3-3-7.6c-0.8-0.7-1.4-0.7-2.3-0.1c-8.4,4.9-16.8,9.7-25.2,14.5c-0.3,0.2-0.6,0.3-0.9,0.5
				c-0.3,0.2-0.6,0.5-1.1,0.4c-0.5-0.1-0.5-0.4-0.6-0.7c-0.7-1.8-1.3-3.7-2.1-5.5c-0.2-0.6,0-1,0.8-1.5c6.7-3.9,13.4-7.8,20.1-11.6
				c0.3-0.2,1-0.4,0.8-0.7c-0.2-0.3-0.8-0.2-1.2-0.3c-3.3-0.5-6.6-0.3-9.7,0.5c-5,1.3-9.2,3.2-13,5.5c-3,1.7-6,3.5-9,5.2
				c-0.3,0.2-0.6,0.5-1.1,0.4c-0.6-0.1-0.5-0.5-0.6-0.8c-0.6-1.7-1.2-3.4-1.9-5.1c-0.3-0.8-0.1-1.3,0.9-1.9
				C532.8,518.8,538.7,515.3,544.5,511.9C544.6,511.9,544.5,511.9,544.5,511.9z"/>
		</g>
	</g>
	<g>
		<path fill="#D89E0E" stroke="#D89E0E" stroke-width="18" stroke-miterlimit="10" d="M628.8,488.5c36.9,21.3,36.9,55.8,0,77.1
			c-38,22-95.5,22-133.5,0c-36.9-21.3-36.9-55.8,0-77.1C532.1,467.2,591.9,467.2,628.8,488.5z"/>
		<path fill="#F4A72C" stroke="#FFCE00" stroke-width="18" stroke-miterlimit="10" d="M629.2,475.9c36.9,21.3,36.9,55.8,0,77.1
			c-36.9,21.3-96.6,21.3-133.5,0s-36.9-55.8,0-77.1S592.3,454.6,629.2,475.9z"/>
		<g>
			<path fill="#FFCE00" d="M534.5,492.9c5.9-3.4,11.9-6.8,17.7-10.3c3.2-1.9,6.6-3.7,9.6-5.7c1.1-0.7,1.4-0.7,1.8,0.3
				c0.7,1.8,1.4,3.6,2.1,5.3c0.3,0.6-0.1,1-0.8,1.5c-3.4,2-6.8,4-10.2,6.1c-0.3,0.2-0.8,0.3-0.7,0.5c0.1,0.3,0.7,0.2,1.2,0.3
				c2.7,0.2,5.3,0.7,7.6,1.6c1.1,0.4,1.8,0.4,2.8-0.2c3.8-2.2,7.6-4.4,11.5-6.6c0.3-0.2,0.6-0.6,1.2-0.4c0.5,0.1,0.3,0.5,0.4,0.7
				c0.7,1.8,1.4,3.6,2.2,5.4c0.3,0.6,0.1,1-0.7,1.4c-2.2,1.3-4.4,2.6-6.6,3.9c-0.9,0.5-0.9,0.9-0.2,1.5c5.9,5.3,5.5,10.9,1.7,16.5
				c-1.7,2.6-4.3,4.9-7.3,7c-0.7,0.5-0.8,0.7,0.6,0.8c6.7,0.4,13.3,1,20,1.4c7.3,0.5,14.6,0.9,21.9,1.3c6.6,0.4,13.3,0.8,19.9,1.3
				c0.4,0,0.9,0,1.1,0.2c0.1,0.2-0.3,0.3-0.5,0.5c-3.5,2-7.1,4.1-10.6,6.1c-0.8,0.5-1.6,0.7-2.8,0.6c-11.1-0.8-22.3-1.6-33.4-2.3
				c-8.6-0.5-17.2-1-25.9-1.5c-1.1-0.1-2-0.3-2.8-0.8c-1.6-1-3.3-2-5-2.9c-1-0.5-0.9-0.9,0-1.5c2.8-1.6,5.6-3.1,8.1-4.8
				c3.7-2.4,6.6-5.2,7.5-8.5c0.7-2.7-0.3-5.3-3-7.6c-0.8-0.7-1.4-0.7-2.3-0.1c-8.4,4.9-16.8,9.7-25.2,14.5c-0.3,0.2-0.6,0.3-0.9,0.5
				c-0.3,0.2-0.6,0.5-1.1,0.4c-0.5-0.1-0.5-0.4-0.6-0.7c-0.7-1.8-1.3-3.7-2.1-5.5c-0.2-0.6,0-1,0.8-1.5c6.7-3.9,13.4-7.8,20.1-11.6
				c0.3-0.2,1-0.4,0.8-0.7c-0.2-0.3-0.8-0.2-1.2-0.3c-3.3-0.5-6.6-0.3-9.7,0.5c-5,1.3-9.2,3.2-13,5.5c-3,1.7-6,3.5-9,5.2
				c-0.3,0.2-0.6,0.5-1.1,0.4c-0.6-0.1-0.5-0.5-0.6-0.8c-0.6-1.7-1.2-3.4-1.9-5.1c-0.3-0.8-0.1-1.3,0.9-1.9
				C522.8,499.8,528.7,496.3,534.5,492.9C534.6,492.9,534.5,492.9,534.5,492.9z"/>
		</g>
	</g>
	<g>
		<path fill="#D89E0E" stroke="#D89E0E" stroke-width="18" stroke-miterlimit="10" d="M650.8,475.5c36.9,21.3,36.9,55.8,0,77.1
			c-38,22-95.5,22-133.5,0c-36.9-21.3-36.9-55.8,0-77.1C554.1,454.2,613.9,454.2,650.8,475.5z"/>
		<path fill="#F4A72C" stroke="#FFCE00" stroke-width="18" stroke-miterlimit="10" d="M651.2,462.9c36.9,21.3,36.9,55.8,0,77.1
			c-36.9,21.3-96.6,21.3-133.5,0c-36.9-21.3-36.9-55.8,0-77.1C554.5,441.6,614.3,441.6,651.2,462.9z"/>
		<g>
			<path fill="#FFCE00" d="M556.5,479.9c5.9-3.4,11.9-6.8,17.7-10.3c3.2-1.9,6.6-3.7,9.6-5.7c1.1-0.7,1.4-0.7,1.8,0.3
				c0.7,1.8,1.4,3.6,2.1,5.3c0.3,0.6-0.1,1-0.8,1.5c-3.4,2-6.8,4-10.2,6.1c-0.3,0.2-0.8,0.3-0.7,0.5c0.1,0.3,0.7,0.2,1.2,0.3
				c2.7,0.2,5.3,0.7,7.6,1.6c1.1,0.4,1.8,0.4,2.8-0.2c3.8-2.2,7.6-4.4,11.5-6.6c0.3-0.2,0.6-0.6,1.2-0.4c0.5,0.1,0.3,0.5,0.4,0.7
				c0.7,1.8,1.4,3.6,2.2,5.4c0.3,0.6,0.1,1-0.7,1.4c-2.2,1.3-4.4,2.6-6.6,3.9c-0.9,0.5-0.9,0.9-0.2,1.5c5.9,5.3,5.5,10.9,1.7,16.5
				c-1.7,2.6-4.3,4.9-7.3,7c-0.7,0.5-0.8,0.7,0.6,0.8c6.7,0.4,13.3,1,20,1.4c7.3,0.5,14.6,0.9,21.9,1.3c6.6,0.4,13.3,0.8,19.9,1.3
				c0.4,0,0.9,0,1.1,0.2c0.1,0.2-0.3,0.3-0.5,0.5c-3.5,2-7.1,4.1-10.6,6.1c-0.8,0.5-1.6,0.7-2.8,0.6c-11.1-0.8-22.3-1.6-33.4-2.3
				c-8.6-0.5-17.2-1-25.9-1.5c-1.1-0.1-2-0.3-2.8-0.8c-1.6-1-3.3-2-5-2.9c-1-0.5-0.9-0.9,0-1.5c2.8-1.6,5.6-3.1,8.1-4.8
				c3.7-2.4,6.6-5.2,7.5-8.5c0.7-2.7-0.3-5.3-3-7.6c-0.8-0.7-1.4-0.7-2.3-0.1c-8.4,4.9-16.8,9.7-25.2,14.5c-0.3,0.2-0.6,0.3-0.9,0.5
				c-0.3,0.2-0.6,0.5-1.1,0.4c-0.5-0.1-0.5-0.4-0.6-0.7c-0.7-1.8-1.3-3.7-2.1-5.5c-0.2-0.6,0-1,0.8-1.5c6.7-3.9,13.4-7.8,20.1-11.6
				c0.3-0.2,1-0.4,0.8-0.7c-0.2-0.3-0.8-0.2-1.2-0.3c-3.3-0.5-6.6-0.3-9.7,0.5c-5,1.3-9.2,3.2-13,5.5c-3,1.7-6,3.5-9,5.2
				c-0.3,0.2-0.6,0.5-1.1,0.4c-0.6-0.1-0.5-0.5-0.6-0.8c-0.6-1.7-1.2-3.4-1.9-5.1c-0.3-0.8-0.1-1.3,0.9-1.9
				C544.8,486.8,550.7,483.3,556.5,479.9C556.6,479.9,556.5,479.9,556.5,479.9z"/>
		</g>
	</g>
</g>
</svg>
