<?xml version="1.0" encoding="utf-8"?>
<!-- Generator: Adobe Illustrator 18.0.0, SVG Export Plug-In . SVG Version: 6.00 Build 0)  -->
<!DOCTYPE svg PUBLIC "-//W3C//DTD SVG 1.1//EN" "http://www.w3.org/Graphics/SVG/1.1/DTD/svg11.dtd">
<svg version="1.1" id="Layer_1" xmlns="http://www.w3.org/2000/svg" xmlns:xlink="http://www.w3.org/1999/xlink" x="0px" y="0px"
	 viewBox="0 0 176.2 216.6" enable-background="new 0 0 176.2 216.6" xml:space="preserve">
<path fill="#A07A2D" d="M176.2,154.6c0-52.7-37-116.7-82.6-143.1C48-14.8,11,6.5,11,59.2s37,116.7,82.6,143.1
	c15.8,9.1,30.5,12.5,43.1,10.9c-3.5,1.4-6.8,2.3-6.8,2.3c4.2-0.5,14.4-3.9,14.4-3.9l0,0C163.7,205.3,176.2,185.3,176.2,154.6z"/>
<path fill="#FFC031" d="M158.4,153.6c0,48.4-34,68-75.9,43.8S6.5,114.4,6.5,66s34-68,75.9-43.8S158.4,105.2,158.4,153.6z"/>
<path fill="#FFC031" d="M165.2,157.6c0,52.7-37,74-82.6,47.7S0,114.9,0,62.2c0-52.7,37-74,82.6-47.7S165.2,104.9,165.2,157.6z"/>
<path fill="#4C2907" d="M21.6,61.8c0,0,11-9.9,21.7-10.7c6.8,0.4,0-6,0-6S27.8,39.1,20,53.4C16.8,62.9,21.6,61.8,21.6,61.8z"/>
<path fill="#643B0B" d="M19.6,61.8c0,0,11-9.9,21.7-10.7c6.8,0.4,0-6,0-6S25.8,39.1,18,53.4C14.8,62.9,19.6,61.8,19.6,61.8z"/>
<path fill="#4C2907" d="M142.9,128.8c0,0-11-22.6-21.7-35.7c-6.8-7.4,0-6,0-6s15.4,11.9,23.2,35.1
	C147.6,135.5,142.9,128.8,142.9,128.8z"/>
<path fill="#643B0B" d="M140.9,128.8c0,0-11-22.6-21.7-35.7c-6.8-7.4,0-6,0-6s15.4,11.9,23.2,35.1
	C145.6,135.5,140.9,128.8,140.9,128.8z"/>
<path fill="#4C2907" d="M41.1,76.6c0,0,8.5-0.2,21.9,12.7c5.8,4.9,11.6,9.8,7.5,0.5C66.4,80.6,58.9,73.8,50.3,68
	c-8.7-5.8-16-2.3-16-2.3s-1.1,0.7-2.7,1.9c-1.6,1.2,0.5,5.7,2.1,7.1C35.1,76.2,38.1,76.1,41.1,76.6z"/>
<path fill="#643B0B" d="M36.1,76.6c0,0,8.5-0.2,21.9,12.7c5.8,4.9,11.6,9.8,7.5,0.5C61.4,80.6,53.9,73.8,45.3,68
	c-8.7-5.8-16-2.3-16-2.3s-1.1,0.7-2.7,1.9c-1.6,1.2,0.5,5.7,2.1,7.1C30.1,76.2,33.1,76.1,36.1,76.6z"/>
<path fill="#4C2907" d="M125.9,125.6c0,0-8.5-10-21.9-12.7c-5.8-1.8-11.6-3.6-7.5-8.1c4.1-4.5,11.6-2.7,20.2,1.6
	c8.7,4.3,16,16.2,16,16.2s1.1,2,2.7,5.1c1.6,3.1-0.5,5.1-2.1,4.7C131.8,132,128.8,128.5,125.9,125.6z"/>
<path fill="#4F2C0A" d="M82.4,140.7c-28.7-16.6-56-44-54.3-39.1c18.5,68.9,54.3,85.7,54.3,85.7s35.8,24.5,54.3-23
	C138.5,161.4,111.2,157.3,82.4,140.7z"/>
<path fill="#643B0B" d="M76.4,140.7c-28.7-16.6-56-44-54.3-39.1c18.5,68.9,54.3,85.7,54.3,85.7s35.8,24.5,54.3-23
	C132.5,161.4,105.2,157.3,76.4,140.7z"/>
<path fill="#999898" d="M28.6,122.1c0,0,34.7,42.8,95.5,55.4l1.8-2.8c0,0-44.3-2.6-97.9-56.2C28,118.5,28.1,120.7,28.6,122.1z"/>
<path fill="#F4F4F4" d="M125.9,174.7c1.7-3,3.3-6.4,4.8-10.2c1.7-3-25.6-7.1-54.3-23.7s-56-44-54.3-39.1c1.5,5.6,3.1,10.9,4.8,15.8
	C27,117.6,71.7,166.7,125.9,174.7z"/>
<path fill="#F4F4F4" d="M125.9,174.7c1.7-3,3.3-6.4,4.8-10.2c1.7-3-25.6-7.1-54.3-23.7s-56-44-54.3-39.1c1.5,5.6,3.1,10.9,4.8,15.8
	C27,117.6,71.7,166.7,125.9,174.7z"/>
<path fill="#0D5D99" d="M47.6,78.3c0,0-16,4-24.6,5.8c-12,5.2-6,22.6-2.1,28.6s17.8,20.5,25.8,9.2c2.2-3.4,2.9-19.3,2.9-19.3
	L51.4,83C51.4,83,51.6,78.5,47.6,78.3z"/>
<path fill="#0C67C8" d="M43.6,78.3c0,0-16,4-24.6,5.8c-12,5.2-6,22.6-2.1,28.6s17.8,20.5,25.8,9.2c2.2-3.4,2.9-19.3,2.9-19.3
	L47.4,83C47.4,83,47.6,78.5,43.6,78.3z"/>
<path fill="#2091D7" d="M39,85.8c0,0-9.6,2.4-14.7,3.5c-7.2,3.1-3.6,13.6-1.2,17.2c2.3,3.6,10.7,12.3,15.5,5.5
	c1.3-2,1.7-11.6,1.7-11.6l1-11.8C41.3,88.7,41.4,86,39,85.8z"/>
<path fill="#178EBC" d="M39,85.8c0,0-9.6,2.4-14.7,3.5c-7.2,3.1-3.6,13.6-1.2,17.2c2.3,3.6,10.7,12.3,15.5,5.5
	c1.3-2,1.7-11.6,1.7-11.6l1-11.8C41.3,88.7,41.4,86,39,85.8z"/>
<path fill="#2091D7" d="M36,85.8c0,0-9.6,2.4-14.7,3.5c-7.2,3.1-3.6,13.6-1.2,17.2c2.3,3.6,10.7,12.3,15.5,5.5
	c1.3-2,1.7-11.6,1.7-11.6l1-11.8C38.3,88.7,38.4,86,36,85.8z"/>
<path fill="#643B0B" d="M121.9,125.6c0,0-8.5-10-21.9-12.7c-5.8-1.8-11.6-3.6-7.5-8.1c4.1-4.5,11.6-2.7,20.2,1.6
	c8.7,4.3,16,16.2,16,16.2s1.1,2,2.7,5.1c1.6,3.1-0.5,5.1-2.1,4.7C127.8,132,124.8,128.5,121.9,125.6z"/>
<path fill="#A07A2D" d="M57.9,0.2c0,0-11-2.1-29.4,6.4c0,0,8.5-3.9,18.5-3.4L57.9,0.2z"/>
<path fill="#4C2907" d="M118.2,86.9c0,0,1.2-0.4,3,0.1l0.2,0.5L118.2,86.9z"/>
<path fill="#4C2907" d="M142.9,130.5h2c0,0,0.6-0.2,0.6-1l-2-0.1C143.5,129.3,143.5,130.3,142.9,130.5z"/>
<path fill="#4C2907" d="M19.6,61.8c0,0,1.6,0.3,2,0l-0.8-1C20.8,60.7,19.6,61.6,19.6,61.8z"/>
<path fill="#4C2907" d="M44.7,65.4c0,0-7-2.1-14.2-0.1c0,0,5.9-1.3,10.4,0.5C45.4,67.6,44.7,65.4,44.7,65.4z"/>
<path fill="#4C2907" d="M66.4,95h5l-3.3-4.3l-1.9,0.7C66.1,91.4,67.3,93.9,66.4,95z"/>
<path fill="#4C2907" d="M97.9,102.2c0,0,5.4-0.1,6.9,0.1v0.9C104.8,103.2,100.5,102.2,97.9,102.2z"/>
<path fill="#4C2907" d="M129.3,132.4l4.4,0l0.5-2.7l-2.6,1.3C131.7,131.1,131.1,132.5,129.3,132.4z"/>
<g>
	<path fill="#0D5D99" d="M124,124c0,0,16,22.4,24.6,34.1c12,19,6,29.5,2.1,31c-3.9,1.5-17.8-0.1-25.8-20.6
		c-2.2-5.9-2.9-22.6-2.9-22.6l-1.7-21.6C120.3,124.3,120,119.5,124,124z"/>
	<path fill="#0C67C8" d="M120,125c0,0,16,22.4,24.6,34.1c12,19,6,29.5,2.1,31c-3.9,1.5-17.8-0.1-25.8-20.6
		c-2.2-5.9-2.9-22.6-2.9-22.6l-1.7-21.6C116.3,125.3,116,120.5,120,125z"/>
	<path fill="#0D5D99" d="M117,123.2l4-1.1l2.6,3.4l-2.8,0.5C120.8,126,118.5,122.9,117,123.2z"/>
	<path fill="#0D5D99" d="M150.7,189.1l-5.3,1.3c0,0,2.1-0.1,4-2.8L150.7,189.1z"/>
</g>
<path fill="#178EBC" d="M125.6,141.1c0,0,9.6,13.5,14.7,20.5c7.2,11.4,3.6,17.7,1.2,18.6c-2.3,0.9-10.7,0-15.5-12.4
	c-1.3-3.5-1.7-13.6-1.7-13.6l-1-12.9C123.4,141.3,123.2,138.4,125.6,141.1z"/>
<path fill="#2091D7" d="M122.6,141.1c0,0,9.6,13.5,14.7,20.5c7.2,11.4,3.6,17.7,1.2,18.6c-2.3,0.9-10.7,0-15.5-12.4
	c-1.3-3.5-1.7-13.6-1.7-13.6l-1-12.9C120.4,141.3,120.2,138.4,122.6,141.1z"/>
<path fill="#178EBC" d="M120.9,140h3.3l-0.7,2.2C123.4,142.2,122,139.9,120.9,140z"/>
<path fill="#178EBC" d="M141,180.4c0,0-3.3,0.3-3.9,0.1c0,0,1.7,0.1,3-1.4L141,180.4z"/>
<path fill="#0D5D99" d="M43.8,78.3h4l0.1,1.1l-1.8,0C46.1,79.3,45.3,78.4,43.8,78.3z"/>
<path fill="#0D5D99" d="M38.4,126h-2.3c0,0,0.8,0,1.5-0.2L38.4,126z"/>
<path fill="#178EBC" d="M36,85.8h3l-1.7,0.4C37.3,86.3,37.3,86.1,36,85.8z"/>
<path fill="#178EBC" d="M33.7,114.5h-2.6c0,0,1,0,1.5-0.2L33.7,114.5z"/>
<path fill="#4F2C0A" d="M102.9,193.7l-6.4,0c0,0,3.9,0.1,6.4-0.5L102.9,193.7z"/>
<path fill="none" d="M31.4,43.8"/>
<path fill="none" d="M1.4,13.8"/>
<g>
	<g>
		<circle fill="#FCE740" cx="-318.2" cy="43.8" r="114.4"/>
		<path fill="#FED700" d="M-298.6-68.8c0.6,0.2,47.8,18.9,49.7,83.8c1.8,65.3-31.3,122-123.4,125.2c0,0-6,0.7-8-0.4
			c17.9,11.6,39.3,18.4,62.2,18.4c63.2,0,114.4-51.2,114.4-114.4C-203.9-12.7-244.8-59.6-298.6-68.8z"/>
		<path fill="#151422" d="M-333.3,44.7c8.9,0,5.2,27.8-1.4,27.8S-342.2,44.7-333.3,44.7z"/>
		<path fill="#151422" d="M-414.4,32c-5.1,0-8.3,19.7-2.9,24.8C-409.7,58.3-409.3,32-414.4,32z"/>
		<path fill="#151422" d="M-341.3,122.6c0,0-30.9,15.7-57.7-12c-7-7-7.6-0.4-4.5,2.2c0,0,8.9,9.9,23.1,17.7c14.1,7.7,37,3,42.7,0
			S-333,119.7-341.3,122.6z"/>
	</g>
	<path fill="#151422" d="M-363,127c0,0,20.2,1,39.4-14.9c7-6.3,8.6,5,3.6,9c-4.9,4.1-21.8,14.4-43.1,13.5V127z"/>
</g>
</svg>
