<?xml version="1.0" encoding="utf-8"?>
<!-- Generator: Adobe Illustrator 18.0.0, SVG Export Plug-In . SVG Version: 6.00 Build 0)  -->
<!DOCTYPE svg PUBLIC "-//W3C//DTD SVG 1.1//EN" "http://www.w3.org/Graphics/SVG/1.1/DTD/svg11.dtd">
<svg version="1.1" id="Layer_1" xmlns="http://www.w3.org/2000/svg" xmlns:xlink="http://www.w3.org/1999/xlink" x="0px" y="0px"
	 viewBox="0 0 228.7 228.7" enable-background="new 0 0 228.7 228.7" xml:space="preserve">
<g>
	<g>
		<circle fill="#FCE740" cx="114.4" cy="114.4" r="114.4"/>
		<path fill="#FED700" d="M133.9,1.7c0.6,0.2,47.8,18.9,49.7,83.8c1.8,65.3-31.3,122-123.4,125.2c0,0-6,0.7-8-0.4
			c17.9,11.6,39.3,18.4,62.2,18.4c63.2,0,114.4-51.2,114.4-114.4C228.7,57.9,187.7,11,133.9,1.7z"/>
		<path fill="#151422" d="M99.2,115.2c8.9,0,5.2,27.8-1.4,27.8S90.3,115.2,99.2,115.2z"/>
		<path fill="#151422" d="M18.2,102.5c-5.1,0-8.3,19.7-2.9,24.8C22.8,128.9,23.3,102.5,18.2,102.5z"/>
		<path fill="#151422" d="M91.3,193.1c0,0-30.9,15.7-57.7-12c-7-7-7.6-0.4-4.5,2.2c0,0,8.9,9.9,23.1,17.7s37,3,42.7,0
			C100.6,198,99.6,190.2,91.3,193.1z"/>
	</g>
	<path fill="#151422" d="M69.5,197.5c0,0,20.2,1,39.4-14.9c7-6.3,8.6,5,3.6,9S90.8,206,69.5,205.2V197.5z"/>
</g>
</svg>
