<?xml version="1.0" encoding="utf-8"?>
<!-- Generator: Adobe Illustrator 18.0.0, SVG Export Plug-In . SVG Version: 6.00 Build 0)  -->
<!DOCTYPE svg PUBLIC "-//W3C//DTD SVG 1.1//EN" "http://www.w3.org/Graphics/SVG/1.1/DTD/svg11.dtd">
<svg version="1.1" id="Layer_1" xmlns="http://www.w3.org/2000/svg" xmlns:xlink="http://www.w3.org/1999/xlink" x="0px" y="0px"
	 viewBox="0 0 549 421.9" enable-background="new 0 0 549 421.9" xml:space="preserve">
<g>
	<polygon fill="#909195" points="0,220.7 348.4,421.9 549,302.2 203.9,103 	"/>
	<g>
		<g>
			<polygon fill="#FEFEFE" points="0,207.7 348.4,408.9 549,289.2 203.9,90 			"/>
			<polygon fill="#C0C1C3" points="348.4,408.9 348.4,421.9 549,302.2 549,289.2 			"/>
			<polygon fill="#95969A" points="0,207.7 0,220.7 348.4,421.9 348.4,408.9 			"/>
		</g>
		<g>
			<polygon fill="#FEFEFE" points="0,194.7 348.4,395.9 549,276.2 203.9,77 			"/>
			<polygon fill="#98999D" points="348.4,395.9 348.4,408.9 549,289.2 549,276.2 			"/>
			<polygon fill="#818286" points="0,194.7 0,207.7 348.4,408.9 348.4,395.9 			"/>
		</g>
	</g>
	<g>
		<g>
			<polygon fill="#FEFEFE" points="0,181.7 348.4,382.9 549,263.2 203.9,64 			"/>
			<polygon fill="#C0C1C3" points="348.4,382.9 348.4,395.9 549,276.2 549,263.2 			"/>
			<polygon fill="#95969A" points="0,181.7 0,194.7 348.4,395.9 348.4,382.9 			"/>
		</g>
		<g>
			<polygon fill="#FEFEFE" points="0,168.7 348.4,369.9 549,250.2 203.9,51 			"/>
			<polygon fill="#98999D" points="348.4,369.9 348.4,382.9 549,263.2 549,250.2 			"/>
			<polygon fill="#818286" points="0,168.7 0,181.7 348.4,382.9 348.4,369.9 			"/>
		</g>
	</g>
	<g>
		<g>
			<polygon fill="#FEFEFE" points="0,155.7 348.4,356.9 549,237.2 203.9,38 			"/>
			<polygon fill="#C0C1C3" points="348.4,356.9 348.4,369.9 549,250.2 549,237.2 			"/>
			<polygon fill="#95969A" points="0,155.7 0,168.7 348.4,369.9 348.4,356.9 			"/>
		</g>
		<g>
			<polygon fill="#FEFEFE" points="0,142.7 348.4,343.9 549,224.2 203.9,25 			"/>
			<polygon fill="#98999D" points="348.4,343.9 348.4,356.9 549,237.2 549,224.2 			"/>
			<polygon fill="#818286" points="0,142.7 0,155.7 348.4,356.9 348.4,343.9 			"/>
		</g>
	</g>
	<g>
		<g>
			<polygon fill="#FEFEFE" points="0,130.7 348.4,331.9 549,212.2 203.9,13 			"/>
			<polygon fill="#C0C1C3" points="348.4,331.9 348.4,344.9 549,225.2 549,212.2 			"/>
			<polygon fill="#95969A" points="0,130.7 0,143.7 348.4,344.9 348.4,331.9 			"/>
		</g>
		<g>
			<polygon fill="#FEFEFE" points="0,117.7 348.4,318.9 549,199.2 203.9,0 			"/>
			<polygon fill="#98999D" points="348.4,318.9 348.4,331.9 549,212.2 549,199.2 			"/>
			<polygon fill="#818286" points="0,117.7 0,130.7 348.4,331.9 348.4,318.9 			"/>
		</g>
	</g>
	<polygon fill="#D3D4D6" points="107.3,162.5 202.2,217.3 268.6,179 173.7,124.2 	"/>
	<g>
		<text transform="matrix(0.866 -0.5 0.866 0.5 105.1792 104.314)"><tspan x="0" y="0" fill="#818286" font-family="'Bebas'" font-size="32.3996">Paper   </tspan><tspan x="-50.2" y="38.9" fill="#818286" font-family="'Bebas'" font-size="32.3996">presentation</tspan></text>
	</g>
	<g>
		<polygon fill="#D3D4D6" points="293.7,69.5 290.9,67.9 290.9,67.9 289.6,67.2 199.6,119.2 202.3,120.7 202.3,120.7 203.6,121.5 		
			"/>
		<polygon fill="#D3D4D6" points="303.3,75 300.5,73.4 300.5,73.4 299.2,72.6 209.2,124.6 211.9,126.2 211.9,126.2 213.2,127 		"/>
		<polygon fill="#D3D4D6" points="312.9,80.5 310.2,78.9 310.2,78.9 308.9,78.2 218.8,130.2 221.5,131.7 221.5,131.7 222.8,132.5 		
			"/>
	</g>
	<g>
		<polygon fill="#D3D4D6" points="322.7,86.5 319.9,84.9 319.9,84.9 318.6,84.2 228.6,136.2 231.3,137.7 231.3,137.7 232.6,138.5 		
			"/>
		<polygon fill="#D3D4D6" points="332.3,92 329.5,90.4 329.5,90.4 328.2,89.6 238.2,141.6 240.9,143.2 240.9,143.2 242.2,144 		"/>
		<polygon fill="#D3D4D6" points="341.9,97.5 339.2,95.9 339.2,95.9 337.9,95.2 247.8,147.2 250.5,148.7 250.5,148.7 251.8,149.5 		
			"/>
	</g>
	<g>
		<polygon fill="#D3D4D6" points="351.7,103.5 348.9,101.9 348.9,101.9 347.6,101.2 257.6,153.2 260.3,154.7 260.3,154.7 
			261.6,155.5 		"/>
		<polygon fill="#D3D4D6" points="361.3,109 358.5,107.4 358.5,107.4 357.2,106.6 267.2,158.6 269.9,160.2 269.9,160.2 271.2,161 		
			"/>
		<polygon fill="#D3D4D6" points="370.9,114.5 368.2,112.9 368.2,112.9 366.9,112.2 276.8,164.2 279.5,165.7 279.5,165.7 
			280.8,166.5 		"/>
	</g>
	<polygon fill="#D3D4D6" points="379.7,120.5 376.9,118.9 376.9,118.9 375.6,118.2 285.6,170.2 288.3,171.7 288.3,171.7 
		289.6,172.5 	"/>
	<g>
		<g>
			<polygon fill="#D3D4D6" points="389.3,126 386.5,124.4 386.5,124.4 385.2,123.6 303.4,170.9 303.4,170.8 213.3,222.8 
				216.1,224.4 216.1,224.4 217.4,225.2 299.2,177.9 299.2,178 			"/>
			<polygon fill="#D3D4D6" points="398.9,131.5 396.2,129.9 396.2,129.9 394.9,129.2 313.1,176.4 313.1,176.4 223,228.4 
				225.7,229.9 225.7,229.9 227,230.7 308.8,183.5 308.8,183.5 			"/>
		</g>
		<g>
			<polygon fill="#D3D4D6" points="407.3,138 404.5,136.4 404.5,136.4 403.2,135.6 321.4,182.9 321.4,182.8 231.3,234.8 
				234.1,236.4 234.1,236.4 235.4,237.2 317.2,189.9 317.2,190 			"/>
			<polygon fill="#D3D4D6" points="416.9,143.5 414.2,141.9 414.2,141.9 412.9,141.2 331.1,188.4 331.1,188.4 241,240.4 
				243.7,241.9 243.7,241.9 245,242.7 326.8,195.5 326.8,195.5 			"/>
		</g>
	</g>
	<g>
		<g>
			<polygon fill="#D3D4D6" points="428.3,149 425.5,147.4 425.5,147.4 424.2,146.6 342.4,193.9 342.4,193.8 252.3,245.8 
				255.1,247.4 255.1,247.4 256.4,248.2 338.2,200.9 338.2,201 			"/>
			<polygon fill="#D3D4D6" points="437.9,154.5 435.2,152.9 435.2,152.9 433.9,152.2 352.1,199.4 352.1,199.4 262,251.4 
				264.7,252.9 264.7,252.9 266,253.7 347.8,206.5 347.8,206.5 			"/>
		</g>
		<g>
			<polygon fill="#D3D4D6" points="446.3,161 443.5,159.4 443.5,159.4 442.2,158.6 360.4,205.9 360.4,205.8 270.3,257.8 
				273.1,259.4 273.1,259.4 274.4,260.2 356.2,212.9 356.2,213 			"/>
			<polygon fill="#D3D4D6" points="455.9,166.5 453.2,164.9 453.2,164.9 451.9,164.2 370.1,211.4 370.1,211.4 280,263.4 
				282.7,264.9 282.7,264.9 284,265.7 365.8,218.5 365.8,218.5 			"/>
		</g>
	</g>
	<g>
		<polygon fill="#D3D4D6" points="467.3,171 464.5,169.4 464.5,169.4 463.2,168.6 381.4,215.9 381.4,215.8 291.3,267.8 294.1,269.4 
			294.1,269.4 295.4,270.2 377.2,222.9 377.2,223 		"/>
		<polygon fill="#D3D4D6" points="476.9,176.5 474.2,174.9 474.2,174.9 472.9,174.2 391.1,221.4 391.1,221.4 301,273.4 303.7,274.9 
			303.7,274.9 305,275.7 386.8,228.5 386.8,228.5 		"/>
	</g>
	<g>
		<polygon fill="#D3D4D6" points="485.3,183 482.5,181.4 482.5,181.4 481.2,180.6 399.4,227.9 399.4,227.8 309.3,279.8 312.1,281.4 
			312.1,281.4 313.4,282.2 395.2,234.9 395.2,235 		"/>
		<polygon fill="#D3D4D6" points="494.9,188.5 492.2,186.9 492.2,186.9 490.9,186.2 409.1,233.4 409.1,233.4 319,285.4 321.7,286.9 
			321.7,286.9 323,287.7 404.8,240.5 404.8,240.5 		"/>
	</g>
	<g>
		<polygon fill="#D3D4D6" points="507.3,194 504.5,192.4 504.5,192.4 503.2,191.6 421.4,238.9 421.4,238.8 331.3,290.8 334.1,292.4 
			334.1,292.4 335.4,293.2 417.2,245.9 417.2,246 		"/>
		<polygon fill="#D3D4D6" points="516.9,199.5 514.2,197.9 514.2,197.9 512.9,197.2 431.1,244.4 431.1,244.4 341,296.4 343.7,297.9 
			343.7,297.9 345,298.7 426.8,251.5 426.8,251.5 		"/>
	</g>
</g>
<g>
	<g>
		<path fill="#818286" d="M159.1,180.8c0-0.2-0.3-0.3-0.4-0.4c-1.6-1.4-1.3-3.1,0.7-4.2c0.4-0.2,0.7-0.2,1.2-0.1
			c2.1,0.4,4.2,0.8,6.3,1.2c0.1,0,0.3,0.1,0.5,0c-0.2-0.5-0.4-1.1-0.6-1.6c0-0.1-0.3-0.2-0.5-0.2c-1-0.1-1.7-0.4-2.3-0.8
			c-0.5-0.3-0.5-0.6-0.1-0.9c0.5-0.4,1-0.7,1.6-0.9c0.5-0.2,1-0.2,1.5,0c0.7,0.4,1.2,0.8,1.4,1.3c0.1,0.3,0.3,0.4,0.7,0.4
			c0.7,0.1,1.5,0.1,2.2,0.2c0.4,0,0.4,0,0.3-0.2c-0.7-1.2-1.4-2.4-2.1-3.6c-0.2-0.3-0.1-0.6,0.3-0.8c4.2-2.4,8.4-4.8,12.5-7.2
			c1.3-0.8,3.5-0.8,4.8,0c1.2,0.7,1.2,2-0.1,2.7c-3.7,2.1-7.4,4.3-11.1,6.4c-0.5,0.3-0.5,0.3,0,0.6c8,4.6,16,9.2,24,13.8
			c0.4,0.2,0.7,0.4,1,0.7c1,0.8,1,1.7,0.1,2.6c-0.1,0.1-0.2,0.1-0.2,0.3c-0.1,0-0.1,0.1-0.2,0.1c-0.2,0-0.3,0.1-0.3,0.2
			c-1.8,1-3.6,2.1-5.4,3.1c-0.7,0.3-1.5,0.6-2.5,0.5c-1.2-0.1-2.2-0.3-3-0.8c-3.8-2.2-7.6-4.4-11.3-6.5c-0.9-0.5-1.1-0.5-1.9-0.1
			c-0.7,0.4-1.5,0.7-2.5,0.8c-1.5,0.2-3,0.1-4.2-0.5c-0.1,0-0.1-0.1-0.2-0.1c-0.1-0.1-0.2-0.1-0.3-0.2c-0.2-0.2-0.5-0.3-0.8-0.5
			c-2.1-1.2-4.2-2.4-6.2-3.6c-0.7-0.5-1.5-1-2.4-1.4C159.4,180.9,159.3,180.8,159.1,180.8z"/>
		<path fill="#818286" d="M207.6,185.9C207.6,185.9,207.6,185.9,207.6,185.9c-2.1,0.5-3.6-0.2-3.3-1.5c0.5-2.2,1.1-4.4,1.6-6.5
			c0.1-0.4-0.1-0.7-0.6-0.9c-0.6-0.3-1.2-0.6-1.7-1c-0.3-0.2-0.4-0.2-0.7,0c-2.3,1.3-4.7,2.7-7,4c-0.3,0.2-0.5,0.2-0.8,0
			c-0.8-0.5-1.5-0.9-2.3-1.3c-0.3-0.2-0.3-0.3,0-0.5c7.2-4.1,14.4-8.3,21.5-12.4c0.2-0.1,0.4-0.2,0.6-0.4c0.3-0.3,0.3-0.5,0-0.7
			c-0.1-0.1-0.3-0.2-0.5-0.3c-8.8-5.1-17.5-10.1-26.3-15.2c-0.5-0.3-0.4-0.3-0.9,0c-6.1,3.5-12.3,7.1-18.4,10.6c-2,1.2-4,2.3-6,3.5
			c-0.4,0.3-0.9,0.3-1.5,0.2c-3.4-0.6-6.7-0.3-9.6,0.9c-0.1,0.1-0.2,0.1-0.4,0.1c12-6.9,24-13.9,36-20.8c0.5-0.2,0.9-0.4,1.5-0.4
			c0.8,0,1.4,0.1,2,0.4c0.4,0.2,0.8,0.5,1.2,0.7c0.9,0.9,0.8,1.6-0.4,2.4c-0.4,0.3-0.4,0.4,0,0.7c0.2,0.1,0.3,0.2,0.5,0.3
			c8.8,5.1,17.6,10.2,26.4,15.3c0.8,0.5,1.3,1,1.5,1.6c0.3,0.9-0.3,1.7-1.5,2.4c-3.7,2.1-7.3,4.3-11,6.4c-1,0.6-1,0.6,0,1.2
			c0.2,0.1,0.5,0.3,0.7,0.4c0.5,0.3,1,0.4,1.7,0.3c2.2-0.2,4.5-0.4,6.7-0.6c1.6-0.1,3.1-0.3,4.7-0.4c1.5-0.1,2.7,0.6,2.7,1.5
			c0,0.3-0.4,0.4-0.5,0.6c-0.2,0.1-0.5,0.3-0.7,0.4c-0.6,0.3-1.3,0.3-2.1,0.4c-2.2,0.2-4.4,0.4-6.6,0.5c-0.1,0-0.1,0-0.2,0
			c-0.2,0-0.4,0-0.4,0.1c-0.1,0.1,0.1,0.2,0.2,0.3c0.6,0.4,1.2,0.7,1.8,1.1c0.9,0.5,1,1,0.2,1.6c0,0-0.1,0-0.1,0.1
			c-0.2,0.1-0.5,0.3-0.7,0.4c-0.5,0.1-0.9,0.3-1.5,0.3c-0.7-0.1-1.2-0.3-1.6-0.5c-0.5-0.3-1-0.6-1.5-0.8c-0.2-0.1-0.3-0.3-0.6-0.2
			c-0.3,0.1-0.2,0.3-0.2,0.4c-0.3,1.3-0.7,2.6-1,3.9c-0.1,0.4-0.2,0.8-0.7,1.1C208.1,185.6,207.9,185.8,207.6,185.9z"/>
		<path fill="#818286" d="M153.7,166.9c2.7-1.5,6.9-1.4,9.4,0.1c2.5,1.5,2.4,3.9-0.2,5.4c-2.6,1.4-6.8,1.4-9.4-0.1
			C151.2,170.7,151.2,168.3,153.7,166.9z"/>
	</g>
</g>
</svg>
