<svg xmlns="http://www.w3.org/2000/svg" viewBox="0 0 15013 21227" shape-rendering="geometricPrecision" text-rendering="geometricPrecision" image-rendering="optimizeQuality" fill-rule="evenodd" clip-rule="evenodd"><defs><style>.fil5{fill:#001328}.fil4{fill:#1183a2}.fil6{fill:#f9fbd6}.fil2{fill:#f9fafa}.fil2,.fil0{fill-rule:nonzero}.fil0{fill:#02567e}.fil1{fill:#c82c45}.fil1,.fil3{fill-rule:nonzero}.fil3{fill:#f9fbd6}</style></defs><g id="Layer_x0020_1"><g id="_675101369264"><path class="fil0" d="M12905 16610c-18 0-33-14-34-32-1-19 13-34 32-35 372-15 526 187 539 516 32 785-774 2324-1285 3298-231 441-401 765-400 837 0 18-15 33-34 33-18 0-33-15-33-33 0-88 173-418 408-868 508-968 1309-2497 1278-3265-12-288-146-464-471-451z"/><path class="fil1" d="M12912 17215c-18 2-35-10-38-28s9-35 28-38c507-80 643 328 541 1024-99 671-423 1618-846 2649-7 17-26 25-43 18s-25-26-18-43c421-1026 743-1968 841-2634 94-641-22-1018-465-948z"/><path class="fil2" d="M12904 16417h-153v319h153v-319zm-153 1157v-157 157zm0-245l153-5 5-285h-158v290z"/><path class="fil0" d="M12953 7030c10 26-2 55-27 65-25 11-54-1-65-26-549-1300-548-2393-280-3315 268-921 802-1668 1324-2279 18-20 49-23 70-5s24 49 6 70c-515 602-1042 1338-1304 2241-263 902-263 1974 276 3249z"/><path class="fil3" d="M12103 7087c-21 18-52 16-70-5s-15-52 5-70c505-434 443-1068 362-1885-125-1274-293-2983 1505-5110 18-21 49-24 70-6s24 50 6 71c-1770 2094-1605 3779-1481 5035 83 847 147 1503-397 1970z"/><path class="fil1" d="M11273 7082c-18 21-50 23-71 5-20-18-23-49-5-70 1406-1618 1453-2345 1505-3140 47-739 99-1536 1200-3125 16-23 47-29 69-13 23 15 29 46 13 69-1085 1567-1136 2350-1183 3075-52 813-100 1556-1528 3199z"/><path class="fil4" d="M12656 7050h502v284h-502zM11820 7050h502v284h-502zM10984 7050h502v284h-502z"/><g><path class="fil5" d="M317 7650h14379v8088H317z"/><path class="fil6" d="M317 7333h14379c175 0 317 142 317 317v8088c0 175-142 317-317 317H317c-175 0-316-142-316-317V7650c0-175 141-317 316-317zm0 317h14379v8088H317V7650z"/></g><g><path class="fil5" d="M2605 17858h9809c150 0 273-123 273-274v-1651H2332v1651c0 151 123 274 273 274z"/><path class="fil3" d="M2605 17774h9809c52 0 100-21 134-56 34-34 56-81 56-134v-1568H2415v1568c0 53 22 100 56 134 34 35 82 56 134 56zm9809 167H2605c-98 0-187-40-252-105-64-64-105-153-105-252v-1651c0-46 38-83 84-83h10355c46 0 84 37 84 83v1651c0 99-41 188-105 252-65 65-154 105-252 105z"/></g></g></g></svg>