<?xml version="1.0" encoding="utf-8"?>
<!-- Generator: Adobe Illustrator 18.0.0, SVG Export Plug-In . SVG Version: 6.00 Build 0)  -->
<!DOCTYPE svg PUBLIC "-//W3C//DTD SVG 1.1//EN" "http://www.w3.org/Graphics/SVG/1.1/DTD/svg11.dtd">
<svg version="1.1" id="Layer_1" xmlns="http://www.w3.org/2000/svg" xmlns:xlink="http://www.w3.org/1999/xlink" x="0px" y="0px"
	 viewBox="0 0 784.3 699" enable-background="new 0 0 784.3 699" xml:space="preserve">
<polyline fill="#EB303B" points="576.9,194.8 623.9,222 651.4,206.1 610.8,182.7 576.9,194.8 "/>
<g>
	<path fill="#955A30" d="M721.6,618.2l-298-172.1c-39.8-23-55.3-1.8-62.7,0S0,654.4,0,654.4L32.3,672l328.5-189.6
		c37.6-21.7,62.7,0,62.7,0l266.7,154l62.7,36.2l31.4-18.1L721.6,618.2z"/>
	<path fill="#754525" d="M721.6,182.7l-298-172.1c-39.8-23-55.3-1.8-62.7,0S0,218.9,0,218.9l32.3,17.6L360.8,46.9
		c26.1-14.8,55.3-4.3,62.7,0s266.7,154,266.7,154L753,237l31.4-18.1L721.6,182.7z"/>
	<polygon fill="#472E31" points="753,237 753,672.6 784.3,654.4 784.3,218.9 	"/>
	<polygon fill="#472E31" points="32.3,236.5 32.3,672 0,654.4 0,218.9 	"/>
	<path fill="#362013" d="M753,237L423.5,46.9c0,0-31.5-18-62.7,0S32.3,236.5,32.3,236.5V672l328.5-189.6c0,0,31.4-22.1,62.7,0
		c21.4,12.4,0,0,0,0L753,672.6V237"/>
</g>
<g>
	<path fill="#955A30" d="M680.4,604L419.6,453.4c-34.8-20.1-48.4-1.6-54.9,0C358.2,455,49,635.7,49,635.7L77.3,651l287.2-165.8
		c-1-2.2-1.1-4.9,0.4-6.9c7.3-9.7,20-12.9,31.7-11.6c6.7,0.7,12.6,3.6,17.2,8.7c3.8,4.2,8.9,6.6,11.7,11.7c0.4,0.6,0.6,1.3,0.8,1.9
		L653,619.8l54.9,31.7l27.4-15.9L680.4,604z"/>
	<path fill="#F5F2CF" d="M680.4,222.9L419.6,72.3c-30.3-18.3-48.4-1.6-54.9,0C351.9,79.2,49,254.6,49,254.6L77.3,270L364.7,104
		c27.9-17.5,54.9,0,54.9,0L653,238.8l54.9,31.7l27.4-15.9L680.4,222.9z"/>
	<polygon fill="#F5ECC1" points="707.9,270.5 707.9,651.5 735.3,635.7 735.3,254.6 	"/>
	<polygon fill="#C0C8A1" points="77.3,270 77.3,651 49,635.7 49,254.6 	"/>
	<g id="XMLID_3_">
		<g>
			<path fill="#C7D2AA" d="M77.3,270L364.7,104h54.9l288.2,166.4v381.1l-279-161.1c1-2.2,0.8-4.9-0.3-7.3
				c-2.5-5.6-7.3-9.1-12.4-12.1c-5-3-9.7-6.7-15.8-6.6c-3.1,0-5.9,1.5-8.9,1.7c-4.1,0.3-8.3,0.4-12,2.3c-6,3-10.1,8.5-16,11.5
				c-3.6,1.8-4.5,5.1-3.6,8.1L77.3,651V270z"/>
		</g>
		<g>
		</g>
	</g>
	<path fill="#C7D2AA" d="M423.6,102.2"/>
</g>
<polygon fill="#FFF7D2" points="392.2,88 322.5,128.4 444.7,118.5 "/>
<polygon fill="#C7D2AA" points="430.6,452.3 365.4,449.8 331.1,504.5 392.6,469 431.7,492.1 "/>
<polygon fill="#C7D2AA" points="392.2,88 392.6,469 707.9,651.5 707.9,270.5 "/>
<polygon fill="#F6EAC0" points="77.3,270 77.3,651 392.6,469 392.2,88 "/>
<g>
	<g>
		<line fill="none" stroke="#729688" stroke-width="4" stroke-miterlimit="10" x1="101.8" y1="309.8" x2="376.1" y2="151.4"/>
		<line fill="none" stroke="#729688" stroke-width="4" stroke-miterlimit="10" x1="101.8" y1="329.7" x2="376.1" y2="171.3"/>
	</g>
	<g>
		<line fill="none" stroke="#729688" stroke-width="4" stroke-miterlimit="10" x1="101.8" y1="351.6" x2="376.1" y2="193.3"/>
		<line fill="none" stroke="#729688" stroke-width="4" stroke-miterlimit="10" x1="101.8" y1="371.5" x2="376.1" y2="213.1"/>
	</g>
</g>
<g>
	<g>
		<line fill="none" stroke="#729688" stroke-width="4" stroke-miterlimit="10" x1="101.8" y1="391.9" x2="376.1" y2="233.5"/>
		<line fill="none" stroke="#729688" stroke-width="4" stroke-miterlimit="10" x1="101.8" y1="411.7" x2="376.1" y2="253.4"/>
	</g>
	<g>
		<line fill="none" stroke="#729688" stroke-width="4" stroke-miterlimit="10" x1="101.8" y1="433.7" x2="376.1" y2="275.4"/>
		<line fill="none" stroke="#729688" stroke-width="4" stroke-miterlimit="10" x1="101.8" y1="453.6" x2="376.1" y2="295.2"/>
	</g>
</g>
<g>
	<g>
		<line fill="none" stroke="#729688" stroke-width="4" stroke-miterlimit="10" x1="101.8" y1="525.7" x2="376.1" y2="367.4"/>
		<line fill="none" stroke="#729688" stroke-width="4" stroke-miterlimit="10" x1="101.8" y1="545.6" x2="376.1" y2="387.2"/>
	</g>
	<g>
		<line fill="none" stroke="#729688" stroke-width="4" stroke-miterlimit="10" x1="101.8" y1="567.5" x2="376.1" y2="409.2"/>
		<line fill="none" stroke="#729688" stroke-width="4" stroke-miterlimit="10" x1="101.8" y1="587.4" x2="376.1" y2="429"/>
	</g>
</g>
<polygon fill="#D62132" points="651.4,206.1 623.9,222 623.9,294.4 576.9,277 576.9,194.8 610.8,182.7 "/>
<polygon fill="#FDF7D3" points="392.2,88 174.2,282.4 174.2,699 392.6,469 "/>
<polygon fill="#C7D2AA" points="623.9,294.4 597.7,264.2 576.9,277 "/>
<polygon fill="#E82D43" points="610.8,182.7 604.3,179 576.9,194.8 623.9,222 651.4,206.1 "/>
<g>
	<g>
		<path fill="#729688" d="M522.7,313.4c0.5-0.7,0.6-1.3,0.4-2.1c-0.4-1.6-0.7-3.2-1-4.9c-0.7-3.2-0.1-6.1,1.6-8.9
			c2.7-4.7,5.2-9.6,8.5-13.8c2.8-3.5,5.8-6.7,9.3-9.4c1.7-1.3,3.5-1.1,4.2,1.2c0.5,1.6,0.7,3.3,0.7,5c0.1,2.4,0,4.7,0,7.1
			c0,1.1-0.5,1.8-1.5,2.2c-0.9,0.3-1.8,0.6-2.6,1.1c-0.3,0.2-0.6,0.4-0.6,0.8c0,0.4,0.4,0.4,0.7,0.5c0.8,0.3,1.6,0.6,2.4,0.9
			c0.9,0.3,1.2,0.9,1.1,1.9c-0.5,5.8-1.7,11.6-3.4,17.2c-2,6.9-4.5,13.6-6.7,20.4c-0.3,0.9-0.9,1-1.7,0.9c-1.6-0.3-3.1-0.6-4.7-0.8
			c-0.7-0.1-1.6-0.5-1.9,0.1c-0.3,0.6,0.8,1,1.3,1.4c1.3,1,2.7,1.9,3.9,3c1.5,1.4,1.6,3,0.4,4.7c-1.7,2.3-4,2.5-6.5,2
			c-1.2-0.2-2.5-0.2-3.7-0.4c-0.7-0.1-1,0.2-1.1,0.9c-0.4,1.8-0.9,3.6-1.4,5.4c-0.2,0.7-0.5,0.8-1.1,0.4c-1-0.6-2.1-1.3-3.1-1.8
			c-0.6-0.3-0.8-0.8-0.6-1.5c0.5-1.8,0.9-3.6,1.4-5.4c0.2-0.7,0.1-1.2-0.3-1.9c-1.6-2.6-3-5.2-4.1-8c-1.1-2.9-1.2-5.8-0.1-8.7
			c2-5,3.8-10.2,6.1-15.1c0.1-0.3,0.1-0.8,0.6-0.8c0.4,0,0.4,0.5,0.5,0.8C520.7,309.8,521.5,311.6,522.7,313.4z"/>
		<path fill="#729688" d="M558,376.2c0.4-0.6,0.3-0.9,0.3-1.3c0-7.6,0-15.2,0-22.8c0-0.7-0.2-1.2-0.7-1.8c-3.6-4-8.1-6.4-13.3-7.6
			c-1.5-0.4-3-0.7-4.4-1.1c-0.6-0.1-1-0.4-1.1-1.1c-0.1-0.6-0.2-1.2,0.5-1.6c0,0,0.1,0,0.1-0.1c0.7-1.6,2-1.2,3.3-0.9
			c3.3,0.9,6.5,1.8,9.4,3.6c2.8,1.7,5.3,3.9,7.5,6.3c0.2,0.3,0.4,0.6,0.9,0.6c3.8,0.1,7,1.8,10.1,3.9c3.3,2.3,6.2,5.1,9.1,7.8
			c3.1,2.8,6.2,5.7,9.9,7.6c0.6,0.3,1.3,0.6,2,0.9c1.3,0.4,1.9,1.4,2.3,2.5c3.8,12.1,7.7,24.1,11.5,36.2c0.5,1.5,0.9,3,1.3,4.5
			c0.2,0.7,0.3,1.4-0.4,1.9c-0.7,0.5-1.3,0.1-1.9-0.3c-4.9-3-9.7-6.1-14.6-9.1c-3.7-2.3-7.4-4.8-11.2-6.9c-4-2.2-8.1-4.3-12.4-5.8
			c-1-0.4-1.5-1.1-2-2c-1.3-2.6-3.1-4.7-6.2-5.4c-0.8-0.2-1.5,0-2,0.5c-0.6,0.6-1.2,0.5-1.9,0.1c-2-1.5-4-3-6-4.4
			c-3.4-2.3-6.8-4.6-10.4-6.4c-2.3-1.2-4.5-2.7-6.9-3.6c-0.8-0.3-1.3-0.9-1.6-1.7c-0.5-1.3-1.1-2.6-1.9-3.8
			c-0.8-1.2-0.6-2.4-0.4-3.7c0.1-0.5,0.3-0.8,0.9-0.6c5.2,1.3,10.5,2,15.4,4.2c5.6,2.5,10.2,6.2,14.3,10.6
			C557.7,375.7,557.8,375.9,558,376.2z M601.5,405.4c-0.1-0.4-0.2-0.6-0.2-0.8c-1-3.2-2.1-6.5-3.1-9.7c-2.2-7-4.4-14.1-6.7-21.1
			c-0.2-0.5-0.2-1-0.8-1.2c-2.6-1.1-4.8-2.7-6.9-4.5c-3.7-3.2-7.3-6.5-11.1-9.7c-2.9-2.4-6-4.5-9.9-5.2c-0.9-0.1-1.1,0-1.1,0.9
			c0,7.7,0,15.4,0,23.2c0,0.9,0.3,1.2,1.2,1.3c1.8,0.1,3.5,0.4,5.2,1c4.3,1.5,8.1,4.1,11.6,7c4.6,3.8,8.8,8,13.2,12
			C595.5,400.9,598.3,403.3,601.5,405.4z"/>
		<path fill="#729688" d="M609.7,422.5c0,2.1-1,2.8-2.5,1.9c-3.1-1.7-6-3.7-9-5.6c-3.2-2-6.5-4-9.8-6c-5.3-3.3-10.5-6.7-15.8-9.8
			c-1.2-0.7-2.2-1.6-3.4-2.2c-0.3-0.2-0.6-0.3-0.9,0c-2.1,2.4-4.8,1.8-6.9,0.7c-4.5-2.2-7.6-5.7-9.6-10.2c-0.3-0.6-0.6-1-1.2-1.3
			c-3.8-2-7.5-4-11.3-6.1c-2-1.1-4-2.1-5.9-3.2c-0.5-0.3-0.8-0.7-0.9-1.2c-0.3-1.7-0.6-3.3-1.1-5c-0.1-0.2-0.2-0.5,0-0.7
			c0.2-0.1,0.4,0.1,0.6,0.2c5.9,3.2,11.9,6.3,17.8,9.5c0.8,0.4,1.6,0.8,2.4,1.2c1.8,0.8,2.8,2.3,3.4,4.1c0.8,2.6,2.3,4.7,4.8,6
			c2,1.1,3.2,0.9,4.5-0.9c0.7-1,1.4-1.2,2.4-0.5c2.8,1.7,5.6,3.5,8.4,5.2c2.7,1.7,5.5,3.4,8.2,5.1c2.6,1.6,5.2,3.3,7.8,4.9
			c3.2,2,6.4,3.9,9.6,5.9c1.9,1.2,3.8,2.3,5.6,3.5C608.5,419.3,609.6,420.8,609.7,422.5z"/>
		<path fill="#729688" d="M505.7,370.1c0.2-3.8,0.7-7.6,3.3-10.6c0.5-0.5,1-1.1,1.6-1.5c0.7-0.5,0.9-0.9,0.8-1.8
			c-0.3-1.5-0.4-2.9-0.6-4.4c0-0.3-0.2-0.6,0.1-0.8c0.2-0.1,0.5,0.1,0.7,0.2c2.5,1.4,4.9,2.8,7.4,4.2c0.8,0.5,1.7,1,2.5,1.4
			c0.6,0.3,0.9,0.8,0.7,1.4c-0.1,0.8-0.3,1.6-0.4,2.3c-0.1,0.6-0.4,0.7-1,0.4c-1.4-0.8-2.9-1.6-4.3-2.5c-0.4-0.2-0.8-0.5-1.3-0.2
			c-0.5,0.3-0.5,0.8-0.4,1.3c0.2,1.1,0.8,1.9,1.8,2.4c2.2,1.3,4.4,2.5,6.5,3.8c0.4,0.3,0.8,0.6,1,1c2.7,5.3,4.1,11,4.1,17
			c0,1.3-0.1,1.3-1.1,0.7c-6.6-3.8-13.2-7.7-19.8-11.4C505.8,372.5,505.5,371.5,505.7,370.1z"/>
		<path fill="#729688" d="M526.7,353.1c0-1.3,0.5-1.7,1.6-1.4c1.4,0.4,2.8,0.6,4.2,0.9c3.9,0.8,7.7,1.7,11.3,3.3
			c3.3,1.6,6.4,3.4,9.1,6c0.6,0.6,1,1.3,1.2,2.2c0.1,0.6,0,1.1-0.5,1.5c-0.5,0.4-0.9,0.1-1.3-0.2c-1.4-0.9-2.6-1.9-3.9-2.9
			c-2.3-1.6-4.9-2.7-7.5-3.6c-3.3-1.1-6.8-1.8-10.3-2.4c-1.3-0.2-2.7-0.6-3.5-2C526.9,354.1,526.7,353.6,526.7,353.1z"/>
		<path fill="#729688" d="M554.2,356.4c0,0.5-0.1,1-0.6,1.2c-0.6,0.3-1.1,0-1.5-0.3c-0.8-0.6-1.5-1.2-2.3-1.8
			c-3.5-2.4-7.4-3.9-11.6-4.9c-0.9-0.2-1.7-0.5-2.6-0.7c-0.2-0.1-0.4-0.1-0.5-0.3c-0.1-0.3,0.2-0.4,0.4-0.5c0.9-0.5,1.5-1.2,2-2
			c0.3-0.4,0.6-0.6,1.1-0.4c5.3,1.3,10.1,3.7,14.2,7.3C553.6,354.5,554.1,355.4,554.2,356.4z"/>
		<path fill="#729688" d="M594.3,392.1c0,0.5-0.2,0.9-0.6,1.1c-0.5,0.2-1,0.1-1.5-0.3c-0.9-0.8-1.9-1.6-2.8-2.5
			c-3.3-3.1-6.6-6.3-10.1-9.2c-3.4-2.8-6.9-5.3-11.1-6.7c-1.4-0.4-2.1-1.5-2.4-2.9c-0.2-1.2,0.5-1.8,1.7-1.4c4.6,1.4,8.4,4.1,12.1,7
			c4.7,3.8,8.9,8.3,13.5,12.3C593.8,390.3,594.2,391.2,594.3,392.1z"/>
		<path fill="#729688" d="M590.5,380.5c0,0.5-0.1,1-0.5,1.2c-0.6,0.3-1.2,0.1-1.6-0.3c-1.3-1.1-2.6-2.2-3.9-3.3
			c-3.3-2.9-6.4-6-10.1-8.4c-1.9-1.3-3.8-2.4-6.1-3.1c-1.4-0.4-2.1-1.5-2.4-2.9c-0.2-1.2,0.5-1.8,1.6-1.5c2,0.6,3.8,1.6,5.5,2.6
			c4.3,2.6,7.9,6,11.6,9.3c1.4,1.3,2.9,2.4,4.4,3.7C589.8,378.5,590.3,379.4,590.5,380.5z"/>
	</g>
</g>
<g id="Literary_fest">
	<text transform="matrix(0.866 0.5 0 1 461.6536 417.2954)"><tspan x="0" y="0" fill="#708B7A" font-family="'Bebas'" font-size="47.9997">Literary</tspan><tspan x="46.2" y="57.6" fill="#708B7A" font-family="'Bebas'" font-size="47.9997">fest</tspan></text>
</g>
<g>
	<line fill="#729688" stroke="#729688" stroke-width="4" stroke-miterlimit="10" x1="205.6" y1="350.9" x2="378.1" y2="179"/>
	<line fill="#729688" stroke="#729688" stroke-width="4" stroke-miterlimit="10" x1="203.5" y1="375" x2="376.1" y2="203.1"/>
	<line fill="#729688" stroke="#729688" stroke-width="4" stroke-miterlimit="10" x1="203.6" y1="392.9" x2="376.1" y2="221"/>
	<line fill="#729688" stroke="#729688" stroke-width="4" stroke-miterlimit="10" x1="203.6" y1="411.1" x2="376.1" y2="239.1"/>
	<line fill="#729688" stroke="#729688" stroke-width="4" stroke-miterlimit="10" x1="202.6" y1="429.7" x2="375.1" y2="257.7"/>
	<line fill="#729688" stroke="#729688" stroke-width="4" stroke-miterlimit="10" x1="202.6" y1="447.8" x2="375.1" y2="275.8"/>
</g>
<g>
	<line fill="#729688" stroke="#729688" stroke-width="4" stroke-miterlimit="10" x1="195.7" y1="497.2" x2="368.2" y2="325.2"/>
	<line fill="#729688" stroke="#729688" stroke-width="4" stroke-miterlimit="10" x1="193.6" y1="521.3" x2="366.2" y2="349.3"/>
	<line fill="#729688" stroke="#729688" stroke-width="4" stroke-miterlimit="10" x1="193.7" y1="539.2" x2="366.2" y2="367.2"/>
	<line fill="#729688" stroke="#729688" stroke-width="4" stroke-miterlimit="10" x1="193.7" y1="557.3" x2="366.2" y2="385.3"/>
	<line fill="#729688" stroke="#729688" stroke-width="4" stroke-miterlimit="10" x1="192.7" y1="576" x2="365.2" y2="404"/>
	<line fill="#729688" stroke="#729688" stroke-width="4" stroke-miterlimit="10" x1="192.7" y1="594" x2="365.2" y2="422"/>
</g>
</svg>
